<svg width="62" height="81" viewBox="0 0 62 81" fill="none" xmlns="http://www.w3.org/2000/svg">
<path d="M7.26416 65.329L12.0061 68.2158L8.82556 73.4598C8.67906 73.7014 8.60523 74.0057 8.61819 74.3146C8.63116 74.6235 
8.73001 74.9153 8.89583 75.1341L10.8021 77.6485C10.9688 77.8684 11.1915 77.999 11.427 78.0151C11.6625 78.0311 11.8941 77.9314
 12.0771 77.7353L17.7161 71.6919L19.1569 72.5691C19.0958 72.7925 19.0843 73.0343 19.1239 73.266C19.1634 73.4977 19.2524 73.7096
  19.3802 73.8769L21.2865 76.3913C21.4227 76.571 21.597 76.692 21.7864 76.7384C21.9759 76.7848 22.1715 76.7544 22.3475 76.6512L30.0563 
  72.132C30.4607 71.8934 30.8178 71.5347 31.0996 71.084C31.3815 70.6332 31.5806 70.1026 31.6812 69.5335L34.2875 54.6363L39.804 
  43.7217L44.4441 39.6414C45.1956 38.9813 45.7892 38.0527 46.1555 36.9641L47.0823 34.2137L52.5388 50.8573L54.2884 49.8593L48.1349 
  31.0896L49.5189 26.9821C49.6186 26.6865 49.6279 26.3515 49.5451 26.047C49.4623 25.7425 49.2936 25.4918 49.0743 25.3471L47.168 
  24.0899C46.9891 23.9719 46.7865 23.9311 46.589 23.9734C46.3916 24.0156 46.2092 24.1388 46.0677 24.3254L45.9627 24.4639L39.0384 
  3.34294C38.9652 3.11958 38.8444 2.92907 38.6906 2.79449C38.5369 2.65992 38.3569 2.58708 38.1724 2.58481C38.1694 2.58473 38.1665 
  2.58473 38.1636 2.58473C37.9806 2.58474 37.8014 2.65424 37.6476 2.78492C37.4937 2.9156 37.3716 3.10194 37.2959 3.32168L32.5302 
  17.1509C32.4522 17.3772 32.4268 17.629 32.4573 17.8744C32.4878 18.1198 32.5728 18.3477 32.7015 18.5294C32.8302 18.7111 32.9968 
  18.8384 33.1804 18.8952C33.3639 18.9519 33.5561 18.9356 33.7326 18.8483L40.885 15.3104L44.5128 26.3763L40.0322 32.2864C39.718 
  32.6999 39.3354 33.0118 38.9145 33.1975L38.1636 33.5276V27.2485C38.1636 26.6875 38.0549 26.1358 37.8477 25.6457C37.6406 25.1557 
  37.3419 24.7436 36.9801 24.4487C36.6183 24.1537 36.2053 23.9857 35.7804 23.9605C35.3554 23.9353 34.9327 24.0537 34.5522 
  24.3047L31.0654 26.6043C30.9071 26.7087 30.774 26.8692 30.6809 27.0678C30.5879 27.2664 30.5386 27.4953 30.5386 27.7287V34.0147C30.5386
   34.0789 30.5404 34.1425 30.5423 34.2061L26.4871 35.0976C25.7712 35.2562 25.0919 35.6273 24.5007 36.183L19.2109 41.1667C18.8968
    41.4638 18.6313 41.8416 18.4305 42.2773C18.2297 42.7131 18.0976 43.1978 18.0422 43.7025L17.275 50.7857L13.9377 52.9867L11.8755
    51.7312C11.7608 51.6614 11.6368 51.6224 11.5106 51.6164C11.3843 51.6104 11.2585 51.6375 11.1403 51.6962C11.0221 51.7549 10.9139 
    51.844 10.822 51.9583C10.7301 52.0726 10.6564 52.2099 10.6051 52.3621L6.7926 63.6769C6.69088 63.9788 6.68333 64.3214 6.77157 
    64.6305C6.85982 64.9397 7.03677 65.1906 7.26416 65.329ZM35.2179 15.4283L38.1418 6.94311L40.1274 12.9998L35.2179 15.4283ZM11.5422
    75.0688L10.847 74.1518L13.789 69.3012L15.7882 70.5183L11.5422 75.0688ZM24.0125 48.4196L21.0833 53.2493L21.0444 52.9926L22.542
    48.0541C22.5901 47.8962 22.662 47.7528 22.7532 47.6324C22.8444 47.5121 22.9532 47.4173 23.0729 47.3538L24.7525 46.4676L24.0125
    48.4196ZM21.8307 60.5611L19.0286 62.7788L13.2837 59.5312L12.7125 55.0101L21.8307 60.5611ZM23.0288 65.9983L25.773 
    63.0572L25.7731 66.055L21.7244 69.8695L23.0288 65.9983ZM29.8238 68.9681C29.7903 69.1578 29.7239 69.3347 29.63 69.485C29.536
    69.6352 29.4169 69.7548 29.2821 69.8343L22.1715 74.0028L21.5238 73.1484L26.8812 68.1009C27.1278 67.8679 27.3288 67.5608 
    27.4676 67.2051C27.6063 66.8493 27.6789 66.4551 27.6792 66.055V60.4159C27.6792 60.1783 27.6282 59.9455 27.532 59.7446C27.4358 
    59.5437 27.2984 59.3828 27.1357 59.2807C26.973 59.1786 26.7918 59.1394 26.6129 59.1676C26.434 59.1958 26.2648 59.2903 26.125 
    59.4402L24.7374 60.9273L24.7377 60.9265C24.8394 60.6246 24.847 60.2821 24.7587 59.9729C24.6705 59.6638 24.4935 59.4129 24.2661
    59.2744L21.7661 57.7525L21.5716 56.4694L25.1047 50.6439L32.2925 54.8576L29.8238 68.9681ZM34.3511 36.5291C33.8457 36.5284 
    33.3612 36.2632 33.0038 35.7918C32.6464 35.3205 32.4454 34.6814 32.4448 34.0147V31.5003H36.2573V34.0147C36.2568 34.6814 
    36.0557 35.3205 35.6984 35.7918C35.341 36.2632 34.8565 36.5284 34.3511 36.5291ZM32.4448 28.5057L35.4048 26.5536C35.4947 
    26.4943 35.5945 26.4664 35.6948 26.4723C35.7951 26.4783 35.8926 26.518 35.978 26.5876C36.0634 26.6572 36.1339 26.7545 
    36.1828 26.8702C36.2317 26.9858 36.2573 27.1161 36.2573 27.2485V28.9859H32.4448V28.5057ZM19.9294 44.058C19.9478 43.8898 
    19.9918 43.7282 20.0587 43.583C20.1257 43.4378 20.2141 43.3118 20.3188 43.2128L25.6087 38.2289C25.9635 37.8956 26.371 
    37.673 26.8005 37.5778L31.0975 36.6331C31.5292 37.5623 32.1768 38.2827 32.944 38.6871L32.3402 40.2799L34.0452 41.4043L34.9652
    38.9774C35.5445 38.8514 36.0941 38.5511 36.5712 38.0997C37.0483 37.6484 37.4402 37.0581 37.7164 36.3747L39.5173 35.5829C40.2189 
    35.2732 40.8565 34.7534 41.3803 34.0642L46.93 26.744L47.4071 27.0588L44.4136 35.943C44.1938 36.5962 43.8376 37.1533 43.3867 
    37.5493L38.588 41.7691C38.4833 41.8612 38.3935 41.9797 38.3237 42.1178L33.0507 52.5506L26.1184 48.4866L27.5786 44.6345C27.665
    44.4065 27.6968 44.1492 27.6699 43.8968C27.6429 43.6444 27.5583 43.4087 27.4275 43.2211C27.2966 43.0335 27.1256 42.9028 26.9371 
    42.8464C26.7486 42.7899 26.5516 42.8104 26.3721 42.9051L22.3649 45.0192C22.0057 45.2097 21.6795 45.4941 21.4058 45.8552C21.1321
    46.2162 20.9165 46.6466 20.7721 47.1203L19.5539 51.1372L19.1887 50.8963L19.9294 44.058ZM18.148 53.0211L19.211 53.7222L19.6244 
    56.4486L16.1542 54.336L18.148 53.0211ZM11.0578 57.2097L11.489 60.6226C11.5153 60.8306 11.5808 61.0264 11.6795 61.1922C11.7781 
    61.358 11.9069 61.4884 12.0538 61.5714L18.7256 65.343C18.8643 65.4215 19.0151 65.4553 19.1656 65.4418C19.3162 65.4284 19.4621 
    65.3679 19.5915 65.2655L21.7708 63.5408L19.5759 70.0549L8.91619 63.5654L11.0578 57.2097Z" fill="white"/>
<path d="M29.6656 47.2888L31.7085 41.8997L33.4127 43.0236L31.3698 48.4128L29.6656 47.2888Z" fill="white"/>
</svg>
