<svg width="31" height="31" viewBox="0 0 31 31" fill="none" xmlns="http://www.w3.org/2000/svg">
<g clip-path="url(#clip0)">
<path d="M30.4163 0.879395H0.41626V21.202H9.36504L5.73884 29.8138V30.8794H9.4534L13.3244 
21.202H13.4808V28.9439H17.3517V21.202H17.5082L21.3791 30.8794H25.0937V29.8138L21.4675 21.202H30.4163V0.879395ZM29.4485 
1.84714V17.331H1.384V1.84714H29.4485ZM8.79847 29.9117H6.74769L10.415 21.202H12.2822L8.79847 29.9117ZM16.384 
27.9762H14.4485V21.202H16.384V27.9762ZM24.0848 29.9117H22.034L18.5503 21.202H20.4175L24.0848 29.9117ZM1.384 
20.2342V18.2987H29.4485V20.2342H1.384Z" />
<path d="M17.8356 11.0407C17.8356 13.9753 20.2235 16.3632 23.1582 16.3632C26.0928 16.3632 28.4807 13.9753 28.4807 
11.0407C28.4807 8.10601 26.0928 5.71808 23.1582 5.71808C20.2235 5.71808 17.8356 8.10601 17.8356 11.0407ZM18.8319 
11.5245H22.6743V15.3669C20.6594 15.1429 19.0559 13.5399 18.8319 11.5245ZM27.513 11.0407C27.513 13.2786 25.8161 
15.1254 23.642 15.3669V6.71441C25.8161 6.95587 27.513 8.80276 27.513 11.0407ZM22.6743 6.71441V10.5568H18.8319C19.0559 
8.54145 20.6594 6.93839 22.6743 6.71441Z"/>
<path d="M3.31948 7.98315V12.4923H11.0614V7.98315L11.7267 8.51522L12.3311 7.75965L7.19045 3.64722L2.04932 
7.75965L2.65368 8.51522L3.31948 7.98315ZM8.15819 11.5245H6.2227V9.58905H8.15819V11.5245ZM10.0937 
7.20891V11.5245H9.12593V8.62131H5.25496V11.5245H4.28722V7.20891L7.19045 4.88619L10.0937 7.20891Z"/>
<path d="M2.35168 15.3955H3.31943V16.3632H2.35168V15.3955Z"/>
<path d="M4.28723 15.3955H12.0292V16.3632H4.28723V15.3955Z" />
<path d="M2.35168 13.46H12.0291V14.4278H2.35168V13.46Z"/>
<path d="M13.9647 3.78262H14.9324V8.13746H15.9002V3.78262H16.8679V7.16972H17.8357V3.78262H18.8034V5.71811H19.7711V2.81488H12.9969V7.16972H13.9647V3.78262Z" 
/>
</g>
<defs>
<clipPath id="clip0">
<rect width="30" height="30" fill="white" transform="translate(0.41626 0.879395)"/>
</clipPath>
</defs>
</svg>
