<svg width="61" height="56" viewBox="0 0 61 56" fill="none" xmlns="http://www.w3.org/2000/svg">
<g clip-path="url(#clip0)">
<path d="M53.815 19.8786L49.2522 15.5617L50.1713 9.61569C50.3119 8.70626 49.6393 7.85858 48.6508 7.70013L42.1883 6.66312L39.1121 
1.35616C38.6419 0.545032 37.5529 0.221307 36.6522 0.624715L30.7587 3.26173L24.8636 0.624715C23.9621 0.221307 22.8742 0.545259 
22.4037 1.35661L19.3287 6.66312L12.8655 7.70013C11.8772 7.85858 11.2044 8.70626 11.345 9.61569L12.2639 15.5617L7.70111 19.8786C7.00348 
20.5388 7.00348 21.5863 7.70136 22.2464L12.2639 26.5629L11.345 32.5121C11.2046 33.4213 11.8772 34.269 12.8655 34.4274L18.0381 
35.2574V53.6714C18.0381 54.2614 18.3719 54.8094 18.9202 55.1195C19.2188 55.2886 19.5581 55.374 19.8981 55.374C20.1823 55.374 20.4673 
55.3145 20.7299 55.1942L30.7589 50.6057L40.7864 55.1942C41.3627 55.458 42.0477 55.4298 42.5961 55.1195C43.1444 54.8092 43.4782 54.2611
43.4782 53.6711V35.2576L48.651 34.4272C49.6393 34.2685 50.3119 33.4211 50.1716 32.5116L49.2524 26.5624L53.815 22.2462C54.5123 21.5865 
54.5123 20.5388 53.815 19.8786ZM31.5905 47.1791C31.0672 46.9396 30.4509 46.9394 29.9271 47.1791L21.7581 50.9167V39.6556L22.4039 
40.77C22.8742 41.5816 23.9634 41.9051 24.8641 41.5015L30.7589 38.8626L36.6519 41.5015C36.9148 41.6191 37.1936 41.6749 37.4681 
41.6749C38.1352 41.6749 38.7791 41.3448 39.1124 40.7703L39.7582 39.6567V50.9167L31.5905 47.1791ZM45.9463 24.7931C45.5473 25.1706 
45.361 25.6955 45.4414 26.2156L46.2358 31.3577L40.6505 32.2542C40.0855 32.3448 39.5977 32.6692 39.3286 33.133L36.6698 37.7187L31.5761
35.4379C31.3181 35.3225 31.0384 35.2647 30.7587 35.2647C30.4789 35.2647 30.1992 35.3223 29.9415 35.4379L24.8465 37.7187L22.1887 
33.1332C21.9198 32.6692 21.432 32.3448 20.8668 32.2542L15.2803 31.3577L16.0744 26.2153C16.1548 25.6955 15.9685 25.1704 15.5695 
24.7931L11.626 21.0623L15.5697 17.3311C15.9685 16.9535 16.1548 16.4287 16.0744 15.9088L15.2803 10.7698L20.8668 9.87335C21.432 9.78277 
21.9198 9.45814 22.1889 8.99412L24.8468 4.40726L29.942 6.6865C30.4573 6.91715 31.0602 6.91715 31.5756 6.6865L36.6693 4.40726L39.3286 
8.99435C39.5975 9.45814 40.0853 9.78255 40.6505 9.87335L46.2358 10.7696L45.4414 15.9086C45.361 16.4287 45.5473 16.9535 45.9461 
17.3311L49.8898 21.0623L45.9463 24.7931Z" fill="white"/>
<path d="M30.7586 9.42004C23.7444 9.42004 18.0378 14.6428 18.0378 21.0626C18.0378 27.4837 23.7444 32.7076 30.7586 32.7076C37.7719 
32.7076 43.4777 27.4837 43.4777 21.0626C43.4777 14.6428 37.7719 9.42004 30.7586 9.42004ZM30.7586 29.3024C25.7956 29.3024 21.7579 
25.6061 21.7579 21.0626C21.7579 16.5204 25.7956 12.8253 30.7586 12.8253C35.7207 12.8253 39.7577 16.5204 39.7577 21.0626C39.7577 25.6061 
35.7207 29.3024 30.7586 29.3024Z" fill="white"/>
<path d="M34.5504 16.7431L29.0559 21.7715L26.965 19.8598C26.2383 19.1951 25.0605 19.1958 24.3344 19.8612C23.6085 20.5265 23.6092 
21.6044 24.3361 22.2689L27.742 25.3831C28.105 25.7152 28.5807 25.8812 29.0564 25.8812C29.5323 25.8812 30.0084 25.715 
30.3715 25.3827L37.1804 19.1513C37.9071 18.4866 37.9071 17.4085 37.1807 16.7433C36.4545 16.0784 35.2768 16.0782 34.5504 
16.7431Z" fill="white"/>
</g>
<defs>
<clipPath id="clip0">
<rect width="60" height="54.9227" fill="white" transform="translate(0.758026 0.451294)"/>
</clipPath>
</defs>
</svg>
