<svg width="31" height="31" viewBox="0 0 31 31" fill="none" xmlns="http://www.w3.org/2000/svg">
<path d="M21.9983 14.8373C20.7221 14.8373 19.6873 13.8027 19.6873 12.5263C19.6873 11.2501 20.7221 10.2153 
21.9983 10.2153C23.2747 10.2153 24.3093 11.2501 24.3093 12.5263C24.3079 13.8022 23.2741 14.8359 21.9983 14.8373ZM21.9983 
11.1398C21.2326 11.1398 20.6117 11.7606 20.6117 12.5263C20.6117 13.2923 21.2326 13.9128 21.9983 13.9128C22.7643 13.9128 
23.3848 13.2923 23.3848 12.5263C23.3848 11.7606 22.7643 11.1398 21.9983 11.1398Z"/>
<path d="M9.05687 14.8373C7.78065 14.8373 6.74585 13.8027 6.74585 12.5263C6.74585 11.2501 7.78065 10.2153 9.05687 
10.2153C10.3333 10.2153 11.3679 11.2501 11.3679 12.5263C11.3664 13.8022 10.3327 14.8359 9.05687 14.8373ZM9.05687 
11.1398C8.29117 11.1398 7.67033 11.7606 7.67033 12.5263C7.67033 13.2923 8.29117 13.9128 9.05687 13.9128C9.82293 
13.9128 10.4434 13.2923 10.4434 12.5263C10.4434 11.7606 9.82293 11.1398 9.05687 11.1398Z"/>
<path d="M24.7714 17.8149L29.1775 13.8095C29.6929 13.3297 29.7291 12.5252 29.2585 12.0013C28.788 11.4773 
27.9843 11.4269 27.4522 11.888L24.1336 14.8373H19.4683L15.9896 19.0895V7.44215H20.6116V9.29093H28.2272L27.118 6.51767L28.2272 
3.74459H22.9226V1.89581H15.0653V19.0895L11.5869 14.8373H6.92164L3.60295 11.8875C3.07055 11.4254 2.26597 11.4755 1.79505 
11.9998C1.32376 12.5243 1.36011 13.3294 1.87679 13.8095L6.28362 17.8149V28.703H1.66158V29.6275H29.3933V28.703H24.7714V17.8149ZM22.9226 
4.66889H26.8618L26.1225 6.51767L26.8618 8.36645H21.5359V7.44215H22.9226V4.66889ZM15.9896 
2.82011H21.9981V6.51767H15.9896V2.82011ZM10.9055 28.703H9.51894V22.2324H8.59446V28.703H7.20792V17.4062L2.49908 
13.1272C2.36652 13.0039 2.34301 12.8026 2.4432 12.6516C2.50179 12.5637 2.59547 12.5054 2.70018 12.4919C2.80489 
12.4781 2.9105 12.5105 2.98953 12.5805L6.57026 15.7616H11.1487L14.5855 19.9622C14.7188 20.1214 14.6978 20.3583 
14.5388 20.4917C14.3795 20.6248 14.1424 20.6039 14.0093 20.4447L10.9055 16.8247V28.703ZM19.2251 28.703H11.83V19.3206L13.3091 
21.0446C13.7379 21.5441 14.4719 21.6444 15.019 21.2784C15.0362 21.2668 15.051 21.2522 15.0678 21.2395V25.0055H15.9921V21.2404C16.0095 
21.2536 16.0248 21.2692 16.0433 21.2813C16.59 21.6448 17.3219 21.5441 17.7497 21.046L19.2251 19.3206V28.703ZM23.8469 
28.703H22.4604V22.2324H21.5359V28.703H20.1494V16.8247L17.0459 20.4462C16.9216 20.5901 16.7093 20.6185 16.5518 20.5122C16.4636 
20.4541 16.4042 20.361 16.3891 20.2565C16.3731 20.1518 16.4023 20.0452 16.4695 19.9635L19.9063 15.7616H24.4849L28.065 12.5791C28.1434 
12.508 28.2496 12.4752 28.3543 12.4899C28.4606 12.5033 28.5554 12.5628 28.6136 12.6527C28.7131 12.8029 28.6887 13.0033 28.5558 
13.1254L23.8469 17.4062V28.703Z" />
</svg>
