<?xml version="1.0"?>
<svg xmlns="http://www.w3.org/2000/svg" viewBox="0 0 64 64" width="512" height="512"><g id="Firewall"><path d="M32,50A18,18,0,1,1,50,32,18.021,18.021,0,0,1,32,50Zm0-34A16,16,0,1,0,48,32,16.019,16.019,0,0,0,32,16Z"/><path d="M39,28V25a7,7,0,0,0-14,0v3a3,3,0,0,0-3,3V41a3,3,0,0,0,3,3H39a3,3,0,0,0,3-3V31A3,3,0,0,0,39,28ZM27,25a5,5,0,0,1,10,0v3H36V25a4,4,0,0,0-8,0v3H27Zm7,3H30V25a2,2,0,0,1,4,0Zm6,13a1,1,0,0,1-1,1H25a1,1,0,0,1-1-1V31a1,1,0,0,1,1-1H39a1,1,0,0,1,1,1Z"/><path d="M32,31a2.993,2.993,0,0,0-1,5.816V40a1,1,0,0,0,2,0V36.816A2.993,2.993,0,0,0,32,31Zm0,4a1,1,0,1,1,1-1A1,1,0,0,1,32,35Z"/><path d="M61,62H45a1,1,0,0,1-1-1V53a1,1,0,0,1,1-1H61a1,1,0,0,1,1,1v8A1,1,0,0,1,61,62ZM46,60H60V54H46Z"/><path d="M19,62H3a1,1,0,0,1-1-1V53a1,1,0,0,1,1-1H19a1,1,0,0,1,1,1v8A1,1,0,0,1,19,62ZM4,60H18V54H4Z"/><path d="M11.61,38H3a1,1,0,0,1-1-1V27a1,1,0,0,1,1-1h8.61a1,1,0,0,1,.97,1.243,19.8,19.8,0,0,0,0,9.514A1,1,0,0,1,11.61,38ZM4,36h6.369a21.865,21.865,0,0,1,0-8H4Z"/><path d="M61,38H52.39a1,1,0,0,1-.97-1.243,19.8,19.8,0,0,0,0-9.514A1,1,0,0,1,52.39,26H61a1,1,0,0,1,1,1V37A1,1,0,0,1,61,38Zm-7.369-2H60V28H53.631a21.865,21.865,0,0,1,0,8Z"/><path d="M61,50H44.31a1,1,0,0,1-.587-1.81,20.143,20.143,0,0,0,6.344-7.62,1,1,0,0,1,.9-.57H61a1,1,0,0,1,1,1v8A1,1,0,0,1,61,50ZM47.081,48H60V42H51.591A22.187,22.187,0,0,1,47.081,48Z"/><path d="M19.69,50H3a1,1,0,0,1-1-1V41a1,1,0,0,1,1-1H13.03a1,1,0,0,1,.9.57,20.143,20.143,0,0,0,6.344,7.62A1,1,0,0,1,19.69,50ZM4,48H16.919a22.187,22.187,0,0,1-4.51-6H4Z"/><path d="M61,24H50.97a1,1,0,0,1-.9-.57,20.143,20.143,0,0,0-6.344-7.62A1,1,0,0,1,44.31,14H61a1,1,0,0,1,1,1v8A1,1,0,0,1,61,24Zm-9.409-2H60V16H47.081A22.187,22.187,0,0,1,51.591,22Z"/><path d="M13.03,24H3a1,1,0,0,1-1-1V15a1,1,0,0,1,1-1H19.69a1,1,0,0,1,.587,1.81,20.143,20.143,0,0,0-6.344,7.62A1,1,0,0,1,13.03,24ZM4,22h8.409a22.187,22.187,0,0,1,4.51-6H4Z"/><path d="M41,62H23a1,1,0,0,1-1-1V53a1,1,0,0,1,1-1H41a1,1,0,0,1,1,1v8A1,1,0,0,1,41,62ZM24,60H40V54H24Z"/><path d="M61,12H45a1,1,0,0,1-1-1V3a1,1,0,0,1,1-1H61a1,1,0,0,1,1,1v8A1,1,0,0,1,61,12ZM46,10H60V4H46Z"/><path d="M19,12H3a1,1,0,0,1-1-1V3A1,1,0,0,1,3,2H19a1,1,0,0,1,1,1v8A1,1,0,0,1,19,12ZM4,10H18V4H4Z"/><path d="M41,12H23a1,1,0,0,1-1-1V3a1,1,0,0,1,1-1H41a1,1,0,0,1,1,1v8A1,1,0,0,1,41,12ZM24,10H40V4H24Z"/></g></svg>
