<?xml version="1.0" encoding="iso-8859-1"?>
<!-- Generator: Adobe Illustrator 19.0.0, SVG Export Plug-In . SVG Version: 6.00 Build 0)  -->
<svg version="1.1" id="Layer_1" xmlns="http://www.w3.org/2000/svg" xmlns:xlink="http://www.w3.org/1999/xlink" x="0px" y="0px"
	 viewBox="0 0 512.014 512.014" style="enable-background:new 0 0 512.014 512.014;" xml:space="preserve">
<g>
	<g>
		<path d="M124.672,280.602c-18.283-17.323-91.392-22.933-113.365-24.235c-2.987-0.107-5.824,0.875-7.957,2.88
			C1.216,261.253,0,264.069,0,267.013v192c0,5.888,4.779,10.667,10.667,10.667h64c4.608,0,8.704-2.965,10.133-7.36
			c1.557-4.779,38.315-117.589,43.157-173.056C128.235,286.021,127.04,282.821,124.672,280.602z M66.88,448.346H21.333V278.448
			c34.283,2.709,71.275,8.597,84.715,15.125C100.395,340.293,74.816,423.301,66.88,448.346z"/>
	</g>
</g>
<g>
	<g>
		<path d="M510.891,411.589c-14.827-29.632-47.595-44.715-79.744-36.672l-81.728,20.437c-5.717,1.429-9.195,7.211-7.765,12.928
			c1.429,5.717,7.211,9.195,12.928,7.765l81.728-20.437c18.667-4.629,37.632,1.877,49.387,16.128l-105.749,48.085
			c-89.707,36.757-92.8,35.584-131.243,21.077l-160-53.333c-5.632-1.877-11.627,1.152-13.483,6.741
			c-1.856,5.589,1.152,11.627,6.741,13.483l159.595,53.205c17.941,6.763,30.315,10.688,44.224,10.688
			c21.632-0.021,46.976-9.472,102.656-32.277l117.333-53.333c2.624-1.195,4.672-3.413,5.632-6.144
			C512.363,417.178,512.192,414.191,510.891,411.589z"/>
	</g>
</g>
<g>
	<g>
		<path d="M311.637,341.936l-192-42.667c-5.653-1.216-11.456,2.347-12.736,8.107c-1.259,5.76,2.347,11.456,8.107,12.736
			l191.723,42.603c23.637,5.909,33.131,15.211,34.432,34.688l-20.48,5.12c-7.573,1.92-15.659,2.112-23.381,0.555l-92.544-18.517
			c-5.888-1.237-11.392,2.581-12.544,8.363c-1.152,5.781,2.581,11.392,8.363,12.544l92.565,18.517
			c4.8,0.96,9.728,1.429,14.635,1.429c6.101,0,12.224-0.747,18.091-2.219l28.715-7.168c4.757-1.195,8.085-5.461,8.085-10.347v-3.371
			C362.667,369.37,347.029,350.768,311.637,341.936z"/>
	</g>
</g>
<g>
	<g>
		<path d="M403.136,175.237c-2.027-2.645-5.163-4.203-8.491-4.203H223.979c-3.349,0-6.507,1.579-8.512,4.245
			c-2.176,2.88-53.397,71.296-76.096,130.24c-2.112,5.483,0.619,11.648,6.123,13.781c5.44,2.091,11.648-0.619,13.781-6.123
			c18.496-48.064,58.624-105.003,70.101-120.832h159.957c25.003,33.664,80,116.8,80,160c0,10.347-1.109,20.587-3.285,30.379
			c-1.259,5.76,2.347,11.456,8.107,12.736c0.768,0.171,1.557,0.256,2.325,0.256c4.885,0,9.28-3.392,10.389-8.363
			c2.517-11.307,3.797-23.083,3.797-35.008C490.667,290.842,406.72,179.909,403.136,175.237z"/>
	</g>
</g>
<g>
	<g>
		<path d="M394.667,128.346H224c-5.888,0-10.667,4.779-10.667,10.667s4.779,10.667,10.667,10.667h170.667
			c5.888,0,10.667-4.779,10.667-10.667S400.555,128.346,394.667,128.346z"/>
	</g>
</g>
<g>
	<g>
		<path d="M444.885,3.461c-3.264-3.264-8.192-4.032-12.309-2.005l-78.464,39.232L316.885,3.461c-4.16-4.16-10.923-4.16-15.083,0
			l-37.227,37.227L186.112,1.455c-4.096-2.048-9.067-1.259-12.309,2.005c-3.264,3.264-4.053,8.213-2.005,12.331l42.667,85.333
			c1.813,3.605,5.504,5.888,9.536,5.888h170.667c4.032,0,7.723-2.283,9.557-5.909l42.667-85.333
			C448.939,11.674,448.128,6.703,444.885,3.461z M388.075,85.679H230.592l-25.408-50.816l56.725,28.352
			c4.096,2.027,9.045,1.259,12.309-2.005l35.115-35.115l35.136,35.115c3.264,3.285,8.235,4.053,12.309,2.005l56.704-28.352
			L388.075,85.679z"/>
	</g>
</g>
<g>
	<g>
		<path d="M311.552,299.247l-2.347-0.448c-21.717-4.011-31.851-10.709-31.851-21.12c0-11.563,14.656-21.333,32.021-21.333
			c16.704,0,31.061,9.067,32,20.181c0.491,5.867,5.867,10.453,11.52,9.728c5.867-0.491,10.219-5.653,9.728-11.52
			c-1.92-22.656-24.811-39.723-53.269-39.723c-29.419,0-53.355,19.136-53.355,42.667c0,21.909,16.576,36.075,51.2,42.453
			l2.325,0.427c21.696,4.011,31.808,10.709,31.808,21.12c0,5.995-3.84,10.453-7.061,13.163c-4.523,3.776-5.12,10.517-1.344,15.019
			c2.112,2.517,5.141,3.819,8.192,3.819c2.411,0,4.843-0.811,6.869-2.475c9.472-7.936,14.699-18.411,14.699-29.504
			C362.688,319.77,346.112,305.626,311.552,299.247z"/>
	</g>
</g>
<g>
	<g>
		<path d="M309.333,213.679c-5.888,0-10.667,4.779-10.667,10.667V341.68c0,5.888,4.779,10.667,10.667,10.667S320,347.568,320,341.68
			V224.346C320,218.458,315.221,213.679,309.333,213.679z"/>
	</g>
</g>
<g>
</g>
<g>
</g>
<g>
</g>
<g>
</g>
<g>
</g>
<g>
</g>
<g>
</g>
<g>
</g>
<g>
</g>
<g>
</g>
<g>
</g>
<g>
</g>
<g>
</g>
<g>
</g>
<g>
</g>
</svg>
