<svg width="57" height="55" viewBox="0 0 57 55" fill="none" xmlns="http://www.w3.org/2000/svg">
<g clip-path="url(#clip0)">
<path d="M39.6319 27.275C42.3009 23.6033 43.7116 19.293 43.7116 14.8103V4.81558C43.7116 4.32198 43.3558 3.89425 42.8559 3.7868L28.7328 0.753159C28.576 0.719813 28.4137 0.719813 28.2569 0.753159L14.1342 3.7868C13.6339 3.89425 13.2784 4.32198 13.2784 4.81558V14.8103C13.2784 19.293 14.6892 23.6033 17.3582 27.2746C20.0272 30.9463 23.749 33.6968 28.1214 35.229C28.2419 35.271 28.3688 35.2924 28.4948 35.2924C28.6213 35.2924 28.7482 35.271 28.8687 35.229C33.2411 33.6972 36.9629 30.9463 39.6319 27.275ZM28.4948 33.113C24.7086 31.7063 21.4833 29.2758 19.1501 26.0655C16.74 22.7503 15.4659 18.8583 15.4659 14.8103V5.66034L28.4948 2.86177L41.5241 5.66034V14.8103C41.5241 18.8579 40.2501 22.7499 37.84 26.0655C35.5064 29.2758 32.2811 31.7063 28.4948 33.113Z" fill="white"/>
<path d="M39.6635 7.94234C39.6635 7.44833 39.308 7.02101 38.8077 6.91356L28.7332 4.74937C28.5764 4.71603 28.4137 4.71603 28.2569 4.74937L18.182 6.91356C17.5924 7.04035 17.2211 7.60353 17.3527 8.17164C17.4838 8.73975 18.0687 9.0975 18.6579 8.9707L28.4948 6.85798L37.476 8.7871V14.8103C37.476 18.0535 36.4553 21.1716 34.5246 23.8281C32.9732 25.9622 30.896 27.6913 28.4948 28.8534C26.0937 27.6917 24.0169 25.9622 22.4655 23.8281C20.7954 21.5305 19.7923 18.8448 19.565 16.0618C19.5457 15.8296 19.5321 15.595 19.5239 15.3636C19.503 14.7815 18.9933 14.3266 18.393 14.3464C17.7893 14.3665 17.3168 14.8544 17.3377 15.4361C17.3471 15.6983 17.3625 15.9647 17.3839 16.2273C17.6419 19.3853 18.7797 22.4317 20.6737 25.0372C22.5446 27.6106 25.0901 29.6657 28.0356 30.9797C28.1812 31.0448 28.3385 31.0773 28.4953 31.0773C28.6521 31.0773 28.8089 31.0448 28.9546 30.9797C31.9004 29.6653 34.446 27.6106 36.3165 25.0372C38.5061 22.025 39.6639 18.4883 39.6639 14.8103V7.94234H39.6635Z" fill="white"/>
<path d="M25.3789 20.2811C25.5704 20.4993 25.8451 20.6331 26.1412 20.652C26.1655 20.6537 26.1899 20.6545 26.2142 20.6545C26.4842 20.6545 26.7461 20.5582 26.9478 20.3824L34.8775 13.4695C35.3252 13.0792 35.3599 12.4127 34.9548 11.9809C34.5494 11.5494 33.8577 11.5161 33.4099 11.9064L26.3189 18.0877L24.295 15.7811C23.9054 15.3369 23.2149 15.2809 22.7539 15.6567C22.2925 16.0326 22.2348 16.6975 22.6245 17.1421L25.3789 20.2811Z" fill="white"/>
<path d="M19.2847 35.6069C18.7083 34.8766 17.8705 34.4122 16.9259 34.2986C15.9812 34.1854 15.0507 34.4369 14.3056 35.0079C13.9569 35.2751 13.6754 35.5953 13.463 35.9482L13.1417 35.5447C12.8563 35.187 12.6995 34.7415 12.6995 34.2903V24.7827C12.6995 22.8404 11.0593 21.2599 9.04359 21.2599C7.14747 21.2599 5.58289 22.6317 5.40387 24.45L4.23322 36.3462C4.13025 37.3882 4.43531 38.4219 5.0954 39.2617L14.3923 50.9262V53.6334C14.3923 54.2155 14.8819 54.6872 15.486 54.6872C16.0897 54.6872 16.5798 54.2155 16.5798 53.6334V50.568C16.5798 50.3358 16.4999 50.1102 16.3534 49.9262L6.83472 37.9835C6.51044 37.571 6.36005 37.0601 6.4109 36.5451L7.58198 24.6493C7.65376 23.9186 8.28224 23.3677 9.04359 23.3677C9.85365 23.3677 10.512 24.0025 10.512 24.7827V34.2903C10.512 35.2034 10.8299 36.1046 11.4071 36.8283L13.6967 39.7014C13.7002 39.7059 13.7036 39.7105 13.707 39.715L15.5544 42.0331C15.9227 42.4946 16.6093 42.5815 17.0882 42.227C17.5672 41.8726 17.6573 41.211 17.2895 40.7491L15.4361 38.4236C15.0067 37.876 15.1092 37.0856 15.6681 36.6575C15.9488 36.4422 16.2995 36.3475 16.6554 36.3899C17.0113 36.4327 17.3271 36.6081 17.5441 36.8831L21.9597 42.4745C22.8287 43.5749 23.3072 44.9425 23.3072 46.3253V53.6334C23.3072 54.2155 23.7968 54.6872 24.401 54.6872C25.0051 54.6872 25.4947 54.2155 25.4947 53.6334V46.3253C25.4947 44.4843 24.8577 42.6634 23.7007 41.1983L19.2847 35.6069Z" fill="white"/>
<path d="M52.4502 36.3462L51.2791 24.45C51.1001 22.6317 49.5351 21.2599 47.6394 21.2599C45.6236 21.2599 43.9834 22.8404 43.9834 24.7827V34.2903C43.9834 34.7415 43.8262 35.187 43.5412 35.5447L43.2195 35.9482C43.0076 35.5958 42.726 35.2755 42.3774 35.0079C41.6323 34.4369 40.7017 34.1854 39.7571 34.2986C38.8125 34.4122 37.9746 34.8766 37.3983 35.6069L32.9827 41.1983C31.8257 42.6634 31.1882 44.4843 31.1882 46.3257V53.6334C31.1882 54.2155 31.6783 54.6872 32.282 54.6872C32.8861 54.6872 33.3757 54.2155 33.3757 53.6334V46.3253C33.3757 44.9425 33.8543 43.5749 34.7233 42.4745L39.1389 36.8831C39.3563 36.6081 39.6721 36.4331 40.028 36.3899C40.3839 36.3475 40.7346 36.4422 41.0153 36.6575C41.5737 37.0856 41.6767 37.876 41.2469 38.4236L39.3939 40.7491C39.0261 41.211 39.1162 41.8726 39.5952 42.227C40.0741 42.5815 40.7607 42.4946 41.129 42.0331L42.976 39.715C42.9794 39.7109 42.9824 39.7068 42.9858 39.7026L45.2763 36.8287C45.8531 36.1046 46.1709 35.2034 46.1709 34.2903V24.7827C46.1709 24.0025 46.8297 23.3677 47.6394 23.3677C48.4007 23.3677 49.0292 23.9186 49.1014 24.6493L50.2725 36.5451C50.3229 37.0605 50.1725 37.571 49.8525 37.9781L40.3296 49.9262C40.1831 50.1102 40.1036 50.3362 40.1036 50.5684V53.6334C40.1036 54.2155 40.5932 54.6872 41.1973 54.6872C41.8015 54.6872 42.2911 54.2155 42.2911 53.6334V50.9262L51.5918 39.2564C52.2477 38.4219 52.5527 37.3882 52.4502 36.3462Z" fill="white"/>
<path d="M17.8128 12.5419C18.1978 12.7893 18.719 12.7737 19.0856 12.5016C19.4304 12.2455 19.5923 11.7984 19.4761 11.3925C19.3518 10.9574 18.9476 10.6379 18.4781 10.6132C18.0132 10.5889 17.5744 10.8623 17.404 11.2785C17.2168 11.7358 17.3899 12.2677 17.8128 12.5419Z" fill="white"/>
</g>
<defs>
<clipPath id="clip0">
<rect width="56" height="53.9592" fill="white" transform="translate(0.276123 0.728027)"/>
</clipPath>
</defs>
</svg>
