<svg width="31" height="31" viewBox="0 0 31 31" fill="none" xmlns="http://www.w3.org/2000/svg">
<g clip-path="url(#clip0)">
<path d="M27.4269 11.5558L25.1455 9.19781L25.6051 5.94998C25.6754 5.45323 25.3391 4.99021 24.8448 4.90365L21.6136 4.33722L20.0755 1.43844C19.8404 0.995382 19.2959 0.818557 18.8455 1.03891L15.8988 2.4793L12.9513 1.03891C12.5005 0.818557 11.9565 0.995506 11.7213 1.43869L10.1838 4.33722L6.9522 4.90365C6.45805 4.99021 6.12164 5.45323 6.19195 5.94998L6.65137 9.19781L4.36999 11.5558C4.02118 11.9164 4.02118 12.4886 4.37012 12.8492L6.65137 15.2069L6.19195 18.4565C6.12176 18.9531 6.45805 19.4161 6.9522 19.5027L9.53849 19.956V30.0141C9.53849 30.3364 9.7054 30.6358 9.97956 30.8052C10.1289 30.8975 10.2985 30.9442 10.4685 30.9442C10.6106 30.9442 10.7531 30.9117 10.8844 30.8459L15.8989 28.3396L20.9126 30.8459C21.2008 30.99 21.5433 30.9747 21.8175 30.8052C22.0916 30.6356 22.2585 30.3363 22.2585 30.014V19.9562L24.845 19.5026C25.3391 19.4159 25.6754 18.953 25.6052 18.4562L25.1457 15.2067L27.4269 12.849C27.7756 12.4887 27.7756 11.9164 27.4269 11.5558ZM16.3147 26.468C16.053 26.3371 15.7449 26.337 15.483 26.468L11.3985 28.5095V22.3584L11.7214 22.9672C11.9565 23.4105 12.5011 23.5872 12.9515 23.3667L15.8989 21.9253L18.8454 23.3667C18.9768 23.4309 19.1162 23.4614 19.2535 23.4614C19.5871 23.4614 19.909 23.2811 20.0756 22.9673L20.3985 22.3591V28.5095L16.3147 26.468ZM23.4926 14.2402C23.2931 14.4464 23.2 14.7331 23.2401 15.0172L23.6373 17.8259L20.8447 18.3156C20.5622 18.3651 20.3183 18.5423 20.1838 18.7956L18.8543 21.3005L16.3075 20.0546C16.1785 19.9916 16.0386 19.96 15.8988 19.96C15.7589 19.96 15.619 19.9915 15.4902 20.0546L12.9427 21.3005L11.6138 18.7958C11.4794 18.5423 11.2354 18.3651 10.9529 18.3156L8.1596 17.8259L8.55665 15.0171C8.59683 14.7331 8.5037 14.4463 8.30418 14.2402L6.33244 12.2024L8.30431 10.1643C8.5037 9.95807 8.59683 9.67138 8.55665 9.38741L8.1596 6.5804L10.9529 6.09072C11.2354 6.04124 11.4794 5.86392 11.6139 5.61046L12.9428 3.10502L15.4904 4.34999C15.7481 4.47597 16.0496 4.47597 16.3072 4.34999L18.8541 3.10502L20.1838 5.61058C20.3182 5.86392 20.5621 6.04112 20.8447 6.09072L23.6373 6.58027L23.2401 9.38729C23.2 9.67138 23.2931 9.95807 23.4925 10.1643L25.4643 12.2024L23.4926 14.2402Z" fill="#188CB1"/>
<path d="M15.8987 5.84283C12.3916 5.84283 9.53833 8.69561 9.53833 12.2022C9.53833 15.7096 12.3916 18.563 15.8987 18.563C19.4054 18.563 22.2582 15.7096 22.2582 12.2022C22.2582 8.69561 19.4054 5.84283 15.8987 5.84283ZM15.8987 16.703C13.4172 16.703 11.3983 14.684 11.3983 12.2022C11.3983 9.72122 13.4172 7.70285 15.8987 7.70285C18.3797 7.70285 20.3982 9.72122 20.3982 12.2022C20.3982 14.684 18.3797 16.703 15.8987 16.703Z" fill="#188CB1"/>
<path d="M17.7947 9.84283L15.0475 12.5895L14.002 11.5452C13.6387 11.1822 13.0498 11.1825 12.6868 11.546C12.3238 11.9094 12.3242 12.4982 12.6876 12.8611L14.3905 14.5622C14.5721 14.7436 14.8099 14.8343 15.0477 14.8343C15.2857 14.8343 15.5238 14.7435 15.7053 14.562L19.1098 11.1582C19.4731 10.7952 19.4731 10.2063 19.1099 9.84296C18.7468 9.47976 18.1579 9.47963 17.7947 9.84283Z" fill="#188CB1"/>
</g>
<defs>
<clipPath id="clip0">
<rect width="30" height="30" fill="white" transform="translate(0.898438 0.943848)"/>
</clipPath>
</defs>
</svg>
