<svg id="Layer_6" enable-background="new 0 0 64 64" height="512" viewBox="0 0 64 64" width="512" xmlns="http://www.w3.org/2000/svg"><path d="m23.854 8.199c-.268.571-.479 1.173-.622 1.801h1.768c0-.796-.471-1.48-1.146-1.801z"/><path d="m27 10h2v-6.475c-1.64.582-3.059 1.623-4.107 2.973 1.248.678 2.107 1.985 2.107 3.502z"/><path d="m33 3.059c-.329-.037-.662-.059-1-.059s-.671.022-1 .059v6.941h2z"/><path d="m42 35h2v-6.475c-1.64.582-3.059 1.623-4.107 2.973 1.248.678 2.107 1.985 2.107 3.502z"/><path d="m39.107 6.498c-1.048-1.35-2.467-2.391-4.107-2.973v6.475h2c0-1.517.859-2.824 2.107-3.502z"/><path d="m40.768 10c-.143-.628-.354-1.23-.622-1.801-.675.321-1.146 1.005-1.146 1.801z"/><path d="m12 35h2v-6.475c-1.64.582-3.059 1.623-4.107 2.973 1.248.678 2.107 1.985 2.107 3.502z"/><path d="m18 28.059c-.329-.037-.662-.059-1-.059s-.671.022-1 .059v6.941h2z"/><path d="m8.854 33.199c-.268.571-.479 1.173-.622 1.801h1.768c0-.796-.471-1.48-1.146-1.801z"/><path d="m32 21c4.963 0 9-4.038 9-9h-18c0 4.962 4.037 9 9 9z"/><path d="m25.436 28c-.271-.615-.436-1.286-.436-2v-2.937c-.695.089-1.364.276-2 .54v4.189c.103.067.204.137.305.208z"/><path d="m21 24.818c-.525.434-.998.937-1.408 1.504.482.117.952.264 1.408.443z"/><path d="m48 28.059c-.329-.037-.662-.059-1-.059s-.671.022-1 .059v6.941h2z"/><path d="m33 35v-6h1c1.654 0 3-1.346 3-3v-.344c-1.057.727-2.641 1.344-5 1.344s-3.943-.617-5-1.344v.344c0 1.654 1.346 3 3 3h1v6z"/><path d="m43 24.818v1.946c.455-.179.925-.325 1.408-.443-.41-.567-.883-1.069-1.408-1.503z"/><path d="m54.107 31.498c-1.047-1.35-2.467-2.391-4.107-2.973v6.475h2c0-1.517.859-2.824 2.107-3.502z"/><path d="m55.768 35c-.143-.628-.354-1.23-.622-1.801-.675.321-1.146 1.005-1.146 1.801z"/><path d="m38.854 33.199c-.268.571-.479 1.173-.622 1.801h1.768c0-.796-.471-1.48-1.146-1.801z"/><path d="m38.521 30h-1.521v-.024c-.584.442-1.257.772-2 .923v4.101h1.191c.346-1.875 1.161-3.587 2.33-5z"/><path d="m37 22.796v-.796-.214c-1.502.77-3.199 1.214-5 1.214s-3.498-.444-5-1.214v.214.794c.246.489 1.369 2.206 5 2.206 3.63 0 4.764-1.742 5-2.204z"/><path d="m25.146 33.199c-.675.321-1.146 1.005-1.146 1.801h1.768c-.143-.628-.354-1.23-.622-1.801z"/><path d="m29 35v-4.101c-.743-.151-1.416-.481-2-.923v.024h-1.521c1.169 1.413 1.984 3.125 2.33 5z"/><path d="m20 28.525v6.475h2c0-1.517.859-2.824 2.107-3.502-1.048-1.35-2.467-2.391-4.107-2.973z"/><path d="m41 27.792v-4.189c-.636-.264-1.305-.451-2-.54v2.937c0 .714-.165 1.385-.436 2h2.131c.101-.071.202-.14.305-.208z"/><path d="m38 48.593v4.407h2.436c-.271-.615-.436-1.286-.436-2v-2.938c-.699.089-1.369.273-2 .531z"/><path d="m17 46c4.963 0 9-4.038 9-9h-18c0 4.962 4.037 9 9 9z"/><path d="m52 51v-.344c-1.057.727-2.641 1.344-5 1.344s-3.943-.617-5-1.344v.344c0 1.654 1.346 3 3 3h1v7h2v-7h1c1.654 0 3-1.346 3-3z"/><path d="m38 59h6v2h-6z"/><path d="m33 56.064v4.936h3v-11.223c-1.827 1.48-3 3.747-3 6.287z"/><path d="m42 55h-4v2h6v-1.101c-.743-.151-1.416-.481-2-.923z"/><path d="m50 59h6v2h-6z"/><path d="m47 46c4.963 0 9-4.038 9-9h-18c0 4.962 4.037 9 9 9z"/><path d="m58 49.777v11.223h3v-4.936c0-2.54-1.173-4.807-3-6.287z"/><path d="m54 51c0 .714-.165 1.385-.436 2h2.436v-4.407c-.631-.259-1.301-.442-2-.531z"/><path d="m52 54.976c-.584.442-1.257.772-2 .923v1.101h6v-2h-4z"/><path d="m52 47.796v-.796-.214c-1.502.77-3.199 1.214-5 1.214s-3.498-.444-5-1.214v.214.794c.246.489 1.369 2.206 5 2.206 3.63 0 4.764-1.742 5-2.204z"/><path d="m3 56.064v4.936h3v-11.223c-1.827 1.48-3 3.747-3 6.287z"/><path d="m8 59h6v2h-6z"/><path d="m12 46.786v.214.794c.246.489 1.369 2.206 5 2.206 3.63 0 4.764-1.742 5-2.204v-.796-.214c-1.502.77-3.199 1.214-5 1.214s-3.498-.444-5-1.214z"/><path d="m10 51v-2.938c-.699.088-1.369.272-2 .531v4.407h2.436c-.271-.615-.436-1.286-.436-2z"/><path d="m12 55h-4v2h6v-1.101c-.743-.151-1.416-.481-2-.923z"/><path d="m28 49.713v11.287h3v-4.936c0-.022.003-.042.003-.064h-.003c0-2.578-1.162-4.834-3-6.287z"/><path d="m24 51c0 .714-.165 1.385-.436 2h2.436v-4.433c-.63-.248-1.298-.424-2-.508z"/><path d="m22 54.976c-.584.442-1.257.772-2 .923v1.101h6v-2h-4z"/><path d="m22 51v-.344c-1.057.727-2.641 1.344-5 1.344s-3.943-.617-5-1.344v.344c0 1.654 1.346 3 3 3h1v7h2v-7h1c1.654 0 3-1.346 3-3z"/><path d="m20 59h6v2h-6z"/></svg>