<svg width="25" height="31" viewBox="0 0 25 31" fill="none" xmlns="http://www.w3.org/2000/svg">
<path d="M23.8211 22.9429C23.1615 21.922 22.2551 21.1108 21.1934 20.5869C21.1038 20.5037 20.9887 
20.448 20.8607 20.4338C20.0927 20.1078 19.2831 19.9424 18.4513 19.9424H16.6935V18.3965C17.7107 
17.5237 18.442 16.3676 18.7966 15.0791H19.0372C20.3296 15.0791 21.381 14.0277 21.381 12.7353C21.381
12.1229 21.1446 11.5649 20.7586 11.1468C20.7955 11.1156 20.8314 11.083 20.866 11.0485C21.1981 
10.7164 21.381 10.275 21.381 9.80563C21.381 9.03436 20.8814 8.37794 20.189 8.14181C19.982 5.44743 
18.091 3.14493 15.4874 2.42329C15.3331 1.61751 14.6681 0.84079 13.7638 0.84079H11.42C10.5157 0.84079 
9.85073 1.61751 9.69645 2.42329C7.09307 3.14487 5.20225 5.44696 4.99489 8.14099C4.74282 8.22647 
4.51167 8.36903 4.31784 8.5628C3.98573 8.89491 3.80286 9.3363 3.80286 9.80563C3.80286 10.3425 4.04508 
10.8237 4.42571 11.1464C4.03946 11.5644 3.80286 12.1227 3.80286 12.7353C3.80286 14.0277 4.85426 15.0791 
6.14661 15.0791H6.38555C6.68157 16.1547 7.24284 17.1422 8.02583 17.9578C8.17295 18.1112 8.32893 18.2574 
8.49036 18.396V19.9424H6.73254C5.90063 19.9424 5.0911 20.1078 4.32317 20.4337C4.1952 20.448 4.08001 
20.5037 3.99053 20.5868C2.92864 21.1108 2.02231 21.922 1.36272 22.9429C0.659126 24.032 0.287231 25.2839 
0.287231 26.5634V30.2549C0.287231 30.5784 0.549556 30.8408 0.873169 30.8408H24.3107C24.6343 30.8408 
24.8966 30.5784 24.8966 30.2549V26.5634C24.8966 25.2839 24.5247 24.032 23.8211 22.9429ZM3.80286 
29.6689H1.45911V26.5634C1.45911 24.7812 2.37211 23.073 3.80286 22.0589V29.6689ZM19.0372 13.9072H19.0105C19.028 
13.7123 19.0372 13.5166 19.0372 13.3213V11.5634C19.6834 11.5634 20.2091 12.0891 20.2091 12.7353C20.2091 
13.3815 19.6834 13.9072 19.0372 13.9072ZM9.66223 3.66143V6.29001C9.66223 6.61362 9.92456 6.87595 10.2482 
6.87595C10.5718 6.87595 10.8341 6.61362 10.8341 6.29001V2.89526C10.8341 2.89374 10.8341 2.89222 10.8341 
2.89069V2.77438C10.8341 2.41134 11.1408 2.01266 11.42 2.01266H13.7638C14.0431 2.01266 14.3497 2.41134 14.3497 
2.77438V2.89069C14.3497 2.89222 14.3497 2.89374 14.3497 2.89526V6.29001C14.3497 6.61362 14.6121 6.87595 14.9357 
6.87595C15.2593 6.87595 15.5216 6.61362 15.5216 6.29001V3.66143C17.4136 4.33099 18.7794 6.04309 19.0045 
8.04782H6.17936C6.40442 6.04309 7.77024 4.33099 9.66223 3.66143ZM6.14661 13.9072C5.50043 13.9072 4.97473 
13.3815 4.97473 12.7353C4.97473 12.0891 5.50043 11.5634 6.14661 11.5634V13.3213C6.14661 13.5166 6.15586 
13.7123 6.17332 13.9072H6.14661ZM6.14661 10.3916H5.56067C5.23758 10.3916 4.97473 10.1287 4.97473 9.80563C4.97473 
9.64931 5.03573 9.50218 5.14647 9.39149C5.25727 9.28069 5.40434 9.2197 5.56067 9.2197H19.6232C19.9463 9.2197 
20.2091 9.48255 20.2091 9.80563C20.2091 9.96196 20.1481 10.1091 20.0374 10.2198C19.9266 10.3306 19.7795 10.3916 
19.6232 10.3916H19.0372H18.4513H6.73254H6.14661ZM7.42495 14.3867C7.42377 14.3803 7.42266 14.374 7.42125 
14.3677C7.35323 14.0238 7.31848 13.6718 7.31848 13.3213V11.5634H17.8654V13.3213C17.8654 13.6715 17.8306 
14.0233 17.7626 14.3674C17.7612 14.3738 17.7601 14.3802 17.7589 14.3866C17.497 15.6936 16.7723 16.8636 
15.7171 17.6819C14.8003 18.3941 13.7197 18.7705 12.5919 18.7705C11.4642 18.7705 10.3835 18.3941 9.46588 
17.6813C9.25583 17.5187 9.0559 17.3389 8.87145 17.1466C8.13229 16.3765 7.63237 15.4225 7.42495 14.3867ZM12.006 
29.6689H7.31848V28.3213C7.31848 27.9976 7.05616 27.7353 6.73254 27.7353C6.40893 27.7353 6.14661 27.9976 6.14661 
28.3213V29.6689H4.97473V21.435C5.355 21.2916 5.74676 21.196 6.14661 21.1489V24.8056C6.14661 25.1292 6.40893 
25.3916 6.73254 25.3916C7.05616 25.3916 7.31848 25.1292 7.31848 24.8056V21.1142H8.82522L12.006 
24.4541V29.6689ZM9.66223 20.2939V19.2025C10.5664 19.6886 11.5623 19.9424 12.5919 19.9424C13.6216 
19.9424 14.6176 19.6885 15.5216 19.2026V20.2939L12.5919 23.3701L9.66223 20.2939ZM20.2091 29.6689H19.0372V28.3213C19.0372 27.9976 
18.7749 27.7353 18.4513 27.7353C18.1277 27.7353 17.8654 27.9976 17.8654 28.3213V29.6689H13.1779V24.4541L16.3586 
21.1142H17.8654V24.8056C17.8654 25.1292 18.1277 25.3916 18.4513 25.3916C18.7749 25.3916 19.0372 25.1292 19.0372 
24.8056V21.1489C19.4371 21.196 19.8288 21.2916 20.2091 21.435V29.6689ZM23.7247 29.6689H21.381V22.0588C22.8117 
23.0729 23.7247 24.7811 23.7247 26.5634V29.6689Z"/>
</svg>
