<svg width="31" height="31" viewBox="0 0 31 31" fill="none" xmlns="http://www.w3.org/2000/svg">
<g clip-path="url(#clip0)">
<path d="M8.87978 12.2417L6.77979 14.3417L13.5298 21.0917L28.5298 6.09167L26.4298 3.99167L13.5298 16.8917L8.87978 
12.2417ZM27.0298 15.0917C27.0298 21.6917 21.6298 27.0917 15.0298 27.0917C8.42979 27.0917 3.02979 21.6917 3.02979 
15.0917C3.02979 8.49168 8.42979 3.09167 15.0298 3.09167C16.2298 3.09167 17.2798 3.24167 18.3298 3.54167L20.7298 
1.14167C18.9298 0.541675 16.9798 0.0916748 15.0298 0.0916748C6.77979 0.0916748 0.0297852 6.84167 0.0297852 
15.0917C0.0297852 23.3417 6.77979 30.0917 15.0298 30.0917C23.2798 30.0917 30.0298 23.3417 30.0298 15.0917H27.0298Z" 
/>
</g>
<defs>
<clipPath id="clip0">
<rect width="30" height="30" fill="white" transform="translate(0.0297852 0.0916748)"/>
</clipPath>
</defs>
</svg>
