<svg width="31" height="31" viewBox="0 0 31 31" fill="none" xmlns="http://www.w3.org/2000/svg">
<g clip-path="url(#clip0)">
<path d="M28.044 6.04149C27.9344 5.93192 27.7839 5.86975 27.6297 5.86975C27.475 5.86975 27.3244 5.93192 27.2148 
6.04149C27.1059 6.15041 27.0437 6.30106 27.0437 6.45575C27.0437 6.60985 27.1059 6.76108 27.2148 6.87006C27.3244 
6.97905 27.475 7.04174 27.6297 7.04174C27.7838 7.04174 27.9344 6.97911 28.044 6.87006C28.153 6.76108 28.2151 
6.60991 28.2151 6.45575C28.2151 6.30106 28.153 6.15041 28.044 6.04149Z"/>
<path d="M14.5858 19.8419C14.4763 19.7323 14.3256 19.6702 14.1714 19.6702C14.0168 19.6702 13.8661 19.7323 13.7565 
19.8419C13.6476 19.9508 13.5854 20.1015 13.5854 20.2562C13.5854 20.4103 13.6476 20.5614 13.7565 20.6705C13.8661 
20.7795 14.0167 20.8422 14.1714 20.8422C14.3255 20.8422 14.4762 20.7795 14.5858 20.6705C14.6947 20.5615 14.7569 
20.4103 14.7569 20.2562C14.7569 20.1015 14.6948 19.9508 14.5858 19.8419Z"/>
<path d="M29.4634 7.98761C29.3034 7.70624 28.9455 7.60792 28.6643 7.76788C28.383 7.92784 28.2846 8.28561 28.4446 
8.56692C30.1852 11.6277 29.6598 15.5066 27.1667 17.9996L26.7224 18.444C26.6151 18.1623 26.4488 17.8981 26.2222 
17.6716L20.2013 11.6508C20.5951 11.4571 20.9589 11.1986 21.2783 10.8792L22.433 9.72438C22.6619 9.49557 22.6619 
9.1245 22.433 8.89569C22.2042 8.66688 21.8332 8.66688 21.6043 8.89569L20.4495 10.0505C19.907 10.593 19.1858 10.8917 
18.4186 10.8917H16.1102C15.9548 10.8917 15.8058 10.9535 15.6958 11.0634L13.9286 12.8306C13.4039 13.3554 12.55 13.3554 
12.0252 12.8306C11.5004 12.3058 11.5004 11.4519 12.0252 10.9271L16.0597 6.89266C18.5253 4.42704 22.3745 3.88481 25.4199 
5.57407C25.7029 5.73093 26.0596 5.62891 26.2166 5.34585C26.3736 5.06284 26.2714 4.70612 25.9884 4.54915C24.3086 3.61757 
22.3296 3.24473 20.4154 3.49968C18.6241 3.73821 16.9845 4.48827 15.6404 5.67843C13.9893 4.21469 11.8874 3.41425 9.66201 
3.41425C7.25111 3.41425 4.98459 4.35309 3.2798 6.05782C1.57502 7.76255 0.63623 10.0292 0.63623 12.4401C0.63623 14.851 
1.57508 17.1175 3.2798 18.8223L3.50064 19.0431C3.53908 19.0815 3.58174 19.1129 3.6268 19.1384C3.666 19.6454 3.8784 20.1413 
4.26529 20.5281C4.6959 20.9587 5.26121 21.1738 5.8267 21.1738C5.85605 21.1738 5.88547 21.1729 5.91482 21.1717C5.91365 
21.2014 5.91266 21.231 5.91266 21.2608C5.91266 21.8507 6.14234 22.4052 6.55941 22.8223C6.99002 23.2528 7.55533 
23.468 8.12082 23.468C8.15018 23.468 8.17959 23.467 8.20895 23.4658C8.20777 23.4955 8.20678 23.5251 8.20678 23.555C8.20678 
24.1448 8.43646 24.6993 8.85359 25.1164C9.28414 25.5469 9.84957 25.7621 10.415 25.7621C10.4447 25.7621 10.4744 25.7611 10.5041 
25.76C10.4803 26.3548 10.6946 26.9575 11.1477 27.4106C11.5648 27.8277 12.1194 28.0574 12.7091 28.0574C13.299 28.0574 13.8535 
27.8277 14.2705 27.4106L15.0895 26.5916L16.1957 27.6977C16.6128 28.1148 17.1673 28.3445 17.7571 28.3445C18.3469 28.3445 
18.9014 28.1148 19.3185 27.6977C19.7771 27.2392 19.9913 26.6274 19.9614 26.0256C19.9982 26.0275 20.0351 26.0285 20.072 
26.0285C20.6374 26.0285 21.203 25.8133 21.6335 25.3827C22.0863 24.9299 22.3006 24.3276 22.2771 23.7332C22.3067 23.7343 
22.3364 23.7353 22.3662 23.7353C22.956 23.7353 23.5105 23.5056 23.9276 23.0886C24.3805 22.6357 24.5947 22.0335 24.5712 
21.439C24.6008 21.4401 24.6305 21.4411 24.6603 21.4411C25.2501 21.4411 25.8046 21.2115 26.2217 20.7944C26.4335 20.5826 
26.593 20.3379 26.7006 20.0767C26.7576 20.049 26.8112 20.012 26.8586 19.9646L27.995 18.8283C30.8603 15.9636 31.4639 
11.5056 29.4634 7.98761ZM5.82676 20.0029C5.54996 20.0029 5.28975 19.8951 5.09398 19.6994C4.89828 19.5037 4.79047 19.2435 4.79047 
18.9667C4.79047 18.6899 4.89822 18.4297 5.09398 18.234L6.10379 17.2241C6.29949 17.0284 6.55977 16.9206 6.83656 16.9206C7.1133 
16.9206 7.37357 17.0284 7.56928 17.2241C7.97334 17.6282 7.97334 18.2856 7.56928 18.6896L6.55947 19.6994C6.36377 19.8951 6.10361 
20.0029 5.82676 20.0029ZM7.38828 21.9936C7.19252 21.7979 7.08477 21.5376 7.08477 21.2609C7.08477 20.9841 7.19252 20.7239 7.38828 
20.5282L8.39814 19.5183C8.39814 19.5183 8.39814 19.5183 8.39814 19.5183C8.59385 19.3226 8.85406 19.2148 9.13086 19.2148C9.4076 
19.2148 9.66787 19.3225 9.86357 19.5183C10.2676 19.9223 10.2676 20.5797 9.86357 20.9837L8.85377 21.9936C8.44965 22.3976 7.79211 
22.3976 7.38828 21.9936ZM9.6824 24.2877C9.48664 24.092 9.37889 23.8318 9.37889 23.555C9.37889 23.2782 9.48664 23.018 9.6824 
22.8223L10.6923 21.8124C10.6923 21.8124 10.6923 21.8125 10.6923 21.8124C10.888 21.6167 11.1482 21.5089 11.425 21.5089C11.7018 
21.5089 11.962 21.6166 12.1577 21.8124C12.5618 22.2165 12.5618 22.8739 12.1577 23.2779L11.1478 24.2877C10.7438 24.6918 10.0865 
24.6918 9.6824 24.2877ZM14.4519 25.5721L13.442 26.582C13.2463 26.7777 12.9861 26.8856 12.7093 26.8856C12.4326 26.8856 12.1723 
26.7778 11.9766 26.582C11.5725 26.1779 11.5725 25.5206 11.9766 25.1166L12.9864 24.1067C12.9864 24.1067 12.9864 24.1067 12.9864 
24.1066C13.1821 23.9109 13.4424 23.8031 13.7192 23.8031C13.9959 23.8031 14.2562 23.9109 14.4519 24.1066C14.6476 24.3023 14.7554 
24.5626 14.7554 24.8393C14.7554 25.1163 14.6476 25.3764 14.4519 25.5721ZM25.3934 19.9657C25.1977 20.1615 24.9375 20.2692 24.6607 
20.2692C24.3839 20.2692 24.1237 20.1615 23.928 19.9657L21.4889 17.5266C21.4888 17.5265 21.4888 17.5264 21.4886 17.5263L19.1947 
15.2324C18.9658 15.0036 18.5949 15.0036 18.3659 15.2324C18.1371 15.4612 18.1371 15.8323 18.3659 16.0611L23.0993 20.7943C23.5033 
21.1984 23.5033 21.8558 23.0993 22.2598C22.9036 22.4555 22.6433 22.5633 22.3665 22.5633C22.0897 22.5633 21.8295 22.4555 21.6338 
22.2598L16.9005 17.5265C16.6716 17.2977 16.3007 17.2977 16.0718 17.5265C15.8429 17.7553 15.8429 18.1264 16.0718 18.3552L18.3655 
20.6489C18.3656 20.6491 18.3658 20.6493 18.366 20.6495L20.8051 23.0885C21.2092 23.4926 21.2092 24.15 20.8052 24.5541C20.4011 24.9581 
19.7436 24.9581 19.3397 24.5541L16.9006 22.1149C16.8554 22.0699 16.8048 22.034 16.7508 22.0067L16.0551 21.311C15.8262 21.0823 15.4553
21.0823 15.2264 21.311C14.9976 21.5398 14.9976 21.9109 15.2264 22.1398L18.4902 25.4034C18.8942 25.8075 18.8942 26.4649 18.4902 
26.8689C18.2945 27.0647 18.0342 27.1724 17.7574 27.1724C17.4806 27.1724 17.2204 27.0647 17.0247 26.8689L15.7828 25.627C15.8774 
25.3788 15.9274 25.1129 15.9274 24.8393C15.9274 24.2495 15.6978 23.6949 15.2807 23.2779C14.8636 22.8608 14.309 22.6311 13.7193 
22.6311C13.6895 22.6311 13.6598 22.6321 13.6302 22.6333C13.6537 22.0388 13.4394 21.4366 12.9866 20.9837C12.5694 20.5666 12.0149 
20.3369 11.4252 20.3369C11.3953 20.3369 11.3657 20.3379 11.336 20.3391C11.3596 19.7446 11.1453 19.1424 10.6924 18.6895C10.2753 
18.2724 9.72078 18.0428 9.13103 18.0428C9.10121 18.0428 9.07156 18.0438 9.04191 18.0449C9.06547 17.4504 8.85119 16.8482 8.39832 
16.3953C7.53734 15.5344 6.13631 15.5344 5.27533 16.3953L4.26553 17.4051C4.13814 17.5325 4.03016 17.6719 3.94039 17.8195C2.56396 
16.3575 1.80846 14.4569 1.80846 12.44C1.80846 10.3421 2.62537 8.36981 4.10885 6.88645C5.59221 5.40309 7.56459 4.58612 9.66236 
4.58612C11.5688 4.58612 13.3715 5.26089 14.7978 6.49733L11.1968 10.0983C10.7212 10.5739 10.4593 11.2062 10.4593 11.8788C10.4593 
12.5514 10.7212 13.1836 11.1968 13.6592C11.6877 14.1501 12.3325 14.3955 12.9772 14.3955C13.622 14.3955 14.2668 14.1501 14.7577 
13.6592L16.3534 12.0636H18.419C18.5895 12.0636 18.7582 12.052 18.9249 12.0313L25.3938 18.5001C25.7974 18.9043 25.7974 19.5617 
25.3934 19.9657Z"/>
</g>
<defs>
<clipPath id="clip0">
<rect width="30" height="30" fill="white" transform="translate(0.63623 0.879395)"/>
</clipPath>
</defs>
</svg>
