<svg width="64" height="56" viewBox="0 0 64 56" fill="none" xmlns="http://www.w3.org/2000/svg">
<g clip-path="url(#clip0)">
<path d="M48.8266 10.5741C48.8265 10.5741 48.8262 10.5741 48.8261 10.5741C47.0874 10.5725 45.6783 9.34117 45.6765 7.8218C45.6765 7.31515 45.2064 6.90437 44.6266 6.90437C44.0468 6.90437 43.5767 7.31515 43.5767 7.8218C43.5749 9.34117 42.1658 10.5725 40.4271 10.5741C39.8473 10.5741 39.3772 10.9849 39.3772 11.4915C39.3772 11.9981 39.8473 12.4089 40.4271 12.4089C42.1658 12.4105 43.5749 13.6418 43.5767 15.1612C43.5767 15.6678 44.0468 16.0786 44.6266 16.0786C45.2064 16.0786 45.6765 15.6678 45.6765 15.1612C45.6783 13.6418 47.0874 12.4105 48.8261 12.4089C49.4057 12.409 49.8758 11.9985 49.876 11.492C49.876 11.4918 49.876 11.4916 49.876 11.4915C49.8761 10.985 49.4063 10.5742 48.8266 10.5741ZM44.6266 12.4117C44.327 12.0632 43.9725 11.7534 43.5737 11.4916C43.9725 11.2298 44.327 10.9201 44.6266 10.5716C44.9262 10.9201 45.2807 11.2298 45.6795 11.4916C45.2807 11.7533 44.9262 12.0632 44.6266 12.4117Z" fill="white"/>
<path d="M23.6292 10.5741C21.8904 10.5725 20.4814 9.34117 20.4795 7.8218C20.4795 7.31515 20.0095 6.90437 19.4297 6.90437C18.8499 6.90437 18.3798 7.31515 18.3798 7.8218C18.378 9.34117 16.9689 10.5725 15.2302 10.5741C14.6504 10.5741 14.1803 10.9849 14.1803 11.4915C14.1803 11.9981 14.6504 12.4089 15.2302 12.4089C16.9689 12.4105 18.378 13.6418 18.3798 15.1612C18.3798 15.6678 18.8499 16.0786 19.4297 16.0786C20.0095 16.0786 20.4795 15.6678 20.4795 15.1612C20.4814 13.6418 21.8904 12.4105 23.6292 12.4089C24.2089 12.4089 24.679 11.9981 24.679 11.4915C24.679 10.9849 24.2089 10.5741 23.6292 10.5741ZM19.4297 12.4117C19.1301 12.0632 18.7756 11.7534 18.3768 11.4916C18.7756 11.2298 19.1301 10.9201 19.4297 10.5716C19.7293 10.9201 20.0837 11.2298 20.4826 11.4916C20.0837 11.7533 19.7293 12.0632 19.4297 12.4117Z" fill="white"/>
<path d="M36.2276 4.15268C34.4889 4.15108 33.0799 2.91978 33.078 1.40041C33.0781 0.893878 32.6083 0.483101 32.0287 0.482986C32.0285 0.482986 32.0283 0.482986 32.0281 0.482986C31.4485 0.482872 30.9784 0.893419 30.9783 1.39995C30.9783 1.40007 30.9783 1.4003 30.9783 1.40041C30.9764 2.91978 29.5674 4.15108 27.8287 4.15268C27.2489 4.15268 26.7788 4.56346 26.7788 5.07011C26.7788 5.57675 27.2489 5.98753 27.8287 5.98753C29.5674 5.98914 30.9764 7.22043 30.9783 8.7398C30.9783 9.24645 31.4484 9.65723 32.0281 9.65723C32.6079 9.65723 33.078 9.24645 33.078 8.7398C33.0799 7.22043 34.4889 5.98914 36.2276 5.98753C36.8074 5.98753 37.2775 5.57675 37.2775 5.07011C37.2775 4.56346 36.8074 4.15268 36.2276 4.15268ZM32.0281 5.99028C31.7285 5.64178 31.3741 5.33203 30.9753 5.07022C31.3741 4.80841 31.7285 4.49867 32.0281 4.15016C32.3278 4.49867 32.6822 4.80841 33.081 5.07022C32.6822 5.33192 32.3278 5.64178 32.0281 5.99028Z" fill="white"/>
<path d="M32.0281 14.2438C22.7509 14.2438 15.2302 20.8157 15.2302 28.9225C15.2302 37.0294 22.7509 43.6013 32.0281 43.6013C41.301 43.5921 48.8155 37.0256 48.8261 28.9225C48.8261 20.8157 41.3053 14.2438 32.0281 14.2438ZM32.0281 41.7665C23.9105 41.7665 17.3299 36.0161 17.3299 28.9225C17.3299 21.829 23.9105 16.0786 32.0281 16.0786C40.1457 16.0786 46.7263 21.829 46.7263 28.9225C46.7172 36.0127 40.1419 41.7586 32.0281 41.7665Z" fill="white"/>
<path d="M21.5294 28.0051H23.6292C23.6344 23.9537 27.3918 20.6703 32.0281 20.6657V18.8309C26.2326 18.8367 21.536 22.9407 21.5294 28.0051Z" fill="white"/>
<path d="M63.5243 43.1399L63.5069 26.9313C63.5038 24.4053 61.7065 22.5005 59.3248 22.5005H59.1239C56.8059 22.6088 54.9471 24.2151 54.7973 26.2393L52.2156 37.8486C51.3341 37.7338 50.4358 37.9204 49.7079 38.3695L41.7846 43.2389C40.9341 43.7631 40.4278 44.6157 40.4271 45.5252V54.6104C40.427 55.1169 40.8968 55.5277 41.4765 55.5278C41.4766 55.5278 41.4769 55.5278 41.477 55.5278H51.9757C52.5554 55.5279 53.0255 55.1174 53.0256 54.6108C53.0256 54.6107 53.0256 54.6105 53.0256 54.6104V53.4497L59.938 49.604C62.2712 48.0915 63.6104 45.6774 63.5243 43.1399ZM58.7886 48.0683L51.4118 52.1721C51.1092 52.3407 50.926 52.6325 50.9258 52.9462V53.6929H42.5269V45.5252C42.527 45.2125 42.701 44.9194 42.9934 44.739L50.9156 39.8701C51.5344 39.49 52.3886 39.6202 52.8236 40.1609C52.9857 40.3624 53.0727 40.6027 53.0727 40.8489C53.0778 41.1406 52.9583 41.4234 52.7374 41.6422L46.0496 46.5694L47.4029 47.9723L54.1563 42.9928C55.5087 41.8109 55.5114 39.8956 54.1625 38.7107L56.8692 26.5271C56.8998 25.4107 57.8567 24.4804 59.1238 24.3353H59.3247C60.5099 24.3353 61.405 25.452 61.407 26.9329L61.4244 43.1406C61.5138 45.06 60.5309 46.8974 58.7886 48.0683Z" fill="white"/>
<path d="M22.2706 43.2384L14.3484 38.3696C13.6202 37.9206 12.7222 37.734 11.8407 37.8486L9.2703 26.3015C9.14156 24.2546 7.27436 22.6186 4.93236 22.5005H4.73144C2.3498 22.5005 0.552422 24.4052 0.549404 26.9313L0.531949 43.1409C0.447435 45.6857 1.79534 48.1051 4.13984 49.6166L11.0307 53.4498V54.6105C11.0305 55.117 11.5004 55.5278 12.08 55.5279C12.0802 55.5279 12.0804 55.5279 12.0806 55.5279H22.5793C23.1589 55.528 23.629 55.1175 23.6292 54.611C23.6292 54.6108 23.6292 54.6106 23.6292 54.6105V45.5254C23.6284 44.6154 23.1218 43.7626 22.2706 43.2384ZM21.5294 53.693H13.1304V52.9462C13.1303 52.6325 12.9471 52.3407 12.6445 52.1721L5.28919 48.0808C3.53537 46.911 2.54377 45.068 2.6317 43.1417L2.64915 26.9331C2.65125 25.4521 3.54627 24.3354 4.73144 24.3354H4.93236C6.22239 24.4925 7.18631 25.4513 7.19825 26.5895L9.89367 38.7108C8.54471 39.8957 8.54747 41.811 9.89983 42.9929C9.93842 43.0264 9.97989 43.0572 10.0238 43.0852L17.7615 48.0124L18.998 46.5296L11.3351 41.6504C10.8288 41.1592 10.874 40.4025 11.4359 39.96C11.9106 39.5863 12.618 39.549 13.1407 39.8702L21.0618 44.7387C21.3547 44.9188 21.5291 45.2123 21.5294 45.5252V53.693Z" fill="white"/>
</g>
<defs>
<clipPath id="clip0">
<rect width="63" height="55.0521" fill="white" transform="translate(0.528137 0.47905)"/>
</clipPath>
</defs>
</svg>
