<?xml version="1.0" encoding="utf-8"?><svg xmlns="http://www.w3.org/2000/svg" xmlns:xlink="http://www.w3.org/1999/xlink"><symbol viewBox="0 0 489.604 489.604" id="construction-worker" xmlns="http://www.w3.org/2000/svg"><path d="M262.746 250.826c10.223 2.382 20.56-3.992 22.927-14.345 1.119-4.895.146-9.741-2.172-13.775l9.212-37.695 11.506 2.817a7.977 7.977 0 007.021-1.649 7.926 7.926 0 002.818-6.639l-5.251-76.983a4.29 4.29 0 00-3.262-3.873 4.297 4.297 0 00-4.672 1.938l-40.16 65.879a7.982 7.982 0 00-.571 7.189 8.025 8.025 0 005.488 4.697l11.5 2.808-7.808 31.901-40.158-9.239-45.246-66.268c-5.409-7.929-13.472-8.473-23.134-8.473V279.24h22.958v171.363H137.84V329.902h-16.721v120.702H75.216V279.241h22.945V129.117c-11.074 0-20.128 1.233-24.734 11.32L9.648 280.135c-4.381 9.607-.159 20.943 9.473 25.328 9.553 4.378 20.925.191 25.331-9.456l30.813-67.509v34.695h-.049c-8.865 0-16.045 7.184-16.045 16.048v171.363c0 8.863 7.181 16.048 16.045 16.048 0 12.672 10.271 22.952 22.945 22.952 12.668 0 22.958-10.28 22.958-22.952 3.054 0 5.92-.863 8.367-2.352a15.934 15.934 0 008.354 2.352c0 12.672 10.271 22.952 22.945 22.952 12.668 0 22.958-10.28 22.958-22.952 8.865 0 16.045-7.185 16.045-16.048V279.241c0-8.865-7.18-16.048-16.045-16.048h-.05V205.09l18.097 26.511a19.089 19.089 0 0011.5 7.856l49.456 11.369z"/><path d="M114.225 129.117h30.527v64.535h-30.527zM84.817 76.286c.257 24.469 20.129 44.23 44.669 44.23 24.527 0 44.418-19.761 44.673-44.23 8.653-.231 15.644-7.247 15.644-15.975C189.803 27.056 162.732 0 129.486 0 96.209 0 69.15 27.056 69.15 60.311c0 8.729 6.997 15.744 15.667 15.975zm12.572-46.319v4.545a8.018 8.018 0 008.02 8.023c4.429 0 8.014-3.593 8.014-8.023V19.161c2.58-1.001 5.251-1.792 8.031-2.307v17.658a8.02 8.02 0 008.033 8.023c4.417 0 8.018-3.593 8.018-8.023V16.854a44.034 44.034 0 018.014 2.307v15.351a8.02 8.02 0 008.032 8.023c4.429 0 8.032-3.593 8.032-8.023v-4.545c7.489 7.929 12.157 18.561 12.157 30.344H85.201c0-11.783 4.674-22.415 12.188-30.344zm247.902 405.5h-98.973a8.015 8.015 0 00-8.032 8.023v35.872a8.018 8.018 0 008.032 8.022h98.973c4.411 0 8.013-3.589 8.013-8.022V443.49c0-4.438-3.602-8.023-8.013-8.023zm128.38 0h-98.973a8.015 8.015 0 00-8.032 8.023v35.872a8.017 8.017 0 008.032 8.022h98.973c4.411 0 8.014-3.589 8.014-8.022V443.49c0-4.438-3.603-8.023-8.014-8.023zm0-128.389h-98.973a8.022 8.022 0 00-8.032 8.027v35.869a8.015 8.015 0 008.032 8.026h98.973c4.411 0 8.014-3.584 8.014-8.026v-35.869c0-4.434-3.603-8.027-8.014-8.027zm-128.38 0h-98.973a8.022 8.022 0 00-8.032 8.027v35.869a8.015 8.015 0 008.032 8.026h98.973c4.411 0 8.013-3.584 8.013-8.026v-35.869c0-4.434-3.602-8.027-8.013-8.027zm-42.818 72.217v35.878a8.018 8.018 0 008.032 8.022h98.973c4.417 0 8.02-3.59 8.02-8.022v-35.878c0-4.433-3.603-8.026-8.02-8.026h-98.973a8.021 8.021 0 00-8.032 8.026zm0-128.382v35.869a8.015 8.015 0 008.032 8.026h98.973a8.024 8.024 0 008.02-8.026v-35.869c0-4.432-3.603-8.025-8.02-8.025h-98.973a8.02 8.02 0 00-8.032 8.025zm171.198 120.356h-37.475c-4.43 0-8.014 3.593-8.014 8.026v35.878a8.014 8.014 0 008.014 8.022h37.475c4.411 0 8.014-3.59 8.014-8.022v-35.878c0-4.433-3.603-8.026-8.014-8.026zm0-128.381h-37.475c-4.43 0-8.014 3.593-8.014 8.025v35.869a8.01 8.01 0 008.014 8.026h37.475c4.411 0 8.014-3.583 8.014-8.026v-35.869c0-4.432-3.603-8.025-8.014-8.025z"/></symbol><symbol viewBox="0 0 31 31" id="develop" xmlns="http://www.w3.org/2000/svg"><g clip-path="url(#bclip0)"><path d="M29.632 23.344a.586.586 0 00.586-.586v-1.025c0-1.564-.901-2.92-2.21-3.58a3.135 3.135 0 001.114-2.399v-.73a3.145 3.145 0 00-3.142-3.142 3.146 3.146 0 00-3.141 3.142v.73c0 .835.328 1.595.86 2.158a7.716 7.716 0 00-2.874 1.303l-5.305 3.87c-.11.08-.21.17-.302.268a2.141 2.141 0 00-.302-.267L9.61 19.215a7.716 7.716 0 00-2.874-1.303 3.13 3.13 0 00.861-2.158v-.73a3.146 3.146 0 00-3.142-3.142 3.146 3.146 0 00-3.142 3.142v.73c0 .96.434 1.822 1.115 2.398a4.013 4.013 0 00-2.21 3.581v8.018c0 .324.262.586.586.586h7.303a.586.586 0 00.586-.586v-5.38l3.833 2.312c.677.408 1.491.42 2.18.03a2.17 2.17 0 00.512-.4 2.191 2.191 0 001.576.684c.384 0 .768-.105 1.115-.314l3.834-2.312v5.38c0 .324.263.586.586.586h7.303a.586.586 0 00.586-.586v-2.117a.586.586 0 10-1.172 0v1.532h-6.131v-5.408c0-.03-.003-.06-.007-.089l.636-.384a.586.586 0 00-.605-1.003l-5.635 3.397a.978.978 0 01-.997.014.978.978 0 01-.503-.861c0-.315.152-.614.406-.8l5.306-3.87a6.544 6.544 0 013.881-1.266h.812a2.84 2.84 0 012.837 2.837v1.025c0 .324.262.586.586.586zm-27.147-8.32c0-1.086.884-1.97 1.97-1.97 1.086 0 1.97.884 1.97 1.97v.73c0 1.087-.884 1.97-1.97 1.97a1.972 1.972 0 01-1.97-1.97v-.73zm11.644 10.67a.979.979 0 01-.998-.015l-5.635-3.397a.586.586 0 10-.605 1.003l.636.384a.592.592 0 00-.006.09v5.407H1.39v-7.433a2.84 2.84 0 012.837-2.837h.811c1.405 0 2.747.438 3.882 1.266l5.306 3.87a.993.993 0 01.406.8.978.978 0 01-.503.861zm13.822-9.94c0 1.087-.884 1.97-1.97 1.97a1.972 1.972 0 01-1.97-1.97v-.73c0-1.086.883-1.97 1.97-1.97 1.086 0 1.97.884 1.97 1.97v.73z"/><path d="M30.046 24.71a.59.59 0 00-.828 0 .592.592 0 00-.172.414.59.59 0 00.586.586.59.59 0 00.586-.586.59.59 0 00-.172-.414zM24.42.34h-1.934a.586.586 0 000 1.172h.52l-6.848 6.847-4.481-4.48a.586.586 0 00-.829 0L6.673 8.053a.586.586 0 00.829.828l3.76-3.76 4.481 4.48a.584.584 0 00.83 0l7.26-7.261v.518a.586.586 0 001.173 0V.926A.586.586 0 0024.42.34zM6.023 9.533a.59.59 0 00-.414-.172.59.59 0 00-.586.586.59.59 0 00.586.586.59.59 0 00.585-.586.59.59 0 00-.171-.414z"/></g><defs><clipPath id="bclip0"><path transform="translate(.218 .339)" d="M0 0h30v30H0z"/></clipPath></defs></symbol><symbol viewBox="0 0 26 26" id="email" xmlns="http://www.w3.org/2000/svg"><g clip-path="url(#cclip0)"><path d="M23.27 3.684H2.666A2.2 2.2 0 00.469 5.881v14.648a2.2 2.2 0 002.197 2.198h20.606a2.2 2.2 0 002.197-2.198V5.881a2.2 2.2 0 00-2.197-2.197zm-.303 1.464l-9.952 9.953-10.04-9.953h19.992zM1.933 20.226V6.177l7.054 6.994-7.054 7.055zm1.036 1.036l7.059-7.06 2.473 2.453a.732.732 0 001.034-.002l2.411-2.412 7.021 7.02H2.97zm21.034-1.036l-7.02-7.02 7.02-7.022v14.042z"/></g><defs><clipPath id="cclip0"><path transform="translate(.468 .705)" d="M0 0h25v25H0z"/></clipPath></defs></symbol><symbol viewBox="0 0 62 81" id="growth" xmlns="http://www.w3.org/2000/svg"><path d="M7.264 65.329l4.742 2.887-3.18 5.244a1.54 1.54 0 00-.208.855c.013.309.112.6.278.82l1.906 2.513c.167.22.39.351.625.367a.814.814 0 00.65-.28l5.64-6.043 1.44.877a1.626 1.626 0 00-.033.697c.04.232.128.444.256.61l1.907 2.515c.136.18.31.301.5.347a.74.74 0 00.56-.087l7.71-4.519a3.123 3.123 0 001.043-1.048c.281-.45.48-.981.581-1.55l2.607-14.898 5.516-10.914 4.64-4.08c.752-.66 1.345-1.59 1.712-2.678l.926-2.75 5.457 16.643 1.75-.998-6.154-18.77 1.384-4.107c.1-.296.109-.63.026-.935-.083-.305-.251-.555-.47-.7l-1.907-1.257a.753.753 0 00-.579-.117.9.9 0 00-.521.352l-.105.139-6.925-21.121a1.236 1.236 0 00-.347-.549.8.8 0 00-.519-.21h-.008a.796.796 0 00-.516.2 1.234 1.234 0 00-.352.538L32.53 17.15a1.625 1.625 0 00-.073.723c.03.246.116.474.245.655a.937.937 0 00.478.366.74.74 0 00.553-.047l7.152-3.538 3.628 11.066-4.48 5.91a2.884 2.884 0 01-1.119.911l-.75.33v-6.279a4.14 4.14 0 00-.316-1.602 3.08 3.08 0 00-.868-1.197 2.093 2.093 0 00-1.2-.489 2.003 2.003 0 00-1.228.345l-3.487 2.3a1.115 1.115 0 00-.384.463 1.569 1.569 0 00-.142.66v6.287c0 .064.001.127.003.191l-4.055.892c-.716.158-1.395.53-1.986 1.085l-5.29 4.984c-.314.297-.58.675-.78 1.11a4.63 4.63 0 00-.389 1.425l-.767 7.084-3.337 2.2-2.063-1.255a.748.748 0 00-.735-.035.96.96 0 00-.318.262 1.314 1.314 0 00-.217.404L6.793 63.677a1.62 1.62 0 00-.021.953c.088.31.265.56.492.699zm27.954-49.9l2.924-8.486L40.127 13l-4.91 2.428zm-23.676 59.64l-.695-.917 2.942-4.85 2 1.216-4.247 4.55zm12.47-26.65l-2.929 4.83-.039-.256 1.498-4.939a1.35 1.35 0 01.211-.422c.091-.12.2-.215.32-.278l1.68-.886-.74 1.952zm-2.181 12.142l-2.802 2.218-5.745-3.248-.572-4.52 9.119 5.55zm1.198 5.437l2.744-2.94v2.997l-4.049 3.814L23.03 66zm6.795 2.97c-.034.19-.1.367-.194.517-.094.15-.213.27-.348.35l-7.11 4.168-.648-.855 5.357-5.047c.247-.233.448-.54.587-.896a3.19 3.19 0 00.211-1.15v-5.64c0-.237-.05-.47-.147-.67a1.101 1.101 0 00-.396-.464.754.754 0 00-.523-.113.853.853 0 00-.488.272l-1.388 1.487a1.63 1.63 0 00.022-.954c-.088-.31-.265-.56-.493-.699l-2.5-1.522-.194-1.283 3.533-5.825 7.187 4.214-2.468 14.11zM34.35 36.53c-.505 0-.99-.266-1.347-.737-.358-.471-.559-1.11-.56-1.777V31.5h3.813v2.515c0 .666-.201 1.306-.559 1.777-.357.471-.842.736-1.347.737zm-1.906-8.023l2.96-1.952a.47.47 0 01.29-.082c.1.006.198.046.283.116.085.07.156.166.205.282a.977.977 0 01.074.378v1.738h-3.812v-.48zM19.929 44.058c.019-.168.063-.33.13-.475.067-.145.155-.271.26-.37l5.29-4.984a2.556 2.556 0 011.191-.651l4.297-.945c.432.93 1.08 1.65 1.847 2.054l-.604 1.593 1.705 1.124.92-2.427c.58-.126 1.13-.426 1.606-.877a4.883 4.883 0 001.145-1.725l1.801-.792c.702-.31 1.34-.83 1.863-1.519l5.55-7.32.477.315-2.993 8.884c-.22.653-.576 1.21-1.027 1.606l-4.799 4.22c-.105.092-.194.21-.264.349L33.05 52.55l-6.933-4.064 1.46-3.852a1.61 1.61 0 00.092-.738 1.458 1.458 0 00-.243-.676.937.937 0 00-.49-.375.74.74 0 00-.565.06l-4.007 2.113c-.36.19-.685.475-.96.836a4.06 4.06 0 00-.633 1.265l-1.218 4.017-.365-.24.74-6.839zm-1.781 8.963l1.063.701.413 2.727-3.47-2.113 1.994-1.315zm-7.09 4.189l.431 3.413c.026.208.092.403.19.57.1.165.228.295.375.378l6.672 3.772a.751.751 0 00.866-.078l2.179-1.724-2.195 6.514-10.66-6.49 2.142-6.355z"/><path d="M29.666 47.289l2.043-5.39 1.704 1.125-2.043 5.389-1.704-1.124z"/></symbol><symbol viewBox="0 0 496 496" id="hiring" xmlns="http://www.w3.org/2000/svg"><path d="M176 248c17.648 0 32-14.352 32-32h-16c0 8.824-7.176 16-16 16s-16-7.176-16-16h-16c0 17.648 14.352 32 32 32zm-32-80a8 8 0 11-16 0 8 8 0 0116 0zm80 0a8 8 0 11-16 0 8 8 0 0116 0zm0 0"/><path d="M272 240v63.566l-40-13.336v-22.406a88.134 88.134 0 0028.71-44.304C280.528 221.16 296 204.44 296 184v-64C296 53.832 242.168 0 176 0S56 53.832 56 120v64c0 20.441 15.473 37.16 35.29 39.52A88.134 88.134 0 00120 267.824v22.406l-81.71 27.25A55.913 55.913 0 000 370.594V448h272v48h224V292.687L443.312 240zm176 27.313L468.688 288H448zm-209.23 42.039l-12.196 60.945-38.238-27.32 37.824-37.825zm24.894-102.72c.168-2.198.336-4.394.336-6.632v-38.527c9.29 3.312 16 12.113 16 22.527 0 10.535-6.871 19.414-16.336 22.633zM72 184c0-10.414 6.71-19.215 16-22.527V200c0 2.238.168 4.434.336 6.633C78.87 203.414 72 194.535 72 184zm17.535-39.344c-6.527 1.07-12.472 3.719-17.535 7.551V120c0-57.344 46.656-104 104-104s104 46.656 104 104v32.207c-5.063-3.832-11.008-6.48-17.535-7.55C257.44 125.886 240.328 112 220 112c-9.465 0-18.832 3.129-26.398 8.809L176 134l-17.594-13.191C150.832 115.129 141.465 112 132 112c-20.328 0-37.441 13.887-42.465 32.656zM104 200v-44c0-15.441 12.559-28 28-28 6.023 0 11.984 1.992 16.809 5.602L176 154l27.2-20.398A28.184 28.184 0 01220 128c15.441 0 28 12.559 28 28v44c0 39.703-32.297 72-72 72s-72-32.297-72-72zm72 88c14.406 0 27.984-3.55 40-9.71v14.397l-40 40-40-40V278.29c12.016 6.16 25.594 9.711 40 9.711zm-50.16 17.152l37.824 37.825-38.238 27.32-12.196-60.945zM80 432v-48H64v48H16v-61.406a39.945 39.945 0 0127.352-37.946l54.586-18.191 16.648 83.246L176 353.832l61.426 43.871 16.644-83.246 17.93 5.969V432zm208 48V256h144v48h48v176zm0 0"/><path d="M384 464h80v-80h-80zm16-64h48v48h-48zm-96 48h64v16h-64zm0-32h64v16h-64zm0-32h64v16h-64zm0-112h16v16h-16zm32 0h80v16h-80zm-32 32h112v16H304zm144 32h16v16h-16zm-144 0h128v16H304zm104-112c48.52 0 88-39.48 88-88 0-19.008-6.121-36.586-16.406-50.984l14.3-15.61-11.796-10.812-13.02 14.199C453.238 57.48 431.718 48 408 48c-48.52 0-88 39.48-88 88s39.48 88 88 88zm0-160c19.559 0 37.305 7.863 50.29 20.566l-59.138 64.512-34.16-27.324-10 12.492 45.84 36.676 67.656-73.809C475.742 108.343 480 121.672 480 136c0 39.703-32.297 72-72 72s-72-32.297-72-72 32.297-72 72-72zm0 0"/></symbol><symbol viewBox="0 0 512 512" id="interview" xmlns="http://www.w3.org/2000/svg"><path d="M62.74 494.93a10.071 10.071 0 00-7.07-2.93c-2.64 0-5.21 1.069-7.07 2.93-1.87 1.86-2.93 4.44-2.93 7.07s1.06 5.21 2.93 7.069A10.06 10.06 0 0055.67 512c2.63 0 5.21-1.07 7.07-2.931 1.859-1.859 2.93-4.439 2.93-7.069s-1.07-5.21-2.93-7.07zm310.329-70.67c-1.859-1.861-4.439-2.93-7.069-2.93s-5.21 1.069-7.07 2.93a10.077 10.077 0 00-2.93 7.07c0 2.64 1.069 5.21 2.93 7.069 1.86 1.86 4.44 2.931 7.07 2.931s5.21-1.07 7.069-2.931A10.057 10.057 0 00376 431.33c0-2.63-1.07-5.21-2.931-7.07z"/><path d="M479.747 161.62C487.314 154.02 492 143.547 492 132v-8c0-23.159-18.841-42-42-42s-42 18.841-42 42v8c0 11.549 4.687 22.022 12.256 29.623-16.413 9.014-28.333 25.234-31.45 44.377H343c-16.542 0-30 13.458-30 30 0 3.506.61 6.87 1.72 10H197.28a29.857 29.857 0 001.72-10c0-16.542-13.458-30-30-30h-45.806c-3.117-19.143-15.037-35.364-31.45-44.377C99.313 154.022 104 143.549 104 132v-8c0-23.159-18.841-42-42-42s-42 18.841-42 42v8c0 11.547 4.686 22.02 12.253 29.62C13.049 172.167 0 192.586 0 216v112.167C0 359.505 25.495 385 56.833 385H136v95.5c0 4.058.78 7.935 2.183 11.5H98.667c-5.522 0-10 4.478-10 10s4.478 10 10 10h357.666c5.522 0 10-4.478 10-10s-4.478-10-10-10h-82.516A31.332 31.332 0 00376 480.5V469c0-5.522-4.478-10-10-10s-10 4.478-10 10v11.5c0 6.341-5.159 11.5-11.5 11.5s-11.5-5.159-11.5-11.5V354.25c0-15.577 12.673-28.25 28.25-28.25H492v2.167c0 20.31-16.523 36.833-36.833 36.833H366c-5.522 0-10 4.478-10 10v16c0 5.522 4.478 10 10 10s10-4.478 10-10v-6h79.167C486.505 385 512 359.505 512 328.167V216c0-23.414-13.049-43.833-32.253-54.38zM428 124c0-12.131 9.869-22 22-22s22 9.869 22 22v8c0 12.131-9.869 22-22 22s-22-9.869-22-22v-8zm-388 0c0-12.131 9.869-22 22-22s22 9.869 22 22v8c0 12.131-9.869 22-22 22s-22-9.869-22-22v-8zm-20 92c0-23.159 18.841-42 42-42s42 18.841 42 42c0 5.522 4.478 10 10 10h55c5.514 0 10 4.486 10 10s-4.486 10-10 10h-58.235a42.986 42.986 0 01-37.95-22.723c-2.607-4.868-8.669-6.701-13.537-4.092-4.868 2.607-6.7 8.668-4.092 13.537a62.943 62.943 0 0049.373 32.974A9.986 9.986 0 00104 269v37H20v-90zm123.382 90H124v-37a9.98 9.98 0 00-.458-3h19.84A39.742 39.742 0 00138 286a39.732 39.732 0 005.382 20zM179 480.5c0 6.341-5.159 11.5-11.5 11.5s-11.5-5.159-11.5-11.5V375c0-5.522-4.478-10-10-10H56.833C36.523 365 20 348.477 20 328.167V326h130.75c15.577 0 28.25 12.673 28.25 28.25V480.5zm47 11.5h-29.183A31.311 31.311 0 00199 480.5V354.25c0-10.544-3.409-20.302-9.171-28.25H226v166zm40 0h-20V326h20v166zm49.183 0H286V326h36.171c-5.761 7.948-9.171 17.706-9.171 28.25V480.5c0 4.058.78 7.935 2.183 11.5zM334 306H178c-11.028 0-20-8.972-20-20s8.972-20 20-20h156c11.028 0 20 8.972 20 20s-8.972 20-20 20zm54-37v37h-19.382A39.742 39.742 0 00374 286a39.732 39.732 0 00-5.382-20h19.84a9.98 9.98 0 00-.458 3zm104 37h-84v-37c0-1.157-.197-2.27-.559-3.304a62.943 62.943 0 0049.373-32.974c2.608-4.869.776-10.93-4.092-13.537-4.87-2.608-10.929-.774-13.537 4.092A42.986 42.986 0 01401.235 246H343c-5.514 0-10-4.486-10-10s4.486-10 10-10h55c5.522 0 10-4.478 10-10 0-23.159 18.841-42 42-42s42 18.841 42 42v90z"/><path d="M328 0H184c-16.542 0-30 13.458-30 30v98c0 16.542 13.458 30 30 30h34.857l30.071 30.071C250.882 190.023 253.44 191 256 191s5.118-.977 7.071-2.929L293.143 158H328c16.542 0 30-13.458 30-30V30c0-16.542-13.458-30-30-30zm10 128c0 5.514-4.486 10-10 10h-39a10.003 10.003 0 00-7.071 2.929L256 166.857l-25.929-25.929A10.006 10.006 0 00223 138h-39c-5.514 0-10-4.486-10-10V30c0-5.514 4.486-10 10-10h144c5.514 0 10 4.486 10 10v98z"/><path d="M216.069 68.1c-1.859-1.87-4.439-2.93-7.069-2.93s-5.21 1.06-7.07 2.93c-1.86 1.86-2.93 4.44-2.93 7.07s1.069 5.21 2.93 7.07c1.86 1.86 4.44 2.93 7.07 2.93s5.21-1.07 7.069-2.93c1.86-1.86 2.931-4.44 2.931-7.07s-1.07-5.21-2.931-7.07zm47 0c-1.859-1.859-4.439-2.93-7.069-2.93s-5.21 1.07-7.07 2.93c-1.86 1.86-2.93 4.44-2.93 7.07s1.069 5.21 2.93 7.07c1.86 1.86 4.44 2.93 7.07 2.93s5.21-1.07 7.069-2.93c1.86-1.86 2.931-4.44 2.931-7.07s-1.07-5.21-2.931-7.07zm47 0c-1.859-1.87-4.439-2.93-7.069-2.93s-5.21 1.06-7.07 2.93c-1.86 1.86-2.93 4.44-2.93 7.07s1.069 5.21 2.93 7.07c1.86 1.86 4.44 2.93 7.07 2.93s5.21-1.07 7.069-2.93c1.86-1.86 2.931-4.44 2.931-7.07s-1.07-5.21-2.931-7.07z"/></symbol><symbol viewBox="0 0 310 310" id="linkedin" xmlns="http://www.w3.org/2000/svg"><path d="M72.16 99.73H9.927a5 5 0 00-5 5v199.928a5 5 0 005 5H72.16a5 5 0 005-5V104.73a5 5 0 00-5-5zM41.066.341C18.422.341 0 18.743 0 41.362 0 63.991 18.422 82.4 41.066 82.4c22.626 0 41.033-18.41 41.033-41.038C82.1 18.743 63.692.341 41.066.341zm189.388 94.42c-24.995 0-43.472 10.745-54.679 22.954V104.73a5 5 0 00-5-5h-59.599a5 5 0 00-5 5v199.928a5 5 0 005 5h62.097a5 5 0 005-5V205.74c0-33.333 9.054-46.319 32.29-46.319 25.306 0 27.317 20.818 27.317 48.034v97.204a5 5 0 005 5H305a5 5 0 005-5V194.995c0-49.565-9.451-100.234-79.546-100.234z"/></symbol><symbol viewBox="0 0 31 31" id="money-bag" xmlns="http://www.w3.org/2000/svg"><g clip-path="url(#hclip0)"><path d="M24.462 17.83v-7a6.481 6.481 0 00-5.717-6.45l1.667-3.327a.5.5 0 00-.45-.724h-9a.5.5 0 00-.448.724l1.665 3.326a6.506 6.506 0 00-5.717 6.45v9h1v-9a5.507 5.507 0 015.5-5.5h5a5.491 5.491 0 015.5 5.5v7h1zm-6.81-13.5h-4.381l-1.5-3h7.382l-1.5 3z"/><path d="M11.212 7.799c.273-.16.568-.28.874-.36l-.25-.967a4.512 4.512 0 00-1.125.461l.5.866zm-2.75 5.031h1v-2a3.473 3.473 0 011.063-2.51l-.697-.718a4.464 4.464 0 00-1.366 3.227v2zM1.888 24.903l8.488 4.63a6.497 6.497 0 003.116.796h16.47a.5.5 0 00.5-.5v-9a.5.5 0 00-.5-.5h-3.827l-.057-.044a7.915 7.915 0 00-1.928-1.109 8.11 8.11 0 00-7.396.653h-3.792a2.5 2.5 0 00-2.386 3.25l-6.18-3.097a2.675 2.675 0 00-2.833.271A2.75 2.75 0 00.462 22.45v.055a2.725 2.725 0 001.426 2.4zm24.574-3.574h3v8h-3v-8zm-25 1.12c.003-.56.272-1.085.724-1.415a1.673 1.673 0 011.762-.158l7.79 3.9c.07.035.146.053.224.053h7.5v-1h-6.5a1.5 1.5 0 010-3h3.94a.505.505 0 00.275-.082 7.11 7.11 0 016.6-.643 6.943 6.943 0 011.685.968v8.257h-11.97a5.499 5.499 0 01-2.636-.674l-8.491-4.63a1.726 1.726 0 01-.903-1.52v-.056z"/><path d="M27.462 26.83h1v1h-1v-1zm-11.5-9v-1h.5a2 2 0 000-4h-2a1 1 0 110-2h3.5v-1h-2v-1h-1v1h-.5a2 2 0 000 4h2a1 1 0 010 2h-3.5v1h2v1h1z"/></g><defs><clipPath id="hclip0"><path transform="translate(.462 .33)" d="M0 0h30v30H0z"/></clipPath></defs></symbol><symbol viewBox="0 0 26 26" id="placeholder" xmlns="http://www.w3.org/2000/svg"><g clip-path="url(#iclip0)"><path d="M13.257.595c-4.846 0-8.79 3.943-8.79 8.789a8.77 8.77 0 001.313 4.622l6.977 11.243a.732.732 0 00.622.346h.006a.732.732 0 00.622-.356l6.8-11.352a8.778 8.778 0 001.239-4.503c0-4.846-3.943-8.789-8.789-8.789zm6.292 12.54l-6.181 10.32-6.343-10.221a7.315 7.315 0 01-1.102-3.85c0-4.039 3.295-7.334 7.334-7.334s7.33 3.295 7.33 7.334a7.317 7.317 0 01-1.038 3.75z"/><path d="M13.257 4.99a4.4 4.4 0 00-4.395 4.394 4.389 4.389 0 004.395 4.395 4.386 4.386 0 004.394-4.395 4.4 4.4 0 00-4.394-4.395zm0 7.333a2.942 2.942 0 01-2.94-2.939 2.95 2.95 0 012.94-2.94 2.946 2.946 0 012.935 2.94 2.936 2.936 0 01-2.935 2.94z"/></g><defs><clipPath id="iclip0"><path transform="translate(.757 .595)" d="M0 0h25v25H0z"/></clipPath></defs></symbol><symbol viewBox="0 0 30 30" id="planning" xmlns="http://www.w3.org/2000/svg"><path d="M30 0H0v20.323h8.949l-3.626 8.611V30h3.714l3.871-9.677h.157v7.741h3.87v-7.741h.157L20.962 30h3.715v-1.066l-3.626-8.611H30V0zm-.968.968v15.484H.968V.968h28.064zM8.382 29.032h-2.05l3.667-8.71h1.867l-3.484 8.71zm7.586-1.935h-1.936v-6.774h1.936v6.774zm7.7 1.935h-2.05l-3.484-8.71h1.867l3.668 8.71zm-22.7-9.677v-1.936h28.064v1.936H.968z"/><path d="M17.42 10.161a5.329 5.329 0 005.322 5.323 5.329 5.329 0 005.322-5.323 5.329 5.329 0 00-5.322-5.322 5.329 5.329 0 00-5.323 5.322zm.996.484h3.842v3.843a4.36 4.36 0 01-3.842-3.843zm8.68-.484a4.36 4.36 0 01-3.87 4.327V5.835a4.36 4.36 0 013.87 4.326zm-4.838-4.326v3.842h-3.842a4.36 4.36 0 013.842-3.842zM2.903 7.104v4.509h7.742v-4.51l.665.533.605-.756-5.14-4.112L1.632 6.88l.604.756.666-.532zm4.839 3.541H5.806V8.71h1.936v1.935zM9.677 6.33v4.315H8.71V7.742H4.839v2.903H3.87V6.33l2.903-2.323L9.677 6.33zm-7.742 8.186h.968v.968h-.968v-.968zm1.936 0h7.742v.968H3.87v-.968zM1.935 12.58h9.678v.968H1.935v-.967zm11.613-9.677h.968v4.355h.968V2.903h.968V6.29h.967V2.903h.968V4.84h.968V1.935H12.58V6.29h.967V2.903z"/></symbol><symbol viewBox="0 0 57 55" id="protection" xmlns="http://www.w3.org/2000/svg"><g clip-path="url(#kclip0)"><path d="M39.632 27.275c2.669-3.672 4.08-7.982 4.08-12.465V4.816c0-.494-.356-.922-.856-1.03L28.733.754a1.144 1.144 0 00-.476 0L14.134 3.787c-.5.107-.856.535-.856 1.029v9.994c0 4.483 1.411 8.793 4.08 12.465 2.67 3.671 6.391 6.422 10.763 7.954a1.138 1.138 0 00.748 0c4.372-1.532 8.094-4.283 10.763-7.954zm-11.137 5.838c-3.786-1.407-7.012-3.837-9.345-7.047-2.41-3.316-3.684-7.208-3.684-11.256V5.66l13.029-2.798 13.03 2.798v9.15c0 4.048-1.275 7.94-3.685 11.255-2.334 3.21-5.559 5.641-9.345 7.048z"/><path d="M39.663 7.942c0-.494-.355-.921-.855-1.028L28.733 4.749a1.147 1.147 0 00-.476 0L18.182 6.914c-.59.126-.96.69-.83 1.258.132.568.717.925 1.306.799l9.837-2.113 8.981 1.93v6.022c0 3.243-1.02 6.362-2.951 9.018a16.153 16.153 0 01-6.03 5.025 16.149 16.149 0 01-6.03-5.025 15.343 15.343 0 01-2.941-8.464c-.021-.583-.53-1.037-1.131-1.018-.604.02-1.076.508-1.055 1.09a17.404 17.404 0 003.336 9.601 18.34 18.34 0 007.362 5.943 1.128 1.128 0 00.919 0 18.338 18.338 0 007.361-5.943c2.19-3.012 3.348-6.549 3.348-10.227V7.942z"/><path d="M25.379 20.281a1.107 1.107 0 00.835.373c.27 0 .532-.096.734-.272l7.93-6.913c.447-.39.482-1.056.077-1.488a1.123 1.123 0 00-1.545-.075l-7.091 6.182-2.024-2.307c-.39-.444-1.08-.5-1.541-.124a1.028 1.028 0 00-.13 1.485l2.755 3.14zm-6.094 15.326a3.513 3.513 0 00-2.36-1.308 3.58 3.58 0 00-2.62.709c-.348.267-.63.587-.842.94l-.321-.403a2.02 2.02 0 01-.442-1.255v-9.507c0-1.943-1.64-3.523-3.656-3.523-1.897 0-3.461 1.372-3.64 3.19l-1.17 11.896a4.053 4.053 0 00.861 2.916l9.297 11.664v2.707c0 .582.49 1.054 1.094 1.054.604 0 1.094-.471 1.094-1.054v-3.065c0-.232-.08-.458-.227-.642L6.835 37.983a2 2 0 01-.424-1.438L7.582 24.65c.072-.73.7-1.281 1.462-1.281.81 0 1.468.635 1.468 1.415v9.507c0 .913.318 1.815.895 2.538l2.29 2.873.01.014 1.847 2.318a1.122 1.122 0 001.534.194c.48-.354.57-1.016.201-1.478l-1.853-2.325a1.25 1.25 0 01.232-1.767c.28-.215.631-.31.987-.267.356.043.672.218.89.493l4.415 5.591a6.245 6.245 0 011.347 3.851v7.308c0 .582.49 1.054 1.094 1.054.604 0 1.094-.471 1.094-1.054v-7.308a8.314 8.314 0 00-1.794-5.127l-4.416-5.591zm33.165.739L51.28 24.45c-.18-1.818-1.745-3.19-3.64-3.19-2.016 0-3.657 1.58-3.657 3.523v9.507c0 .452-.157.897-.442 1.255l-.322.403a3.382 3.382 0 00-.842-.94 3.58 3.58 0 00-2.62-.71 3.512 3.512 0 00-2.359 1.309l-4.415 5.591a8.315 8.315 0 00-1.795 5.128v7.307c0 .582.49 1.054 1.094 1.054.604 0 1.094-.471 1.094-1.054v-7.308a6.24 6.24 0 011.347-3.85l4.416-5.592c.217-.275.533-.45.889-.493a1.35 1.35 0 01.987.267 1.25 1.25 0 01.232 1.767l-1.853 2.325a1.029 1.029 0 00.201 1.478 1.122 1.122 0 001.534-.194l1.847-2.318.01-.012 2.29-2.874a4.093 4.093 0 00.895-2.539v-9.507c0-.78.659-1.415 1.468-1.415.762 0 1.39.55 1.462 1.281l1.172 11.896a2 2 0 01-.42 1.433L40.33 49.926a1.03 1.03 0 00-.226.642v3.065c0 .582.49 1.054 1.093 1.054.604 0 1.094-.471 1.094-1.054v-2.707l9.3-11.67a4.048 4.048 0 00.86-2.91zM17.813 12.542c.385.247.906.232 1.273-.04.344-.257.506-.704.39-1.11a1.098 1.098 0 00-.998-.779 1.104 1.104 0 00-1.074.665c-.187.458-.014.99.409 1.264z"/></g><defs><clipPath id="kclip0"><path transform="translate(.276 .728)" d="M0 0h56v53.959H0z"/></clipPath></defs></symbol><symbol viewBox="0 0 31 31" id="quality" xmlns="http://www.w3.org/2000/svg"><g clip-path="url(#lclip0)"><path d="M27.427 11.556l-2.282-2.358.46-3.248a.93.93 0 00-.76-1.046l-3.231-.567-1.538-2.899a.93.93 0 00-1.23-.4L15.899 2.48 12.95 1.04a.93.93 0 00-1.23.4l-1.537 2.898-3.232.567a.93.93 0 00-.76 1.046l.46 3.248-2.282 2.358a.93.93 0 000 1.293l2.281 2.358-.459 3.25a.93.93 0 00.76 1.046l2.586.453v10.058a.93.93 0 001.346.832L15.9 28.34l5.014 2.506a.93.93 0 001.346-.832V19.956l2.586-.453a.93.93 0 00.76-1.047l-.46-3.25 2.282-2.357a.93.93 0 000-1.293zM16.315 26.468a.93.93 0 00-.832 0l-4.085 2.041v-6.15l.323.608a.93.93 0 001.23.4l2.948-1.442 2.946 1.442a.928.928 0 001.23-.4l.323-.608v6.15l-4.083-2.041zm7.178-12.228a.93.93 0 00-.253.777l.397 2.809-2.792.49a.93.93 0 00-.661.48l-1.33 2.505-2.546-1.246a.931.931 0 00-.818 0L12.943 21.3l-1.33-2.504a.93.93 0 00-.66-.48l-2.793-.49.397-2.809a.93.93 0 00-.253-.777l-1.972-2.038 1.972-2.038a.93.93 0 00.253-.777L8.16 6.58l2.793-.49a.93.93 0 00.66-.48l1.33-2.505L15.49 4.35a.93.93 0 00.817 0l2.547-1.245 1.33 2.506a.93.93 0 00.66.48l2.793.49-.397 2.806a.93.93 0 00.253.777l1.971 2.038-1.971 2.038z"/><path d="M15.899 5.843a6.367 6.367 0 00-6.36 6.36 6.368 6.368 0 006.36 6.36 6.367 6.367 0 006.36-6.36 6.367 6.367 0 00-6.36-6.36zm0 10.86a4.506 4.506 0 01-4.5-4.5c0-2.482 2.018-4.5 4.5-4.5 2.48 0 4.5 2.018 4.5 4.5 0 2.481-2.02 4.5-4.5 4.5z"/><path d="M17.795 9.843l-2.748 2.746-1.045-1.044a.93.93 0 10-1.314 1.316l1.702 1.701a.927.927 0 001.315 0l3.405-3.404a.93.93 0 10-1.315-1.315z"/></g><defs><clipPath id="lclip0"><path transform="translate(.898 .944)" d="M0 0h30v30H0z"/></clipPath></defs></symbol><symbol viewBox="0 0 31 31" id="respect" xmlns="http://www.w3.org/2000/svg"><g clip-path="url(#mclip0)"><path d="M28.044 6.041a.589.589 0 00-.83 0 .589.589 0 000 .83.591.591 0 00.83 0 .59.59 0 000-.83zM14.586 19.842a.589.589 0 00-.83 0 .59.59 0 000 .829.592.592 0 00.83 0 .59.59 0 000-.83z"/><path d="M29.463 7.988a.586.586 0 00-1.018.579A7.872 7.872 0 0127.167 18l-.445.444a2.193 2.193 0 00-.5-.772l-6.02-6.021a4.048 4.048 0 001.076-.772l1.155-1.155a.586.586 0 10-.829-.828L20.45 10.05a2.853 2.853 0 01-2.031.842H16.11a.586.586 0 00-.414.171l-1.767 1.768a1.347 1.347 0 01-1.904 0 1.347 1.347 0 010-1.904l4.035-4.034c2.465-2.466 6.315-3.008 9.36-1.319a.586.586 0 00.568-1.025 9.09 9.09 0 00-5.573-1.05 8.93 8.93 0 00-4.775 2.18 8.96 8.96 0 00-5.978-2.265c-2.41 0-4.677.94-6.382 2.644A8.967 8.967 0 00.636 12.44c0 2.411.94 4.678 2.644 6.382l.22.221c.04.038.082.07.127.095a2.201 2.201 0 002.288 2.033 2.194 2.194 0 00.645 1.65 2.201 2.201 0 001.649.645 2.194 2.194 0 00.645 1.65 2.201 2.201 0 001.65.644 2.203 2.203 0 002.205 2.297c.59 0 1.145-.23 1.562-.646l.818-.82 1.107 1.107c.417.417.971.646 1.561.646s1.144-.23 1.561-.646c.46-.459.673-1.07.643-1.672l.111.003a2.201 2.201 0 002.205-2.296l.09.002a2.202 2.202 0 002.205-2.296l.088.002a2.206 2.206 0 002.041-1.364.583.583 0 00.158-.112l1.136-1.137a9.046 9.046 0 001.468-10.84zM5.827 20.003a1.03 1.03 0 01-.733-.304 1.03 1.03 0 01-.304-.732c0-.277.108-.537.304-.733l1.01-1.01a1.03 1.03 0 01.733-.303 1.037 1.037 0 01.733 1.769L6.56 19.7a1.03 1.03 0 01-.733.303zm1.561 1.99a1.03 1.03 0 01-.303-.732c0-.277.108-.537.303-.733l1.01-1.01a1.03 1.03 0 01.733-.303 1.037 1.037 0 01.733 1.769l-1.01 1.01a1.037 1.037 0 01-1.466 0zm2.294 2.295a1.03 1.03 0 01-.303-.733c0-.277.108-.537.303-.733l1.01-1.01a1.03 1.03 0 01.733-.303 1.037 1.037 0 01.733 1.769l-1.01 1.01a1.037 1.037 0 01-1.466 0zm4.77 1.284l-1.01 1.01a1.03 1.03 0 01-.733.304 1.037 1.037 0 01-.733-1.769l1.01-1.01a1.03 1.03 0 01.733-.304c.277 0 .537.108.733.304.196.195.303.456.303.732 0 .277-.107.537-.303.733zm10.941-5.606a1.029 1.029 0 01-.732.303c-.277 0-.537-.107-.733-.303l-2.44-2.44-2.293-2.294a.586.586 0 00-.83.83l4.734 4.732a1.038 1.038 0 01-1.465 1.466L16.9 17.526a.586.586 0 00-.83.83l2.294 2.293h.001l2.44 2.44a1.038 1.038 0 01-1.465 1.466l-2.44-2.44a.587.587 0 00-.15-.108l-.696-.696a.586.586 0 00-.829.829l3.264 3.263a1.038 1.038 0 01-1.465 1.466l-1.242-1.242a2.208 2.208 0 00-.502-2.35 2.194 2.194 0 00-1.65-.644 2.203 2.203 0 00-2.295-2.294 2.202 2.202 0 00-2.294-2.294 2.202 2.202 0 00-.644-1.65 2.211 2.211 0 00-3.123 0l-1.01 1.01a2.206 2.206 0 00-.325.415 7.8 7.8 0 01-2.132-5.38c0-2.098.817-4.07 2.3-5.554a7.803 7.803 0 015.554-2.3c1.907 0 3.71.675 5.136 1.911l-3.601 3.601a2.501 2.501 0 00-.738 1.78 2.5 2.5 0 00.738 1.781 2.51 2.51 0 001.78.736 2.51 2.51 0 001.78-.736l1.596-1.595h2.066c.17 0 .34-.012.506-.033l6.469 6.47a1.038 1.038 0 010 1.465z"/></g><defs><clipPath id="mclip0"><path transform="translate(.636 .88)" d="M0 0h30v30H0z"/></clipPath></defs></symbol><symbol viewBox="0 0 512 512" id="resume" xmlns="http://www.w3.org/2000/svg"><path d="M414.007 148.75c5.522 0 10-4.477 10-10V30c0-16.542-13.458-30-30-30h-364c-16.542 0-30 13.458-30 30v452c0 16.542 13.458 30 30 30h364c16.542 0 30-13.458 30-30v-73.672c0-5.523-4.478-10-10-10s-10 4.477-10 10V482c0 5.514-4.486 10-10 10h-364c-5.514 0-10-4.486-10-10V30c0-5.514 4.486-10 10-10h364c5.514 0 10 4.486 10 10v108.75c0 5.523 4.478 10 10 10z"/><path d="M212.007 54c-50.729 0-92 41.271-92 92 0 26.317 11.11 50.085 28.882 66.869.333.356.687.693 1.074 1 16.371 14.979 38.158 24.13 62.043 24.13 23.885 0 45.672-9.152 62.043-24.13a9.993 9.993 0 001.074-1c17.774-16.784 28.884-40.552 28.884-66.869 0-50.729-41.271-92-92-92zm0 164c-16.329 0-31.399-5.472-43.491-14.668 8.789-15.585 25.19-25.332 43.491-25.332s34.702 9.747 43.491 25.332C243.405 212.528 228.336 218 212.007 218zm-16-76v-6.5c0-8.822 7.178-16 16-16s16 7.178 16 16v6.5c0 8.822-7.178 16-16 16s-16-7.178-16-16zm73.94 46.683a69.375 69.375 0 00-29.463-24.697c4.71-6.087 7.523-13.712 7.523-21.986v-6.5c0-19.851-16.149-36-36-36s-36 16.149-36 36v6.5c0 8.274 2.813 15.899 7.523 21.986a69.375 69.375 0 00-29.463 24.697c-8.829-11.953-14.06-26.716-14.06-42.683 0-39.701 32.299-72 72-72s72 32.299 72 72c0 15.967-5.231 30.73-14.06 42.683zM266.007 438h-54c-5.522 0-10 4.477-10 10s4.478 10 10 10h54c5.522 0 10-4.477 10-10s-4.478-10-10-10zm0-56h-142c-5.522 0-10 4.477-10 10s4.478 10 10 10h142c5.522 0 10-4.477 10-10s-4.478-10-10-10zm0-56h-142c-5.522 0-10 4.477-10 10s4.478 10 10 10h142c5.522 0 10-4.477 10-10s-4.478-10-10-10zM88.366 272.93a10.077 10.077 0 00-7.079-2.93c-2.631 0-5.211 1.07-7.07 2.93-1.86 1.86-2.93 4.44-2.93 7.07s1.069 5.21 2.93 7.07a10.092 10.092 0 007.07 2.93c2.64 0 5.21-1.07 7.079-2.93 1.86-1.86 2.931-4.44 2.931-7.07s-1.07-5.21-2.931-7.07zm0 56a10.095 10.095 0 00-7.079-2.93c-2.631 0-5.2 1.07-7.07 2.93-1.86 1.86-2.93 4.44-2.93 7.07s1.069 5.21 2.93 7.07a10.092 10.092 0 007.07 2.93c2.64 0 5.21-1.07 7.079-2.93 1.86-1.86 2.931-4.44 2.931-7.07s-1.07-5.21-2.931-7.07zm0 56a10.095 10.095 0 00-7.079-2.93c-2.631 0-5.2 1.07-7.07 2.93-1.86 1.86-2.93 4.44-2.93 7.07s1.069 5.21 2.93 7.07a10.072 10.072 0 007.07 2.93c2.64 0 5.22-1.07 7.079-2.93 1.86-1.86 2.931-4.44 2.931-7.07s-1.07-5.21-2.931-7.07zM266.007 270h-142c-5.522 0-10 4.477-10 10s4.478 10 10 10h142c5.522 0 10-4.477 10-10s-4.478-10-10-10zm224.995-139.68c-9.715-5.609-21.033-7.099-31.871-4.196-10.836 2.904-19.894 9.854-25.502 19.569L307.787 363.656a10.016 10.016 0 00-1.278 3.891l-8.858 79.344a10.004 10.004 0 009.937 11.11 9.99 9.99 0 005.931-1.948l64.284-47.344a9.983 9.983 0 002.73-3.052l125.841-217.963c11.58-20.056 4.684-45.794-15.372-57.374zM320.063 426.394l4.626-41.432 28.942 16.71-33.568 24.722zm48.15-39.398l-38.105-22 100.985-174.91 38.105 22-100.985 174.91zm120.841-209.303l-9.857 17.073-38.105-22 9.857-17.073a21.855 21.855 0 0113.358-10.25 21.85 21.85 0 0116.694 2.198 21.855 21.855 0 0110.25 13.358 21.856 21.856 0 01-2.197 16.694z"/></symbol><symbol viewBox="0 0 512 512" id="review" xmlns="http://www.w3.org/2000/svg"><path d="M512 106.667c0-17.673-14.327-32-32-32h-42.667V96H480c5.891 0 10.667 4.776 10.667 10.667V391.35l-53.163-53.163c25.553-45.59 18.946-104.349-19.829-143.125a117.208 117.208 0 00-1.675-1.634V10.667C416 4.776 411.224 0 405.333 0h-224c-.57 0-1.133.058-1.689.147-.122.019-.245.031-.366.055-.161.032-.319.078-.479.117-.18.044-.362.082-.54.136-.115.035-.227.081-.341.119-.217.073-.434.144-.647.232-.086.036-.169.08-.254.118-.233.103-.466.207-.692.327-.08.042-.154.093-.233.138-.224.126-.447.253-.663.397-.117.078-.226.167-.339.249-.169.123-.341.24-.505.374-.275.225-.54.464-.793.717L99.125 77.792A10.662 10.662 0 0096 85.333v213.333H74.667V320h145.625c16.546 46.283 60.774 79.404 112.744 79.403a119.693 119.693 0 0058.535-15.295L423.428 416H32c-5.891 0-10.667-4.776-10.667-10.667V106.667C21.333 100.776 26.109 96 32 96h42.667V74.667H32c-17.673 0-32 14.327-32 32v298.667c0 17.673 14.327 32 32 32h154.146c-5.189 51.275-47.736 53.283-52.813 53.333-5.891 0-10.667 4.776-10.667 10.667s4.776 10.667 10.667 10.667h245.333c5.891 0 10.667-4.776 10.667-10.667s-4.776-10.667-10.667-10.667c-2.006 0-47.392-.648-52.803-53.333h118.874l11.827 11.84a32.334 32.334 0 0022.965 9.493 32.327 32.327 0 0022.933-9.6c6.187-6.202 9.341-14.28 9.48-22.4H512v-320zm-184.651 384H184.651a84.452 84.452 0 0023.369-53.333h95.961a84.446 84.446 0 0023.368 53.333zm-210.016-192V89.749l53.333-53.333v38.251h-21.333V96h32C187.224 96 192 91.224 192 85.333v-64h202.667V177.09A119.696 119.696 0 00333.029 160c-17.637 0-34.382 3.817-49.457 10.667H149.333V192h102.243a120.145 120.145 0 00-24.514 32h-77.729v21.333h69.013a119.675 119.675 0 00-5.016 34.371c0 6.453.518 12.785 1.501 18.962h-97.498zm117.346-18.954c-.007-54.327 44.029-98.373 98.356-98.38a97.706 97.706 0 0169.557 28.8 98.371 98.371 0 0128.823 69.556c.003 26.943-10.83 51.353-28.374 69.121l-.903.902c-17.761 17.528-42.154 28.353-69.079 28.357-54.328.007-98.374-44.029-98.38-98.356zm190.868 76.799l15.726 15.725-15.755 15.755-15.726-15.725 15.755-15.755zm46.112 77.621l-31.056-31.056 15.755-15.755 31.056 31.056a11.119 11.119 0 013.253 7.825v.105a11.119 11.119 0 01-3.253 7.825c-4.355 4.341-11.401 4.341-15.755 0z"/><path d="M279.232 225.899l15.083 15.083c21.4-21.347 56.04-21.347 77.44 0l15.083-15.083c-29.736-29.664-77.87-29.664-107.606 0zM42.667 341.333V384c0 5.891 4.776 10.667 10.667 10.667H96v-21.333H64v-32H42.667zm74.666 32h21.333v21.333h-21.333zm32-256h213.333v21.333H149.333z"/></symbol><symbol viewBox="-20 -24 648 647" id="team" xmlns="http://www.w3.org/2000/svg"><path d="M443.535 279.719c-27.566 0-49.918-22.348-49.918-49.918 0-27.567 22.352-49.918 49.918-49.918 27.57 0 49.918 22.351 49.918 49.918-.031 27.558-22.36 49.887-49.918 49.918zm0-79.867c-16.539 0-29.95 13.41-29.95 29.949 0 16.547 13.411 29.949 29.95 29.949 16.547 0 29.95-13.402 29.95-29.95 0-16.538-13.403-29.948-29.95-29.948zM164 279.719c-27.566 0-49.918-22.348-49.918-49.918 0-27.567 22.352-49.918 49.918-49.918 27.57 0 49.918 22.351 49.918 49.918-.031 27.558-22.36 49.887-49.918 49.918zm0-79.867c-16.54 0-29.95 13.41-29.95 29.949 0 16.547 13.41 29.949 29.95 29.949 16.547 0 29.95-13.402 29.95-29.95 0-16.538-13.403-29.948-29.95-29.948zm0 0"/><path d="M503.438 344.035l95.171-86.515c11.133-10.364 11.914-27.743 1.75-39.06-10.164-11.315-27.523-12.405-39.015-2.444l-71.684 63.703H388.89l-75.14 91.847V119.984h99.836v39.934h164.496l-23.957-59.902 23.957-59.899H463.504V.184H293.785v371.382l-75.133-91.847h-100.77L46.2 216.004c-11.5-9.98-28.879-8.899-39.05 2.426-10.18 11.328-9.395 28.718 1.765 39.09l95.188 86.515V579.22H4.266v19.968H603.27V579.22h-99.832zM463.504 60.082h85.086l-15.969 39.934 15.969 39.933H433.55v-19.965h29.954zM313.75 20.148h129.785v79.868H313.75zm-109.816 559.07h-29.95V439.454h-19.968V579.22h-29.95V335.207l-101.71-92.426a7.994 7.994 0 01-1.208-10.273 7.89 7.89 0 015.551-3.45 7.883 7.883 0 016.25 1.915l77.344 68.71h98.894l74.235 90.735a8.123 8.123 0 01-1.008 11.437c-3.441 2.875-8.562 2.422-11.437-1.015l-67.043-78.192zm179.703 0H223.902v-202.66l31.95 37.239c9.261 10.789 25.117 12.957 36.933 5.05.371-.25.692-.566 1.055-.84v81.345h19.965v-81.325c.375.285.707.621 1.105.883 11.809 7.852 27.617 5.676 36.86-5.082l31.867-37.27zm99.832 0h-29.95V439.454h-19.968V579.22H403.6V322.65l-67.035 78.222a8.108 8.108 0 01-10.671 1.426 7.99 7.99 0 01-3.516-5.524 8.05 8.05 0 011.738-6.328l74.235-90.761h98.898l77.328-68.743a7.726 7.726 0 016.25-1.925 7.835 7.835 0 015.602 3.515 7.924 7.924 0 01-1.25 10.211l-101.711 92.465zm0 0"/></symbol><symbol viewBox="0 0 511.999 511.999" id="telephone" xmlns="http://www.w3.org/2000/svg"><path d="M498.827 377.633l-63.649-63.649c-17.548-17.547-46.102-17.547-63.649 0l-28.931 28.931c-13.294 13.294-34.926 13.29-48.215.005l-125.4-125.507c-13.325-13.325-13.327-34.892 0-48.219l28.931-28.931c17.471-17.47 17.715-45.935-.017-63.665l-63.632-63.432C116.717-4.381 88.164-4.381 70.663 13.12L47.471 36.111c-63.28 63.279-63.28 166.242-.003 229.519L246.16 464.426c63.428 63.429 166.088 63.434 229.521 0l23.146-23.145c17.548-17.548 17.548-46.1 0-63.648zM91.833 34.382c5.849-5.849 15.365-5.85 21.233.016l63.632 63.432c5.863 5.863 5.863 15.352 0 21.216l-10.609 10.608-84.81-84.81 10.554-10.462zM267.38 443.213L68.687 244.415c-48.958-48.958-51.649-125.833-8.276-178.006l84.564 84.564c-22.22 25.189-21.294 63.572 2.787 87.653l125.396 125.501.004.004c24.055 24.056 62.436 25.042 87.656 2.792l84.566 84.566c-52.007 43.298-128.709 41.019-178.004-8.276zm210.232-23.148l-10.609 10.609-84.865-84.866 10.607-10.608c5.85-5.849 15.367-5.85 21.217 0l63.649 63.649c5.85 5.85 5.85 15.368.001 21.216z"/></symbol><symbol viewBox="0 0 510 510" id="tick-inside-circle" xmlns="http://www.w3.org/2000/svg"><path d="M150.45 206.55l-35.7 35.7L229.5 357l255-255-35.7-35.7-219.3 219.3-79.05-79.05zM459 255c0 112.2-91.8 204-204 204S51 367.2 51 255 142.8 51 255 51c20.4 0 38.25 2.55 56.1 7.65l40.801-40.8C321.3 7.65 288.15 0 255 0 114.75 0 0 114.75 0 255s114.75 255 255 255 255-114.75 255-255h-51z"/></symbol><symbol viewBox="0 0 480.058 480.058" id="value" xmlns="http://www.w3.org/2000/svg"><path d="M368.033 88.029h-.004c-13.249-.014-23.986-10.751-24-24a8 8 0 00-16 0c-.014 13.249-10.751 23.986-24 24a8 8 0 000 16c13.249.014 23.986 10.751 24 24a8 8 0 0016 0c.014-13.249 10.751-23.986 24-24a7.998 7.998 0 008-7.996v-.004a7.998 7.998 0 00-7.996-8zm-32.004 16.024a40.338 40.338 0 00-8.023-8.023 40.338 40.338 0 008.023-8.023 40.338 40.338 0 008.023 8.023 40.311 40.311 0 00-8.023 8.023zm-160-16.024c-13.249-.014-23.986-10.751-24-24a8 8 0 00-16 0c-.014 13.249-10.751 23.986-24 24a8 8 0 000 16c13.249.014 23.986 10.751 24 24a8 8 0 0016 0c.014-13.249 10.751-23.986 24-24a8 8 0 000-16zm-32 16.024a40.338 40.338 0 00-8.023-8.023 40.338 40.338 0 008.023-8.023 40.338 40.338 0 008.023 8.023 40.311 40.311 0 00-8.023 8.023zm128-72.024c-13.249-.014-23.986-10.751-24-24a7.998 7.998 0 00-7.996-8h-.004a7.998 7.998 0 00-8 7.996v.004c-.014 13.249-10.751 23.986-24 24a8 8 0 000 16c13.249.014 23.986 10.751 24 24a8 8 0 0016 0c.014-13.249 10.751-23.986 24-24a8 8 0 000-16zm-32 16.024a40.338 40.338 0 00-8.023-8.023 40.338 40.338 0 008.023-8.023 40.338 40.338 0 008.023 8.023 40.311 40.311 0 00-8.023 8.023zm0 71.976c-70.692 0-128 57.308-128 128s57.308 128 128 128c70.659-.081 127.919-57.341 128-128 0-70.692-57.308-128-128-128zm0 240c-61.856 0-112-50.144-112-112s50.144-112 112-112 112 50.144 112 112c-.07 61.827-50.173 111.931-112 112z"/><path d="M160.029 240.029h16c.04-35.329 28.671-63.96 64-64v-16c-44.162.051-79.95 35.838-80 80zm320 131.977l-.133-141.34c-.023-22.027-13.719-38.637-31.867-38.637h-1.531c-17.663.944-31.827 14.951-32.969 32.602l-19.672 101.234a26.386 26.386 0 00-19.109 4.543l-60.375 42.461a24.417 24.417 0 00-10.344 19.937v79.223a7.998 7.998 0 007.996 8h80.004a7.998 7.998 0 008-7.996v-10.125l52.672-33.535a67.686 67.686 0 0027.328-56.367zm-36.086 42.976l-56.211 35.785a8.008 8.008 0 00-3.703 6.75v6.512h-64v-71.223a8.397 8.397 0 013.555-6.856l60.367-42.457c4.715-3.315 11.224-2.179 14.539 2.536a10.433 10.433 0 011.898 5.999 10.22 10.22 0 01-2.555 6.918l-50.961 42.965 10.312 12.234 51.461-43.422c10.305-10.306 10.326-27.008.047-37.34l20.625-106.242c.233-9.735 7.525-17.847 17.18-19.113h1.531c9.031 0 15.852 9.738 15.867 22.652l.133 141.332a51.563 51.563 0 01-20.085 42.97zm-278.266-42.117l-60.367-42.457a26.407 26.407 0 00-19.109-4.543L66.615 225.174c-.981-17.849-15.209-32.115-33.055-33.145h-1.531c-18.148 0-31.844 16.609-31.867 38.637L.029 372.014a67.731 67.731 0 0027.492 56.469l52.508 33.426v10.121a7.998 7.998 0 007.996 8h80.004a7.998 7.998 0 008-7.996v-79.227a24.418 24.418 0 00-10.352-19.942zm-5.648 91.164h-64v-6.512a8.008 8.008 0 00-3.703-6.75l-56.047-35.676a51.597 51.597 0 01-20.25-43.07l.133-141.34c.016-12.914 6.836-22.652 15.867-22.652h1.531c9.83 1.37 17.175 9.731 17.266 19.656l20.539 105.699c-10.279 10.332-10.258 27.034.047 37.34.294.292.61.561.945.805l58.961 42.965 9.422-12.93-58.391-42.547c-3.858-4.283-3.514-10.882.768-14.74a10.437 10.437 0 0112.99-.783l60.359 42.453a8.396 8.396 0 013.563 6.859v71.223z"/></symbol></svg>