<?xml version="1.0" encoding="utf-8"?><svg xmlns="http://www.w3.org/2000/svg" xmlns:xlink="http://www.w3.org/1999/xlink"><symbol viewBox="0 0 496 496" id="hiring" xmlns="http://www.w3.org/2000/svg"><path d="M176 248c17.648 0 32-14.352 32-32h-16c0 8.824-7.176 16-16 16s-16-7.176-16-16h-16c0 17.648 14.352 32 32 32zm-32-80a8 8 0 11-16 0 8 8 0 0116 0zm80 0a8 8 0 11-16 0 8 8 0 0116 0zm0 0"/><path d="M272 240v63.566l-40-13.336v-22.406a88.134 88.134 0 0028.71-44.304C280.528 221.16 296 204.44 296 184v-64C296 53.832 242.168 0 176 0S56 53.832 56 120v64c0 20.441 15.473 37.16 35.29 39.52A88.134 88.134 0 00120 267.824v22.406l-81.71 27.25A55.913 55.913 0 000 370.594V448h272v48h224V292.687L443.312 240zm176 27.313L468.688 288H448zm-209.23 42.039l-12.196 60.945-38.238-27.32 37.824-37.825zm24.894-102.72c.168-2.198.336-4.394.336-6.632v-38.527c9.29 3.312 16 12.113 16 22.527 0 10.535-6.871 19.414-16.336 22.633zM72 184c0-10.414 6.71-19.215 16-22.527V200c0 2.238.168 4.434.336 6.633C78.87 203.414 72 194.535 72 184zm17.535-39.344c-6.527 1.07-12.472 3.719-17.535 7.551V120c0-57.344 46.656-104 104-104s104 46.656 104 104v32.207c-5.063-3.832-11.008-6.48-17.535-7.55C257.44 125.886 240.328 112 220 112c-9.465 0-18.832 3.129-26.398 8.809L176 134l-17.594-13.191C150.832 115.129 141.465 112 132 112c-20.328 0-37.441 13.887-42.465 32.656zM104 200v-44c0-15.441 12.559-28 28-28 6.023 0 11.984 1.992 16.809 5.602L176 154l27.2-20.398A28.184 28.184 0 01220 128c15.441 0 28 12.559 28 28v44c0 39.703-32.297 72-72 72s-72-32.297-72-72zm72 88c14.406 0 27.984-3.55 40-9.71v14.397l-40 40-40-40V278.29c12.016 6.16 25.594 9.711 40 9.711zm-50.16 17.152l37.824 37.825-38.238 27.32-12.196-60.945zM80 432v-48H64v48H16v-61.406a39.945 39.945 0 0127.352-37.946l54.586-18.191 16.648 83.246L176 353.832l61.426 43.871 16.644-83.246 17.93 5.969V432zm208 48V256h144v48h48v176zm0 0"/><path d="M384 464h80v-80h-80zm16-64h48v48h-48zm-96 48h64v16h-64zm0-32h64v16h-64zm0-32h64v16h-64zm0-112h16v16h-16zm32 0h80v16h-80zm-32 32h112v16H304zm144 32h16v16h-16zm-144 0h128v16H304zm104-112c48.52 0 88-39.48 88-88 0-19.008-6.121-36.586-16.406-50.984l14.3-15.61-11.796-10.812-13.02 14.199C453.238 57.48 431.718 48 408 48c-48.52 0-88 39.48-88 88s39.48 88 88 88zm0-160c19.559 0 37.305 7.863 50.29 20.566l-59.138 64.512-34.16-27.324-10 12.492 45.84 36.676 67.656-73.809C475.742 108.343 480 121.672 480 136c0 39.703-32.297 72-72 72s-72-32.297-72-72 32.297-72 72-72zm0 0"/></symbol><symbol viewBox="0 0 512 512" id="interview" xmlns="http://www.w3.org/2000/svg"><path d="M62.74 494.93a10.071 10.071 0 00-7.07-2.93c-2.64 0-5.21 1.069-7.07 2.93-1.87 1.86-2.93 4.44-2.93 7.07s1.06 5.21 2.93 7.069A10.06 10.06 0 0055.67 512c2.63 0 5.21-1.07 7.07-2.931 1.859-1.859 2.93-4.439 2.93-7.069s-1.07-5.21-2.93-7.07zm310.329-70.67c-1.859-1.861-4.439-2.93-7.069-2.93s-5.21 1.069-7.07 2.93a10.077 10.077 0 00-2.93 7.07c0 2.64 1.069 5.21 2.93 7.069 1.86 1.86 4.44 2.931 7.07 2.931s5.21-1.07 7.069-2.931A10.057 10.057 0 00376 431.33c0-2.63-1.07-5.21-2.931-7.07z"/><path d="M479.747 161.62C487.314 154.02 492 143.547 492 132v-8c0-23.159-18.841-42-42-42s-42 18.841-42 42v8c0 11.549 4.687 22.022 12.256 29.623-16.413 9.014-28.333 25.234-31.45 44.377H343c-16.542 0-30 13.458-30 30 0 3.506.61 6.87 1.72 10H197.28a29.857 29.857 0 001.72-10c0-16.542-13.458-30-30-30h-45.806c-3.117-19.143-15.037-35.364-31.45-44.377C99.313 154.022 104 143.549 104 132v-8c0-23.159-18.841-42-42-42s-42 18.841-42 42v8c0 11.547 4.686 22.02 12.253 29.62C13.049 172.167 0 192.586 0 216v112.167C0 359.505 25.495 385 56.833 385H136v95.5c0 4.058.78 7.935 2.183 11.5H98.667c-5.522 0-10 4.478-10 10s4.478 10 10 10h357.666c5.522 0 10-4.478 10-10s-4.478-10-10-10h-82.516A31.332 31.332 0 00376 480.5V469c0-5.522-4.478-10-10-10s-10 4.478-10 10v11.5c0 6.341-5.159 11.5-11.5 11.5s-11.5-5.159-11.5-11.5V354.25c0-15.577 12.673-28.25 28.25-28.25H492v2.167c0 20.31-16.523 36.833-36.833 36.833H366c-5.522 0-10 4.478-10 10v16c0 5.522 4.478 10 10 10s10-4.478 10-10v-6h79.167C486.505 385 512 359.505 512 328.167V216c0-23.414-13.049-43.833-32.253-54.38zM428 124c0-12.131 9.869-22 22-22s22 9.869 22 22v8c0 12.131-9.869 22-22 22s-22-9.869-22-22v-8zm-388 0c0-12.131 9.869-22 22-22s22 9.869 22 22v8c0 12.131-9.869 22-22 22s-22-9.869-22-22v-8zm-20 92c0-23.159 18.841-42 42-42s42 18.841 42 42c0 5.522 4.478 10 10 10h55c5.514 0 10 4.486 10 10s-4.486 10-10 10h-58.235a42.986 42.986 0 01-37.95-22.723c-2.607-4.868-8.669-6.701-13.537-4.092-4.868 2.607-6.7 8.668-4.092 13.537a62.943 62.943 0 0049.373 32.974A9.986 9.986 0 00104 269v37H20v-90zm123.382 90H124v-37a9.98 9.98 0 00-.458-3h19.84A39.742 39.742 0 00138 286a39.732 39.732 0 005.382 20zM179 480.5c0 6.341-5.159 11.5-11.5 11.5s-11.5-5.159-11.5-11.5V375c0-5.522-4.478-10-10-10H56.833C36.523 365 20 348.477 20 328.167V326h130.75c15.577 0 28.25 12.673 28.25 28.25V480.5zm47 11.5h-29.183A31.311 31.311 0 00199 480.5V354.25c0-10.544-3.409-20.302-9.171-28.25H226v166zm40 0h-20V326h20v166zm49.183 0H286V326h36.171c-5.761 7.948-9.171 17.706-9.171 28.25V480.5c0 4.058.78 7.935 2.183 11.5zM334 306H178c-11.028 0-20-8.972-20-20s8.972-20 20-20h156c11.028 0 20 8.972 20 20s-8.972 20-20 20zm54-37v37h-19.382A39.742 39.742 0 00374 286a39.732 39.732 0 00-5.382-20h19.84a9.98 9.98 0 00-.458 3zm104 37h-84v-37c0-1.157-.197-2.27-.559-3.304a62.943 62.943 0 0049.373-32.974c2.608-4.869.776-10.93-4.092-13.537-4.87-2.608-10.929-.774-13.537 4.092A42.986 42.986 0 01401.235 246H343c-5.514 0-10-4.486-10-10s4.486-10 10-10h55c5.522 0 10-4.478 10-10 0-23.159 18.841-42 42-42s42 18.841 42 42v90z"/><path d="M328 0H184c-16.542 0-30 13.458-30 30v98c0 16.542 13.458 30 30 30h34.857l30.071 30.071C250.882 190.023 253.44 191 256 191s5.118-.977 7.071-2.929L293.143 158H328c16.542 0 30-13.458 30-30V30c0-16.542-13.458-30-30-30zm10 128c0 5.514-4.486 10-10 10h-39a10.003 10.003 0 00-7.071 2.929L256 166.857l-25.929-25.929A10.006 10.006 0 00223 138h-39c-5.514 0-10-4.486-10-10V30c0-5.514 4.486-10 10-10h144c5.514 0 10 4.486 10 10v98z"/><path d="M216.069 68.1c-1.859-1.87-4.439-2.93-7.069-2.93s-5.21 1.06-7.07 2.93c-1.86 1.86-2.93 4.44-2.93 7.07s1.069 5.21 2.93 7.07c1.86 1.86 4.44 2.93 7.07 2.93s5.21-1.07 7.069-2.93c1.86-1.86 2.931-4.44 2.931-7.07s-1.07-5.21-2.931-7.07zm47 0c-1.859-1.859-4.439-2.93-7.069-2.93s-5.21 1.07-7.07 2.93c-1.86 1.86-2.93 4.44-2.93 7.07s1.069 5.21 2.93 7.07c1.86 1.86 4.44 2.93 7.07 2.93s5.21-1.07 7.069-2.93c1.86-1.86 2.931-4.44 2.931-7.07s-1.07-5.21-2.931-7.07zm47 0c-1.859-1.87-4.439-2.93-7.069-2.93s-5.21 1.06-7.07 2.93c-1.86 1.86-2.93 4.44-2.93 7.07s1.069 5.21 2.93 7.07c1.86 1.86 4.44 2.93 7.07 2.93s5.21-1.07 7.069-2.93c1.86-1.86 2.931-4.44 2.931-7.07s-1.07-5.21-2.931-7.07z"/></symbol><symbol viewBox="0 0 512 512" id="resume" xmlns="http://www.w3.org/2000/svg"><path d="M414.007 148.75c5.522 0 10-4.477 10-10V30c0-16.542-13.458-30-30-30h-364c-16.542 0-30 13.458-30 30v452c0 16.542 13.458 30 30 30h364c16.542 0 30-13.458 30-30v-73.672c0-5.523-4.478-10-10-10s-10 4.477-10 10V482c0 5.514-4.486 10-10 10h-364c-5.514 0-10-4.486-10-10V30c0-5.514 4.486-10 10-10h364c5.514 0 10 4.486 10 10v108.75c0 5.523 4.478 10 10 10z"/><path d="M212.007 54c-50.729 0-92 41.271-92 92 0 26.317 11.11 50.085 28.882 66.869.333.356.687.693 1.074 1 16.371 14.979 38.158 24.13 62.043 24.13 23.885 0 45.672-9.152 62.043-24.13a9.993 9.993 0 001.074-1c17.774-16.784 28.884-40.552 28.884-66.869 0-50.729-41.271-92-92-92zm0 164c-16.329 0-31.399-5.472-43.491-14.668 8.789-15.585 25.19-25.332 43.491-25.332s34.702 9.747 43.491 25.332C243.405 212.528 228.336 218 212.007 218zm-16-76v-6.5c0-8.822 7.178-16 16-16s16 7.178 16 16v6.5c0 8.822-7.178 16-16 16s-16-7.178-16-16zm73.94 46.683a69.375 69.375 0 00-29.463-24.697c4.71-6.087 7.523-13.712 7.523-21.986v-6.5c0-19.851-16.149-36-36-36s-36 16.149-36 36v6.5c0 8.274 2.813 15.899 7.523 21.986a69.375 69.375 0 00-29.463 24.697c-8.829-11.953-14.06-26.716-14.06-42.683 0-39.701 32.299-72 72-72s72 32.299 72 72c0 15.967-5.231 30.73-14.06 42.683zM266.007 438h-54c-5.522 0-10 4.477-10 10s4.478 10 10 10h54c5.522 0 10-4.477 10-10s-4.478-10-10-10zm0-56h-142c-5.522 0-10 4.477-10 10s4.478 10 10 10h142c5.522 0 10-4.477 10-10s-4.478-10-10-10zm0-56h-142c-5.522 0-10 4.477-10 10s4.478 10 10 10h142c5.522 0 10-4.477 10-10s-4.478-10-10-10zM88.366 272.93a10.077 10.077 0 00-7.079-2.93c-2.631 0-5.211 1.07-7.07 2.93-1.86 1.86-2.93 4.44-2.93 7.07s1.069 5.21 2.93 7.07a10.092 10.092 0 007.07 2.93c2.64 0 5.21-1.07 7.079-2.93 1.86-1.86 2.931-4.44 2.931-7.07s-1.07-5.21-2.931-7.07zm0 56a10.095 10.095 0 00-7.079-2.93c-2.631 0-5.2 1.07-7.07 2.93-1.86 1.86-2.93 4.44-2.93 7.07s1.069 5.21 2.93 7.07a10.092 10.092 0 007.07 2.93c2.64 0 5.21-1.07 7.079-2.93 1.86-1.86 2.931-4.44 2.931-7.07s-1.07-5.21-2.931-7.07zm0 56a10.095 10.095 0 00-7.079-2.93c-2.631 0-5.2 1.07-7.07 2.93-1.86 1.86-2.93 4.44-2.93 7.07s1.069 5.21 2.93 7.07a10.072 10.072 0 007.07 2.93c2.64 0 5.22-1.07 7.079-2.93 1.86-1.86 2.931-4.44 2.931-7.07s-1.07-5.21-2.931-7.07zM266.007 270h-142c-5.522 0-10 4.477-10 10s4.478 10 10 10h142c5.522 0 10-4.477 10-10s-4.478-10-10-10zm224.995-139.68c-9.715-5.609-21.033-7.099-31.871-4.196-10.836 2.904-19.894 9.854-25.502 19.569L307.787 363.656a10.016 10.016 0 00-1.278 3.891l-8.858 79.344a10.004 10.004 0 009.937 11.11 9.99 9.99 0 005.931-1.948l64.284-47.344a9.983 9.983 0 002.73-3.052l125.841-217.963c11.58-20.056 4.684-45.794-15.372-57.374zM320.063 426.394l4.626-41.432 28.942 16.71-33.568 24.722zm48.15-39.398l-38.105-22 100.985-174.91 38.105 22-100.985 174.91zm120.841-209.303l-9.857 17.073-38.105-22 9.857-17.073a21.855 21.855 0 0113.358-10.25 21.85 21.85 0 0116.694 2.198 21.855 21.855 0 0110.25 13.358 21.856 21.856 0 01-2.197 16.694z"/></symbol><symbol viewBox="0 0 512 512" id="review" xmlns="http://www.w3.org/2000/svg"><path d="M512 106.667c0-17.673-14.327-32-32-32h-42.667V96H480c5.891 0 10.667 4.776 10.667 10.667V391.35l-53.163-53.163c25.553-45.59 18.946-104.349-19.829-143.125a117.208 117.208 0 00-1.675-1.634V10.667C416 4.776 411.224 0 405.333 0h-224c-.57 0-1.133.058-1.689.147-.122.019-.245.031-.366.055-.161.032-.319.078-.479.117-.18.044-.362.082-.54.136-.115.035-.227.081-.341.119-.217.073-.434.144-.647.232-.086.036-.169.08-.254.118-.233.103-.466.207-.692.327-.08.042-.154.093-.233.138-.224.126-.447.253-.663.397-.117.078-.226.167-.339.249-.169.123-.341.24-.505.374-.275.225-.54.464-.793.717L99.125 77.792A10.662 10.662 0 0096 85.333v213.333H74.667V320h145.625c16.546 46.283 60.774 79.404 112.744 79.403a119.693 119.693 0 0058.535-15.295L423.428 416H32c-5.891 0-10.667-4.776-10.667-10.667V106.667C21.333 100.776 26.109 96 32 96h42.667V74.667H32c-17.673 0-32 14.327-32 32v298.667c0 17.673 14.327 32 32 32h154.146c-5.189 51.275-47.736 53.283-52.813 53.333-5.891 0-10.667 4.776-10.667 10.667s4.776 10.667 10.667 10.667h245.333c5.891 0 10.667-4.776 10.667-10.667s-4.776-10.667-10.667-10.667c-2.006 0-47.392-.648-52.803-53.333h118.874l11.827 11.84a32.334 32.334 0 0022.965 9.493 32.327 32.327 0 0022.933-9.6c6.187-6.202 9.341-14.28 9.48-22.4H512v-320zm-184.651 384H184.651a84.452 84.452 0 0023.369-53.333h95.961a84.446 84.446 0 0023.368 53.333zm-210.016-192V89.749l53.333-53.333v38.251h-21.333V96h32C187.224 96 192 91.224 192 85.333v-64h202.667V177.09A119.696 119.696 0 00333.029 160c-17.637 0-34.382 3.817-49.457 10.667H149.333V192h102.243a120.145 120.145 0 00-24.514 32h-77.729v21.333h69.013a119.675 119.675 0 00-5.016 34.371c0 6.453.518 12.785 1.501 18.962h-97.498zm117.346-18.954c-.007-54.327 44.029-98.373 98.356-98.38a97.706 97.706 0 0169.557 28.8 98.371 98.371 0 0128.823 69.556c.003 26.943-10.83 51.353-28.374 69.121l-.903.902c-17.761 17.528-42.154 28.353-69.079 28.357-54.328.007-98.374-44.029-98.38-98.356zm190.868 76.799l15.726 15.725-15.755 15.755-15.726-15.725 15.755-15.755zm46.112 77.621l-31.056-31.056 15.755-15.755 31.056 31.056a11.119 11.119 0 013.253 7.825v.105a11.119 11.119 0 01-3.253 7.825c-4.355 4.341-11.401 4.341-15.755 0z"/><path d="M279.232 225.899l15.083 15.083c21.4-21.347 56.04-21.347 77.44 0l15.083-15.083c-29.736-29.664-77.87-29.664-107.606 0zM42.667 341.333V384c0 5.891 4.776 10.667 10.667 10.667H96v-21.333H64v-32H42.667zm74.666 32h21.333v21.333h-21.333zm32-256h213.333v21.333H149.333z"/></symbol></svg><?xml version="1.0" encoding="utf-8"?><svg xmlns="http://www.w3.org/2000/svg" xmlns:xlink="http://www.w3.org/1999/xlink"><symbol viewBox="0 0 496 496" id="hiring" xmlns="http://www.w3.org/2000/svg"><path d="M176 248c17.648 0 32-14.352 32-32h-16c0 8.824-7.176 16-16 16s-16-7.176-16-16h-16c0 17.648 14.352 32 32 32zm-32-80a8 8 0 11-16 0 8 8 0 0116 0zm80 0a8 8 0 11-16 0 8 8 0 0116 0zm0 0"/><path d="M272 240v63.566l-40-13.336v-22.406a88.134 88.134 0 0028.71-44.304C280.528 221.16 296 204.44 296 184v-64C296 53.832 242.168 0 176 0S56 53.832 56 120v64c0 20.441 15.473 37.16 35.29 39.52A88.134 88.134 0 00120 267.824v22.406l-81.71 27.25A55.913 55.913 0 000 370.594V448h272v48h224V292.687L443.312 240zm176 27.313L468.688 288H448zm-209.23 42.039l-12.196 60.945-38.238-27.32 37.824-37.825zm24.894-102.72c.168-2.198.336-4.394.336-6.632v-38.527c9.29 3.312 16 12.113 16 22.527 0 10.535-6.871 19.414-16.336 22.633zM72 184c0-10.414 6.71-19.215 16-22.527V200c0 2.238.168 4.434.336 6.633C78.87 203.414 72 194.535 72 184zm17.535-39.344c-6.527 1.07-12.472 3.719-17.535 7.551V120c0-57.344 46.656-104 104-104s104 46.656 104 104v32.207c-5.063-3.832-11.008-6.48-17.535-7.55C257.44 125.886 240.328 112 220 112c-9.465 0-18.832 3.129-26.398 8.809L176 134l-17.594-13.191C150.832 115.129 141.465 112 132 112c-20.328 0-37.441 13.887-42.465 32.656zM104 200v-44c0-15.441 12.559-28 28-28 6.023 0 11.984 1.992 16.809 5.602L176 154l27.2-20.398A28.184 28.184 0 01220 128c15.441 0 28 12.559 28 28v44c0 39.703-32.297 72-72 72s-72-32.297-72-72zm72 88c14.406 0 27.984-3.55 40-9.71v14.397l-40 40-40-40V278.29c12.016 6.16 25.594 9.711 40 9.711zm-50.16 17.152l37.824 37.825-38.238 27.32-12.196-60.945zM80 432v-48H64v48H16v-61.406a39.945 39.945 0 0127.352-37.946l54.586-18.191 16.648 83.246L176 353.832l61.426 43.871 16.644-83.246 17.93 5.969V432zm208 48V256h144v48h48v176zm0 0"/><path d="M384 464h80v-80h-80zm16-64h48v48h-48zm-96 48h64v16h-64zm0-32h64v16h-64zm0-32h64v16h-64zm0-112h16v16h-16zm32 0h80v16h-80zm-32 32h112v16H304zm144 32h16v16h-16zm-144 0h128v16H304zm104-112c48.52 0 88-39.48 88-88 0-19.008-6.121-36.586-16.406-50.984l14.3-15.61-11.796-10.812-13.02 14.199C453.238 57.48 431.718 48 408 48c-48.52 0-88 39.48-88 88s39.48 88 88 88zm0-160c19.559 0 37.305 7.863 50.29 20.566l-59.138 64.512-34.16-27.324-10 12.492 45.84 36.676 67.656-73.809C475.742 108.343 480 121.672 480 136c0 39.703-32.297 72-72 72s-72-32.297-72-72 32.297-72 72-72zm0 0"/></symbol><symbol viewBox="0 0 512 512" id="interview" xmlns="http://www.w3.org/2000/svg"><path d="M62.74 494.93a10.071 10.071 0 00-7.07-2.93c-2.64 0-5.21 1.069-7.07 2.93-1.87 1.86-2.93 4.44-2.93 7.07s1.06 5.21 2.93 7.069A10.06 10.06 0 0055.67 512c2.63 0 5.21-1.07 7.07-2.931 1.859-1.859 2.93-4.439 2.93-7.069s-1.07-5.21-2.93-7.07zm310.329-70.67c-1.859-1.861-4.439-2.93-7.069-2.93s-5.21 1.069-7.07 2.93a10.077 10.077 0 00-2.93 7.07c0 2.64 1.069 5.21 2.93 7.069 1.86 1.86 4.44 2.931 7.07 2.931s5.21-1.07 7.069-2.931A10.057 10.057 0 00376 431.33c0-2.63-1.07-5.21-2.931-7.07z"/><path d="M479.747 161.62C487.314 154.02 492 143.547 492 132v-8c0-23.159-18.841-42-42-42s-42 18.841-42 42v8c0 11.549 4.687 22.022 12.256 29.623-16.413 9.014-28.333 25.234-31.45 44.377H343c-16.542 0-30 13.458-30 30 0 3.506.61 6.87 1.72 10H197.28a29.857 29.857 0 001.72-10c0-16.542-13.458-30-30-30h-45.806c-3.117-19.143-15.037-35.364-31.45-44.377C99.313 154.022 104 143.549 104 132v-8c0-23.159-18.841-42-42-42s-42 18.841-42 42v8c0 11.547 4.686 22.02 12.253 29.62C13.049 172.167 0 192.586 0 216v112.167C0 359.505 25.495 385 56.833 385H136v95.5c0 4.058.78 7.935 2.183 11.5H98.667c-5.522 0-10 4.478-10 10s4.478 10 10 10h357.666c5.522 0 10-4.478 10-10s-4.478-10-10-10h-82.516A31.332 31.332 0 00376 480.5V469c0-5.522-4.478-10-10-10s-10 4.478-10 10v11.5c0 6.341-5.159 11.5-11.5 11.5s-11.5-5.159-11.5-11.5V354.25c0-15.577 12.673-28.25 28.25-28.25H492v2.167c0 20.31-16.523 36.833-36.833 36.833H366c-5.522 0-10 4.478-10 10v16c0 5.522 4.478 10 10 10s10-4.478 10-10v-6h79.167C486.505 385 512 359.505 512 328.167V216c0-23.414-13.049-43.833-32.253-54.38zM428 124c0-12.131 9.869-22 22-22s22 9.869 22 22v8c0 12.131-9.869 22-22 22s-22-9.869-22-22v-8zm-388 0c0-12.131 9.869-22 22-22s22 9.869 22 22v8c0 12.131-9.869 22-22 22s-22-9.869-22-22v-8zm-20 92c0-23.159 18.841-42 42-42s42 18.841 42 42c0 5.522 4.478 10 10 10h55c5.514 0 10 4.486 10 10s-4.486 10-10 10h-58.235a42.986 42.986 0 01-37.95-22.723c-2.607-4.868-8.669-6.701-13.537-4.092-4.868 2.607-6.7 8.668-4.092 13.537a62.943 62.943 0 0049.373 32.974A9.986 9.986 0 00104 269v37H20v-90zm123.382 90H124v-37a9.98 9.98 0 00-.458-3h19.84A39.742 39.742 0 00138 286a39.732 39.732 0 005.382 20zM179 480.5c0 6.341-5.159 11.5-11.5 11.5s-11.5-5.159-11.5-11.5V375c0-5.522-4.478-10-10-10H56.833C36.523 365 20 348.477 20 328.167V326h130.75c15.577 0 28.25 12.673 28.25 28.25V480.5zm47 11.5h-29.183A31.311 31.311 0 00199 480.5V354.25c0-10.544-3.409-20.302-9.171-28.25H226v166zm40 0h-20V326h20v166zm49.183 0H286V326h36.171c-5.761 7.948-9.171 17.706-9.171 28.25V480.5c0 4.058.78 7.935 2.183 11.5zM334 306H178c-11.028 0-20-8.972-20-20s8.972-20 20-20h156c11.028 0 20 8.972 20 20s-8.972 20-20 20zm54-37v37h-19.382A39.742 39.742 0 00374 286a39.732 39.732 0 00-5.382-20h19.84a9.98 9.98 0 00-.458 3zm104 37h-84v-37c0-1.157-.197-2.27-.559-3.304a62.943 62.943 0 0049.373-32.974c2.608-4.869.776-10.93-4.092-13.537-4.87-2.608-10.929-.774-13.537 4.092A42.986 42.986 0 01401.235 246H343c-5.514 0-10-4.486-10-10s4.486-10 10-10h55c5.522 0 10-4.478 10-10 0-23.159 18.841-42 42-42s42 18.841 42 42v90z"/><path d="M328 0H184c-16.542 0-30 13.458-30 30v98c0 16.542 13.458 30 30 30h34.857l30.071 30.071C250.882 190.023 253.44 191 256 191s5.118-.977 7.071-2.929L293.143 158H328c16.542 0 30-13.458 30-30V30c0-16.542-13.458-30-30-30zm10 128c0 5.514-4.486 10-10 10h-39a10.003 10.003 0 00-7.071 2.929L256 166.857l-25.929-25.929A10.006 10.006 0 00223 138h-39c-5.514 0-10-4.486-10-10V30c0-5.514 4.486-10 10-10h144c5.514 0 10 4.486 10 10v98z"/><path d="M216.069 68.1c-1.859-1.87-4.439-2.93-7.069-2.93s-5.21 1.06-7.07 2.93c-1.86 1.86-2.93 4.44-2.93 7.07s1.069 5.21 2.93 7.07c1.86 1.86 4.44 2.93 7.07 2.93s5.21-1.07 7.069-2.93c1.86-1.86 2.931-4.44 2.931-7.07s-1.07-5.21-2.931-7.07zm47 0c-1.859-1.859-4.439-2.93-7.069-2.93s-5.21 1.07-7.07 2.93c-1.86 1.86-2.93 4.44-2.93 7.07s1.069 5.21 2.93 7.07c1.86 1.86 4.44 2.93 7.07 2.93s5.21-1.07 7.069-2.93c1.86-1.86 2.931-4.44 2.931-7.07s-1.07-5.21-2.931-7.07zm47 0c-1.859-1.87-4.439-2.93-7.069-2.93s-5.21 1.06-7.07 2.93c-1.86 1.86-2.93 4.44-2.93 7.07s1.069 5.21 2.93 7.07c1.86 1.86 4.44 2.93 7.07 2.93s5.21-1.07 7.069-2.93c1.86-1.86 2.931-4.44 2.931-7.07s-1.07-5.21-2.931-7.07z"/></symbol><symbol viewBox="0 0 512 512" id="resume" xmlns="http://www.w3.org/2000/svg"><path d="M414.007 148.75c5.522 0 10-4.477 10-10V30c0-16.542-13.458-30-30-30h-364c-16.542 0-30 13.458-30 30v452c0 16.542 13.458 30 30 30h364c16.542 0 30-13.458 30-30v-73.672c0-5.523-4.478-10-10-10s-10 4.477-10 10V482c0 5.514-4.486 10-10 10h-364c-5.514 0-10-4.486-10-10V30c0-5.514 4.486-10 10-10h364c5.514 0 10 4.486 10 10v108.75c0 5.523 4.478 10 10 10z"/><path d="M212.007 54c-50.729 0-92 41.271-92 92 0 26.317 11.11 50.085 28.882 66.869.333.356.687.693 1.074 1 16.371 14.979 38.158 24.13 62.043 24.13 23.885 0 45.672-9.152 62.043-24.13a9.993 9.993 0 001.074-1c17.774-16.784 28.884-40.552 28.884-66.869 0-50.729-41.271-92-92-92zm0 164c-16.329 0-31.399-5.472-43.491-14.668 8.789-15.585 25.19-25.332 43.491-25.332s34.702 9.747 43.491 25.332C243.405 212.528 228.336 218 212.007 218zm-16-76v-6.5c0-8.822 7.178-16 16-16s16 7.178 16 16v6.5c0 8.822-7.178 16-16 16s-16-7.178-16-16zm73.94 46.683a69.375 69.375 0 00-29.463-24.697c4.71-6.087 7.523-13.712 7.523-21.986v-6.5c0-19.851-16.149-36-36-36s-36 16.149-36 36v6.5c0 8.274 2.813 15.899 7.523 21.986a69.375 69.375 0 00-29.463 24.697c-8.829-11.953-14.06-26.716-14.06-42.683 0-39.701 32.299-72 72-72s72 32.299 72 72c0 15.967-5.231 30.73-14.06 42.683zM266.007 438h-54c-5.522 0-10 4.477-10 10s4.478 10 10 10h54c5.522 0 10-4.477 10-10s-4.478-10-10-10zm0-56h-142c-5.522 0-10 4.477-10 10s4.478 10 10 10h142c5.522 0 10-4.477 10-10s-4.478-10-10-10zm0-56h-142c-5.522 0-10 4.477-10 10s4.478 10 10 10h142c5.522 0 10-4.477 10-10s-4.478-10-10-10zM88.366 272.93a10.077 10.077 0 00-7.079-2.93c-2.631 0-5.211 1.07-7.07 2.93-1.86 1.86-2.93 4.44-2.93 7.07s1.069 5.21 2.93 7.07a10.092 10.092 0 007.07 2.93c2.64 0 5.21-1.07 7.079-2.93 1.86-1.86 2.931-4.44 2.931-7.07s-1.07-5.21-2.931-7.07zm0 56a10.095 10.095 0 00-7.079-2.93c-2.631 0-5.2 1.07-7.07 2.93-1.86 1.86-2.93 4.44-2.93 7.07s1.069 5.21 2.93 7.07a10.092 10.092 0 007.07 2.93c2.64 0 5.21-1.07 7.079-2.93 1.86-1.86 2.931-4.44 2.931-7.07s-1.07-5.21-2.931-7.07zm0 56a10.095 10.095 0 00-7.079-2.93c-2.631 0-5.2 1.07-7.07 2.93-1.86 1.86-2.93 4.44-2.93 7.07s1.069 5.21 2.93 7.07a10.072 10.072 0 007.07 2.93c2.64 0 5.22-1.07 7.079-2.93 1.86-1.86 2.931-4.44 2.931-7.07s-1.07-5.21-2.931-7.07zM266.007 270h-142c-5.522 0-10 4.477-10 10s4.478 10 10 10h142c5.522 0 10-4.477 10-10s-4.478-10-10-10zm224.995-139.68c-9.715-5.609-21.033-7.099-31.871-4.196-10.836 2.904-19.894 9.854-25.502 19.569L307.787 363.656a10.016 10.016 0 00-1.278 3.891l-8.858 79.344a10.004 10.004 0 009.937 11.11 9.99 9.99 0 005.931-1.948l64.284-47.344a9.983 9.983 0 002.73-3.052l125.841-217.963c11.58-20.056 4.684-45.794-15.372-57.374zM320.063 426.394l4.626-41.432 28.942 16.71-33.568 24.722zm48.15-39.398l-38.105-22 100.985-174.91 38.105 22-100.985 174.91zm120.841-209.303l-9.857 17.073-38.105-22 9.857-17.073a21.855 21.855 0 0113.358-10.25 21.85 21.85 0 0116.694 2.198 21.855 21.855 0 0110.25 13.358 21.856 21.856 0 01-2.197 16.694z"/></symbol><symbol viewBox="0 0 512 512" id="review" xmlns="http://www.w3.org/2000/svg"><path d="M512 106.667c0-17.673-14.327-32-32-32h-42.667V96H480c5.891 0 10.667 4.776 10.667 10.667V391.35l-53.163-53.163c25.553-45.59 18.946-104.349-19.829-143.125a117.208 117.208 0 00-1.675-1.634V10.667C416 4.776 411.224 0 405.333 0h-224c-.57 0-1.133.058-1.689.147-.122.019-.245.031-.366.055-.161.032-.319.078-.479.117-.18.044-.362.082-.54.136-.115.035-.227.081-.341.119-.217.073-.434.144-.647.232-.086.036-.169.08-.254.118-.233.103-.466.207-.692.327-.08.042-.154.093-.233.138-.224.126-.447.253-.663.397-.117.078-.226.167-.339.249-.169.123-.341.24-.505.374-.275.225-.54.464-.793.717L99.125 77.792A10.662 10.662 0 0096 85.333v213.333H74.667V320h145.625c16.546 46.283 60.774 79.404 112.744 79.403a119.693 119.693 0 0058.535-15.295L423.428 416H32c-5.891 0-10.667-4.776-10.667-10.667V106.667C21.333 100.776 26.109 96 32 96h42.667V74.667H32c-17.673 0-32 14.327-32 32v298.667c0 17.673 14.327 32 32 32h154.146c-5.189 51.275-47.736 53.283-52.813 53.333-5.891 0-10.667 4.776-10.667 10.667s4.776 10.667 10.667 10.667h245.333c5.891 0 10.667-4.776 10.667-10.667s-4.776-10.667-10.667-10.667c-2.006 0-47.392-.648-52.803-53.333h118.874l11.827 11.84a32.334 32.334 0 0022.965 9.493 32.327 32.327 0 0022.933-9.6c6.187-6.202 9.341-14.28 9.48-22.4H512v-320zm-184.651 384H184.651a84.452 84.452 0 0023.369-53.333h95.961a84.446 84.446 0 0023.368 53.333zm-210.016-192V89.749l53.333-53.333v38.251h-21.333V96h32C187.224 96 192 91.224 192 85.333v-64h202.667V177.09A119.696 119.696 0 00333.029 160c-17.637 0-34.382 3.817-49.457 10.667H149.333V192h102.243a120.145 120.145 0 00-24.514 32h-77.729v21.333h69.013a119.675 119.675 0 00-5.016 34.371c0 6.453.518 12.785 1.501 18.962h-97.498zm117.346-18.954c-.007-54.327 44.029-98.373 98.356-98.38a97.706 97.706 0 0169.557 28.8 98.371 98.371 0 0128.823 69.556c.003 26.943-10.83 51.353-28.374 69.121l-.903.902c-17.761 17.528-42.154 28.353-69.079 28.357-54.328.007-98.374-44.029-98.38-98.356zm190.868 76.799l15.726 15.725-15.755 15.755-15.726-15.725 15.755-15.755zm46.112 77.621l-31.056-31.056 15.755-15.755 31.056 31.056a11.119 11.119 0 013.253 7.825v.105a11.119 11.119 0 01-3.253 7.825c-4.355 4.341-11.401 4.341-15.755 0z"/><path d="M279.232 225.899l15.083 15.083c21.4-21.347 56.04-21.347 77.44 0l15.083-15.083c-29.736-29.664-77.87-29.664-107.606 0zM42.667 341.333V384c0 5.891 4.776 10.667 10.667 10.667H96v-21.333H64v-32H42.667zm74.666 32h21.333v21.333h-21.333zm32-256h213.333v21.333H149.333z"/></symbol></svg>