<?xml version="1.0" encoding="utf-8"?><svg xmlns="http://www.w3.org/2000/svg" xmlns:xlink="http://www.w3.org/1999/xlink"><symbol viewBox="0 0 512 512" id="analysis" xmlns="http://www.w3.org/2000/svg"><path d="M326.623 133.062c13.785 0 25-11.215 25-25s-11.215-25.001-25-25.001-25 11.216-25 25.001c0 5.63 1.872 10.83 5.025 15.014l-41.076 57.401a24.9 24.9 0 00-7.784-1.247c-6.569 0-12.551 2.551-17.017 6.709l-27.379-15.536a24.96 24.96 0 00.561-5.257c0-13.785-11.215-25-25-25s-25 11.215-25 25c0 1.803.196 3.561.561 5.257l-27.379 15.536c-4.466-4.158-10.448-6.708-17.017-6.708-13.785 0-25 11.216-25 25.001s11.215 25.001 25 25.001 25-11.216 25-25.001a24.96 24.96 0 00-.561-5.257l27.379-15.536c4.466 4.158 10.448 6.709 17.017 6.709 6.569 0 12.55-2.551 17.017-6.708l27.379 15.536a24.96 24.96 0 00-.561 5.257c0 13.785 11.215 25.001 25 25.001 13.786 0 25.001-11.216 25.001-25.001a24.871 24.871 0 00-5.026-15.016l41.076-57.401a24.923 24.923 0 007.784 1.246zm0-35.001c5.514 0 10 4.486 10 10.001 0 5.514-4.486 10-10 10s-10-4.486-10-10c-.001-5.515 4.485-10.001 10-10.001zm-206.508 116.17c-5.514 0-10-4.486-10-10.001s4.486-10.001 10-10.001 10 4.486 10 10.001-4.486 10.001-10 10.001zm68.836-39.085c-5.514 0-10-4.486-10-10.001 0-5.514 4.486-10 10-10s10 4.486 10 10c.001 5.515-4.486 10.001-10 10.001zm68.836 39.085c-5.514 0-10-4.486-10-10.001s4.486-10.001 10-10.001c5.515 0 10.001 4.486 10.001 10.001s-4.487 10.001-10.001 10.001z"/><path d="M418.796 376.965H21.215A6.222 6.222 0 0115 370.75V61.331a6.222 6.222 0 016.215-6.215h35.356c4.142 0 7.5-3.357 7.5-7.5s-3.358-7.5-7.5-7.5H21.215C9.517 40.116 0 49.633 0 61.331V370.75c0 11.698 9.517 21.215 21.215 21.215h51.713v16.506c0 9.403 7.65 17.053 17.053 17.053h75.074l-35.34 68.998a7.5 7.5 0 0013.35 6.838l38.843-75.836h82.922l38.843 75.836a7.498 7.498 0 0010.094 3.257 7.5 7.5 0 003.256-10.095l-35.34-68.998h75.074c9.403 0 17.053-7.649 17.053-17.053v-16.506h44.986c4.142 0 7.5-3.357 7.5-7.5s-3.358-7.5-7.5-7.5zm-59.986 31.506a2.055 2.055 0 01-2.053 2.053H89.981a2.055 2.055 0 01-2.053-2.053v-16.506H358.81v16.506zM86.571 55.116h338.951a6.222 6.222 0 016.215 6.215v71.311c0 4.143 3.358 7.5 7.5 7.5s7.5-3.357 7.5-7.5V61.331c0-11.698-9.517-21.215-21.215-21.215H264.995V25.374c0-10.375-8.441-18.816-18.817-18.816H200.56c-10.375 0-18.817 8.441-18.817 18.816v14.742H86.571c-4.142 0-7.5 3.357-7.5 7.5s3.358 7.5 7.5 7.5zm110.172-29.742a3.82 3.82 0 013.817-3.816h45.618a3.821 3.821 0 013.817 3.816v14.742h-53.251V25.374z"/><path d="M104.902 267.576a7.5 7.5 0 00-7.5 7.5v66.272a7.5 7.5 0 007.5 7.5h30.427a7.5 7.5 0 007.5-7.5v-66.272a7.5 7.5 0 00-7.5-7.5h-30.427zm22.927 66.273h-15.427v-51.272h15.427v51.272zm45.908-104.601a7.5 7.5 0 00-7.5 7.5v104.601a7.5 7.5 0 007.5 7.5h30.427a7.5 7.5 0 007.5-7.5V236.748a7.5 7.5 0 00-7.5-7.5h-30.427zm22.928 104.601h-15.427v-89.601h15.427v89.601zm45.908-66.273a7.5 7.5 0 00-7.5 7.5v66.272a7.5 7.5 0 007.5 7.5H273a7.5 7.5 0 007.5-7.5v-66.272a7.5 7.5 0 00-7.5-7.5h-30.427zm22.927 66.273h-15.427v-51.272H265.5v51.272zm45.909-22.017a7.5 7.5 0 00-7.5 7.5v22.017a7.5 7.5 0 007.5 7.5h30.427c4.142 0 7.5-3.357 7.5-7.5s-3.358-7.5-7.5-7.5h-22.927v-14.517a7.5 7.5 0 00-7.5-7.5zm196.766 72.187l-43.027-74.526c10.901-11.619 18.839-25.816 23.079-41.64 6.777-25.291 3.299-51.708-9.793-74.384-27.026-46.813-87.097-62.906-133.907-35.881-46.811 27.025-62.906 87.096-35.88 133.907 13.092 22.676 34.231 38.896 59.522 45.674a98.565 98.565 0 0025.53 3.382c7.442 0 14.841-.856 22.077-2.55l43.018 74.528c5.273 9.137 14.875 14.25 24.737 14.249 4.833 0 9.729-1.229 14.208-3.813 8.796-5.077 14.261-14.544 14.261-24.706 0-4.979-1.322-9.902-3.825-14.24zM372.051 322.68c-21.421-5.74-39.326-19.479-50.415-38.685-22.89-39.648-9.257-90.526 30.39-113.417 13.043-7.53 27.296-11.106 41.374-11.106 28.715 0 56.683 14.893 72.043 41.497 11.088 19.206 14.034 41.58 8.294 63.002-5.74 21.422-19.479 39.325-38.685 50.414-19.205 11.089-41.579 14.033-63.001 8.295zm118.191 87.293c-6.453 3.726-14.733 1.508-18.456-4.942l-41.388-71.704a99.523 99.523 0 0012.156-5.951 99.317 99.317 0 0011.23-7.566l41.4 71.707A13.528 13.528 0 01497 398.26a13.56 13.56 0 01-6.758 11.713z"/><path d="M461.542 263.611c5.295-17.056 4.034-35.316-3.551-51.416a7.5 7.5 0 10-13.569 6.392c5.983 12.7 6.976 27.109 2.795 40.575-4.204 13.54-13.286 24.903-25.573 31.997-13.002 7.508-28.151 9.5-42.652 5.615-14.502-3.886-26.624-13.187-34.13-26.189-15.497-26.841-6.267-61.285 20.574-76.782a56.131 56.131 0 0162.051 3.857 7.498 7.498 0 0010.506-1.455 7.5 7.5 0 00-1.456-10.506 71.1 71.1 0 00-78.602-4.887c-16.472 9.51-28.255 24.866-33.178 43.238s-2.396 37.562 7.114 54.034c9.51 16.473 24.866 28.255 43.238 33.179a71.6 71.6 0 0018.546 2.457c12.338 0 24.517-3.236 35.488-9.571 15.567-8.986 27.073-23.382 32.399-40.538z"/></symbol><symbol viewBox="0 0 489.604 489.604" id="construction-worker" xmlns="http://www.w3.org/2000/svg"><path d="M262.746 250.826c10.223 2.382 20.56-3.992 22.927-14.345 1.119-4.895.146-9.741-2.172-13.775l9.212-37.695 11.506 2.817a7.977 7.977 0 007.021-1.649 7.926 7.926 0 002.818-6.639l-5.251-76.983a4.29 4.29 0 00-3.262-3.873 4.297 4.297 0 00-4.672 1.938l-40.16 65.879a7.982 7.982 0 00-.571 7.189 8.025 8.025 0 005.488 4.697l11.5 2.808-7.808 31.901-40.158-9.239-45.246-66.268c-5.409-7.929-13.472-8.473-23.134-8.473V279.24h22.958v171.363H137.84V329.902h-16.721v120.702H75.216V279.241h22.945V129.117c-11.074 0-20.128 1.233-24.734 11.32L9.648 280.135c-4.381 9.607-.159 20.943 9.473 25.328 9.553 4.378 20.925.191 25.331-9.456l30.813-67.509v34.695h-.049c-8.865 0-16.045 7.184-16.045 16.048v171.363c0 8.863 7.181 16.048 16.045 16.048 0 12.672 10.271 22.952 22.945 22.952 12.668 0 22.958-10.28 22.958-22.952 3.054 0 5.92-.863 8.367-2.352a15.934 15.934 0 008.354 2.352c0 12.672 10.271 22.952 22.945 22.952 12.668 0 22.958-10.28 22.958-22.952 8.865 0 16.045-7.185 16.045-16.048V279.241c0-8.865-7.18-16.048-16.045-16.048h-.05V205.09l18.097 26.511a19.089 19.089 0 0011.5 7.856l49.456 11.369z"/><path d="M114.225 129.117h30.527v64.535h-30.527zM84.817 76.286c.257 24.469 20.129 44.23 44.669 44.23 24.527 0 44.418-19.761 44.673-44.23 8.653-.231 15.644-7.247 15.644-15.975C189.803 27.056 162.732 0 129.486 0 96.209 0 69.15 27.056 69.15 60.311c0 8.729 6.997 15.744 15.667 15.975zm12.572-46.319v4.545a8.018 8.018 0 008.02 8.023c4.429 0 8.014-3.593 8.014-8.023V19.161c2.58-1.001 5.251-1.792 8.031-2.307v17.658a8.02 8.02 0 008.033 8.023c4.417 0 8.018-3.593 8.018-8.023V16.854a44.034 44.034 0 018.014 2.307v15.351a8.02 8.02 0 008.032 8.023c4.429 0 8.032-3.593 8.032-8.023v-4.545c7.489 7.929 12.157 18.561 12.157 30.344H85.201c0-11.783 4.674-22.415 12.188-30.344zm247.902 405.5h-98.973a8.015 8.015 0 00-8.032 8.023v35.872a8.018 8.018 0 008.032 8.022h98.973c4.411 0 8.013-3.589 8.013-8.022V443.49c0-4.438-3.602-8.023-8.013-8.023zm128.38 0h-98.973a8.015 8.015 0 00-8.032 8.023v35.872a8.017 8.017 0 008.032 8.022h98.973c4.411 0 8.014-3.589 8.014-8.022V443.49c0-4.438-3.603-8.023-8.014-8.023zm0-128.389h-98.973a8.022 8.022 0 00-8.032 8.027v35.869a8.015 8.015 0 008.032 8.026h98.973c4.411 0 8.014-3.584 8.014-8.026v-35.869c0-4.434-3.603-8.027-8.014-8.027zm-128.38 0h-98.973a8.022 8.022 0 00-8.032 8.027v35.869a8.015 8.015 0 008.032 8.026h98.973c4.411 0 8.013-3.584 8.013-8.026v-35.869c0-4.434-3.602-8.027-8.013-8.027zm-42.818 72.217v35.878a8.018 8.018 0 008.032 8.022h98.973c4.417 0 8.02-3.59 8.02-8.022v-35.878c0-4.433-3.603-8.026-8.02-8.026h-98.973a8.021 8.021 0 00-8.032 8.026zm0-128.382v35.869a8.015 8.015 0 008.032 8.026h98.973a8.024 8.024 0 008.02-8.026v-35.869c0-4.432-3.603-8.025-8.02-8.025h-98.973a8.02 8.02 0 00-8.032 8.025zm171.198 120.356h-37.475c-4.43 0-8.014 3.593-8.014 8.026v35.878a8.014 8.014 0 008.014 8.022h37.475c4.411 0 8.014-3.59 8.014-8.022v-35.878c0-4.433-3.603-8.026-8.014-8.026zm0-128.381h-37.475c-4.43 0-8.014 3.593-8.014 8.025v35.869a8.01 8.01 0 008.014 8.026h37.475c4.411 0 8.014-3.583 8.014-8.026v-35.869c0-4.432-3.603-8.025-8.014-8.025z"/></symbol><symbol viewBox="0 0 26 26" id="email" xmlns="http://www.w3.org/2000/svg"><g clip-path="url(#cclip0)"><path d="M23.27 3.684H2.666A2.2 2.2 0 00.469 5.881v14.648a2.2 2.2 0 002.197 2.198h20.606a2.2 2.2 0 002.197-2.198V5.881a2.2 2.2 0 00-2.197-2.197zm-.303 1.464l-9.952 9.953-10.04-9.953h19.992zM1.933 20.226V6.177l7.054 6.994-7.054 7.055zm1.036 1.036l7.059-7.06 2.473 2.453a.732.732 0 001.034-.002l2.411-2.412 7.021 7.02H2.97zm21.034-1.036l-7.02-7.02 7.02-7.022v14.042z"/></g><defs><clipPath id="cclip0"><path transform="translate(.468 .705)" d="M0 0h25v25H0z"/></clipPath></defs></symbol><symbol viewBox="0 0 64 64" id="firewall" xmlns="http://www.w3.org/2000/svg"><path d="M32 50a18 18 0 1118-18 18.021 18.021 0 01-18 18zm0-34a16 16 0 1016 16 16.019 16.019 0 00-16-16z"/><path d="M39 28v-3a7 7 0 00-14 0v3a3 3 0 00-3 3v10a3 3 0 003 3h14a3 3 0 003-3V31a3 3 0 00-3-3zm-12-3a5 5 0 0110 0v3h-1v-3a4 4 0 00-8 0v3h-1zm7 3h-4v-3a2 2 0 014 0zm6 13a1 1 0 01-1 1H25a1 1 0 01-1-1V31a1 1 0 011-1h14a1 1 0 011 1z"/><path d="M32 31a2.993 2.993 0 00-1 5.816V40a1 1 0 002 0v-3.184A2.993 2.993 0 0032 31zm0 4a1 1 0 111-1 1 1 0 01-1 1zm29 27H45a1 1 0 01-1-1v-8a1 1 0 011-1h16a1 1 0 011 1v8a1 1 0 01-1 1zm-15-2h14v-6H46zm-27 2H3a1 1 0 01-1-1v-8a1 1 0 011-1h16a1 1 0 011 1v8a1 1 0 01-1 1zM4 60h14v-6H4zm7.61-22H3a1 1 0 01-1-1V27a1 1 0 011-1h8.61a1 1 0 01.97 1.243 19.8 19.8 0 000 9.514A1 1 0 0111.61 38zM4 36h6.369a21.865 21.865 0 010-8H4zm57 2h-8.61a1 1 0 01-.97-1.243 19.8 19.8 0 000-9.514A1 1 0 0152.39 26H61a1 1 0 011 1v10a1 1 0 01-1 1zm-7.369-2H60v-8h-6.369a21.865 21.865 0 010 8zM61 50H44.31a1 1 0 01-.587-1.81 20.143 20.143 0 006.344-7.62 1 1 0 01.9-.57H61a1 1 0 011 1v8a1 1 0 01-1 1zm-13.919-2H60v-6h-8.409a22.187 22.187 0 01-4.51 6zM19.69 50H3a1 1 0 01-1-1v-8a1 1 0 011-1h10.03a1 1 0 01.9.57 20.143 20.143 0 006.344 7.62A1 1 0 0119.69 50zM4 48h12.919a22.187 22.187 0 01-4.51-6H4zm57-24H50.97a1 1 0 01-.9-.57 20.143 20.143 0 00-6.344-7.62A1 1 0 0144.31 14H61a1 1 0 011 1v8a1 1 0 01-1 1zm-9.409-2H60v-6H47.081a22.187 22.187 0 014.51 6zM13.03 24H3a1 1 0 01-1-1v-8a1 1 0 011-1h16.69a1 1 0 01.587 1.81 20.143 20.143 0 00-6.344 7.62 1 1 0 01-.903.57zM4 22h8.409a22.187 22.187 0 014.51-6H4zm37 40H23a1 1 0 01-1-1v-8a1 1 0 011-1h18a1 1 0 011 1v8a1 1 0 01-1 1zm-17-2h16v-6H24zm37-48H45a1 1 0 01-1-1V3a1 1 0 011-1h16a1 1 0 011 1v8a1 1 0 01-1 1zm-15-2h14V4H46zm-27 2H3a1 1 0 01-1-1V3a1 1 0 011-1h16a1 1 0 011 1v8a1 1 0 01-1 1zM4 10h14V4H4zm37 2H23a1 1 0 01-1-1V3a1 1 0 011-1h18a1 1 0 011 1v8a1 1 0 01-1 1zm-17-2h16V4H24z"/></symbol><symbol viewBox="-26 0 512 512.001" id="goal" xmlns="http://www.w3.org/2000/svg"><path d="M457.086 68.828l-21.879-19.266 21.879-19.261c3.402-3 4.566-7.676 2.969-11.918-1.606-4.246-5.57-6.988-10.106-6.988H359.41V7.504a7.504 7.504 0 10-15.008 0v101.203l-61.629 33.465a23.741 23.741 0 00-2.437-7.883l-8.684-16.953c-5.96-11.64-20.28-16.254-31.914-10.297l-6.715 3.438c-5.64 2.89-9.816 7.796-11.761 13.828a23.54 23.54 0 001.465 18.09l8.683 16.957a23.567 23.567 0 008.547 9.285c-4.61 6.207-6.797 13.84-9.047 21.77l-1.617 5.726a7.5 7.5 0 005.18 9.262 7.4 7.4 0 002.043.285 7.509 7.509 0 007.218-5.465l1.618-5.715c3.289-11.598 5.308-17.809 11.738-21.3l11.527-6.262 1.422-.727c.473-.242.914-.516 1.363-.785l82.157-44.613c-.52 10.269-6.047 19.972-15.149 25.5l-53.426 32.46c-.062.036-.125.07-.183.11l-16.63 10.101a7.51 7.51 0 00-2.515 10.313c2.028 3.34 6.246 4.527 9.688 2.851l-12.617 38.141-9.223 3.781-25.078 10.278 7.226-25.547a7.51 7.51 0 00-5.18-9.266c-3.992-1.133-8.136 1.192-9.265 5.18l-11.418 40.379a7.204 7.204 0 00-.27 1.633l-2.988 54.89c-.09 2.094.356 6.051-.613 8.094l-33.188 69.82h-24.117c-14.129 0-25.62 11.492-25.62 25.617v21.66a25.417 25.417 0 00-10.61-2.308H51.137c-14.125 0-25.617 11.488-25.617 25.617v26.875H7.504a7.504 7.504 0 100 15.008H449.94a7.504 7.504 0 100-15.008h-19.515V303.574c0-14.125-11.492-25.617-25.617-25.617H359.41v-130.91c8.32-11.277 11.403-26.059 7.54-40.106a7.49 7.49 0 00-4.298-4.914 7.517 7.517 0 00-3.242-.593v-13.7h90.535c4.54 0 8.504-2.742 10.106-6.984 1.601-4.242.437-8.922-2.965-11.922zm-221.54 60.086a8.645 8.645 0 014.317-5.078l6.715-3.438a8.645 8.645 0 013.953-.957c3.164 0 6.223 1.73 7.762 4.735l8.687 16.957c2.028 3.96.715 8.762-2.89 11.187l-2.445 1.325-5.16 2.644c-4.27 2.188-9.528.492-11.715-3.781l-8.688-16.953a8.65 8.65 0 01-.535-6.64zM220.47 401.84a25.471 25.471 0 00-8.239-2.195l8.239-10.942zm35.629-60.465c3.609-4.324 4.605-9.375 5.41-13.445.203-.97 3.906-21.196 3.906-21.196s3.504 2.184 3.871 2.34a.797.797 0 01.461.656l4.082 41.497H248.68zm44.375-41.418l-6.336 51.234h-5.23l-4.223-42.93a15.81 15.81 0 00-8.84-12.687l-7.547-4.785 5.027-27.863s21.18 25.16 21.672 25.8c4.383 5.7 5.883 7.981 5.477 11.231zm-81.055 36.316c1.516-4.562 2.219-9.207 2.102-13.93l2.726-50.062 34.707-14.222-6.308 34.945c-.02.094-.04.191-.051.285l-5.219 28.895c-.68 2.992-1.273 7.53-3.14 9.996l-50.708 67.351h-4.18zm-178.89 133.84c0-5.847 4.757-10.605 10.609-10.605h61.246c5.851 0 10.613 4.758 10.613 10.605v26.88h-82.47zm97.472 0v-44.965c0-5.851 4.762-10.609 10.613-10.609h61.246c5.852 0 10.61 4.758 10.61 10.61v71.843h-82.465v-26.879zm277.418-166.539v193.418h-82.465V452a7.504 7.504 0 00-7.504-7.504 7.504 7.504 0 00-7.508 7.504v44.992h-82.464V376.84c0-5.848 4.757-10.606 10.609-10.606h61.246c5.852 0 10.61 4.758 10.61 10.606v37.617a7.504 7.504 0 007.503 7.504 7.501 7.501 0 007.504-7.504V303.574c0-5.851 4.762-10.61 10.614-10.61h8.265c.024 0 .05.005.078.005.024 0 .051-.004.074-.004h52.825c5.851 0 10.613 4.762 10.613 10.61zm-71.855-25.617c-14.125 0-25.618 11.492-25.618 25.617v49.961a25.4 25.4 0 00-8.699-2.23l6.121-49.5c1.203-9.649-3.719-16.043-8.476-22.23-.504-.657-29.672-35.29-29.672-35.29l17.894-54.101 49.29-29.946v117.719zM359.41 72.723V26.406h79.387l-17.098 15.055a10.805 10.805 0 00-3.664 8.105c0 3.102 1.336 6.055 3.664 8.106l17.098 15.055H359.41zm0 0"/></symbol><symbol viewBox="0 -9 418.935 418" id="growth" xmlns="http://www.w3.org/2000/svg"><path d="M208.07 400.227c-14.593 0-29.18-2.942-42.687-8.817l-64.59-28.078a244.932 244.932 0 00-73.434-19.137l-21.21-2.12A6.824 6.824 0 010 335.28v-66.535c0-1.476.48-2.914 1.367-4.094 1.586-2.12 39.602-51.785 97.672-38.863 32.66 7.258 58.957 20.84 75.266 30.957 11.84 7.344 25.718 11.223 40.136 11.223h64.59c11.133 0 20.918 5.89 26.39 14.726l55.63-64.09c10.785-14.402 28.43-23.222 46.902-23.222h4.156a6.819 6.819 0 015.715 3.094 6.833 6.833 0 01.535 6.48L368.047 319.3c-11 25.008-33.399 43.898-59.91 50.527l-8.852 2.211-51.492 20.598c-12.672 5.066-26.2 7.59-39.723 7.59zM13.656 329.102l15.063 1.507a258.707 258.707 0 0177.523 20.204l64.586 28.078c22.711 9.875 48.902 10.261 71.899 1.062l51.914-20.765c.289-.114.582-.208.882-.282l9.301-2.328c22.45-5.613 41.414-21.605 50.723-42.777l45.89-104.293c-11.75 1.73-22.562 8.062-29.765 17.664l-61.625 71.023c.008.266.012.528.012.797 0 17.106-13.918 31.024-31.024 31.024h-90.117a108.65 108.65 0 00-34.406 5.582l-2.508-6.368-2.121-6.488.347-.113a122.204 122.204 0 0138.688-6.27h90.117c9.574 0 17.371-7.793 17.371-17.37s-7.793-17.372-17.37-17.372h-64.59c-16.966 0-33.333-4.59-47.333-13.273-15.406-9.559-40.242-22.383-71.027-29.23-43.977-9.755-75.621 23.995-82.426 32.046v57.942zM268.867 193.84c-10.5 0-22.273-3.242-35.234-9.723a6.867 6.867 0 01-3.375-3.808c-.528-1.48-12.727-36.57 6.66-62.52 14.09-18.863 40.582-27.36 78.785-25.23a6.817 6.817 0 016.434 6.476c.136 2.711 2.953 66.7-29.676 88.004-6.938 4.535-14.82 6.8-23.594 6.8zm-26.527-20.68c17.933 8.41 32.27 9.235 42.66 2.45 19.348-12.637 23.531-50.15 23.633-69.673-29.934-.73-50.313 6.016-60.778 20.02-12.453 16.676-7.613 39.613-5.515 47.203zm-77.88-68.77c-12.105 0-26.07-2.593-38.257-11.519-20.672-15.148-30.172-43.988-28.242-85.715a6.83 6.83 0 016.418-6.5c2.953-.168 72.851-3.898 96.371 31.407 10.953 16.433 10.055 37.957-2.66 63.984a6.817 6.817 0 01-3.778 3.41c-.917.34-13.734 4.934-29.851 4.934zm27.497-11.34h.066zm-80.559-78.96c-.59 33.422 7.094 56.203 22.872 67.765 18.89 13.84 44.683 7.957 52.792 5.594 9.278-20.133 10.063-36.207 2.329-47.816-14.375-21.578-56.532-25.797-77.993-25.543zm0 0"/><path d="M217.777 279.219a6.826 6.826 0 01-6.824-7.172 292.322 292.322 0 012.024-22.867c2.84-48.313 1.375-160.82-69.758-191.946a6.829 6.829 0 01-3.52-8.992c1.508-3.449 5.543-5.023 8.992-3.515 41.918 18.34 68.29 64 76.246 132.043a370.792 370.792 0 011.649 17.964c18.734-47.34 47.394-64.066 49.101-65.023 3.282-1.856 7.446-.676 9.297 2.601 1.84 3.282.684 7.434-2.586 9.286-.722.422-44.671 26.797-55.703 108.132-.84 13.915-2.05 22.786-2.164 23.598a6.825 6.825 0 01-6.754 5.89zm0 0"/></symbol><symbol viewBox="0 0 496 496" id="hiring" xmlns="http://www.w3.org/2000/svg"><path d="M176 248c17.648 0 32-14.352 32-32h-16c0 8.824-7.176 16-16 16s-16-7.176-16-16h-16c0 17.648 14.352 32 32 32zm-32-80a8 8 0 11-16 0 8 8 0 0116 0zm80 0a8 8 0 11-16 0 8 8 0 0116 0zm0 0"/><path d="M272 240v63.566l-40-13.336v-22.406a88.134 88.134 0 0028.71-44.304C280.528 221.16 296 204.44 296 184v-64C296 53.832 242.168 0 176 0S56 53.832 56 120v64c0 20.441 15.473 37.16 35.29 39.52A88.134 88.134 0 00120 267.824v22.406l-81.71 27.25A55.913 55.913 0 000 370.594V448h272v48h224V292.687L443.312 240zm176 27.313L468.688 288H448zm-209.23 42.039l-12.196 60.945-38.238-27.32 37.824-37.825zm24.894-102.72c.168-2.198.336-4.394.336-6.632v-38.527c9.29 3.312 16 12.113 16 22.527 0 10.535-6.871 19.414-16.336 22.633zM72 184c0-10.414 6.71-19.215 16-22.527V200c0 2.238.168 4.434.336 6.633C78.87 203.414 72 194.535 72 184zm17.535-39.344c-6.527 1.07-12.472 3.719-17.535 7.551V120c0-57.344 46.656-104 104-104s104 46.656 104 104v32.207c-5.063-3.832-11.008-6.48-17.535-7.55C257.44 125.886 240.328 112 220 112c-9.465 0-18.832 3.129-26.398 8.809L176 134l-17.594-13.191C150.832 115.129 141.465 112 132 112c-20.328 0-37.441 13.887-42.465 32.656zM104 200v-44c0-15.441 12.559-28 28-28 6.023 0 11.984 1.992 16.809 5.602L176 154l27.2-20.398A28.184 28.184 0 01220 128c15.441 0 28 12.559 28 28v44c0 39.703-32.297 72-72 72s-72-32.297-72-72zm72 88c14.406 0 27.984-3.55 40-9.71v14.397l-40 40-40-40V278.29c12.016 6.16 25.594 9.711 40 9.711zm-50.16 17.152l37.824 37.825-38.238 27.32-12.196-60.945zM80 432v-48H64v48H16v-61.406a39.945 39.945 0 0127.352-37.946l54.586-18.191 16.648 83.246L176 353.832l61.426 43.871 16.644-83.246 17.93 5.969V432zm208 48V256h144v48h48v176zm0 0"/><path d="M384 464h80v-80h-80zm16-64h48v48h-48zm-96 48h64v16h-64zm0-32h64v16h-64zm0-32h64v16h-64zm0-112h16v16h-16zm32 0h80v16h-80zm-32 32h112v16H304zm144 32h16v16h-16zm-144 0h128v16H304zm104-112c48.52 0 88-39.48 88-88 0-19.008-6.121-36.586-16.406-50.984l14.3-15.61-11.796-10.812-13.02 14.199C453.238 57.48 431.718 48 408 48c-48.52 0-88 39.48-88 88s39.48 88 88 88zm0-160c19.559 0 37.305 7.863 50.29 20.566l-59.138 64.512-34.16-27.324-10 12.492 45.84 36.676 67.656-73.809C475.742 108.343 480 121.672 480 136c0 39.703-32.297 72-72 72s-72-32.297-72-72 32.297-72 72-72zm0 0"/></symbol><symbol viewBox="0 0 512 512" id="interview" xmlns="http://www.w3.org/2000/svg"><path d="M62.74 494.93a10.071 10.071 0 00-7.07-2.93c-2.64 0-5.21 1.069-7.07 2.93-1.87 1.86-2.93 4.44-2.93 7.07s1.06 5.21 2.93 7.069A10.06 10.06 0 0055.67 512c2.63 0 5.21-1.07 7.07-2.931 1.859-1.859 2.93-4.439 2.93-7.069s-1.07-5.21-2.93-7.07zm310.329-70.67c-1.859-1.861-4.439-2.93-7.069-2.93s-5.21 1.069-7.07 2.93a10.077 10.077 0 00-2.93 7.07c0 2.64 1.069 5.21 2.93 7.069 1.86 1.86 4.44 2.931 7.07 2.931s5.21-1.07 7.069-2.931A10.057 10.057 0 00376 431.33c0-2.63-1.07-5.21-2.931-7.07z"/><path d="M479.747 161.62C487.314 154.02 492 143.547 492 132v-8c0-23.159-18.841-42-42-42s-42 18.841-42 42v8c0 11.549 4.687 22.022 12.256 29.623-16.413 9.014-28.333 25.234-31.45 44.377H343c-16.542 0-30 13.458-30 30 0 3.506.61 6.87 1.72 10H197.28a29.857 29.857 0 001.72-10c0-16.542-13.458-30-30-30h-45.806c-3.117-19.143-15.037-35.364-31.45-44.377C99.313 154.022 104 143.549 104 132v-8c0-23.159-18.841-42-42-42s-42 18.841-42 42v8c0 11.547 4.686 22.02 12.253 29.62C13.049 172.167 0 192.586 0 216v112.167C0 359.505 25.495 385 56.833 385H136v95.5c0 4.058.78 7.935 2.183 11.5H98.667c-5.522 0-10 4.478-10 10s4.478 10 10 10h357.666c5.522 0 10-4.478 10-10s-4.478-10-10-10h-82.516A31.332 31.332 0 00376 480.5V469c0-5.522-4.478-10-10-10s-10 4.478-10 10v11.5c0 6.341-5.159 11.5-11.5 11.5s-11.5-5.159-11.5-11.5V354.25c0-15.577 12.673-28.25 28.25-28.25H492v2.167c0 20.31-16.523 36.833-36.833 36.833H366c-5.522 0-10 4.478-10 10v16c0 5.522 4.478 10 10 10s10-4.478 10-10v-6h79.167C486.505 385 512 359.505 512 328.167V216c0-23.414-13.049-43.833-32.253-54.38zM428 124c0-12.131 9.869-22 22-22s22 9.869 22 22v8c0 12.131-9.869 22-22 22s-22-9.869-22-22v-8zm-388 0c0-12.131 9.869-22 22-22s22 9.869 22 22v8c0 12.131-9.869 22-22 22s-22-9.869-22-22v-8zm-20 92c0-23.159 18.841-42 42-42s42 18.841 42 42c0 5.522 4.478 10 10 10h55c5.514 0 10 4.486 10 10s-4.486 10-10 10h-58.235a42.986 42.986 0 01-37.95-22.723c-2.607-4.868-8.669-6.701-13.537-4.092-4.868 2.607-6.7 8.668-4.092 13.537a62.943 62.943 0 0049.373 32.974A9.986 9.986 0 00104 269v37H20v-90zm123.382 90H124v-37a9.98 9.98 0 00-.458-3h19.84A39.742 39.742 0 00138 286a39.732 39.732 0 005.382 20zM179 480.5c0 6.341-5.159 11.5-11.5 11.5s-11.5-5.159-11.5-11.5V375c0-5.522-4.478-10-10-10H56.833C36.523 365 20 348.477 20 328.167V326h130.75c15.577 0 28.25 12.673 28.25 28.25V480.5zm47 11.5h-29.183A31.311 31.311 0 00199 480.5V354.25c0-10.544-3.409-20.302-9.171-28.25H226v166zm40 0h-20V326h20v166zm49.183 0H286V326h36.171c-5.761 7.948-9.171 17.706-9.171 28.25V480.5c0 4.058.78 7.935 2.183 11.5zM334 306H178c-11.028 0-20-8.972-20-20s8.972-20 20-20h156c11.028 0 20 8.972 20 20s-8.972 20-20 20zm54-37v37h-19.382A39.742 39.742 0 00374 286a39.732 39.732 0 00-5.382-20h19.84a9.98 9.98 0 00-.458 3zm104 37h-84v-37c0-1.157-.197-2.27-.559-3.304a62.943 62.943 0 0049.373-32.974c2.608-4.869.776-10.93-4.092-13.537-4.87-2.608-10.929-.774-13.537 4.092A42.986 42.986 0 01401.235 246H343c-5.514 0-10-4.486-10-10s4.486-10 10-10h55c5.522 0 10-4.478 10-10 0-23.159 18.841-42 42-42s42 18.841 42 42v90z"/><path d="M328 0H184c-16.542 0-30 13.458-30 30v98c0 16.542 13.458 30 30 30h34.857l30.071 30.071C250.882 190.023 253.44 191 256 191s5.118-.977 7.071-2.929L293.143 158H328c16.542 0 30-13.458 30-30V30c0-16.542-13.458-30-30-30zm10 128c0 5.514-4.486 10-10 10h-39a10.003 10.003 0 00-7.071 2.929L256 166.857l-25.929-25.929A10.006 10.006 0 00223 138h-39c-5.514 0-10-4.486-10-10V30c0-5.514 4.486-10 10-10h144c5.514 0 10 4.486 10 10v98z"/><path d="M216.069 68.1c-1.859-1.87-4.439-2.93-7.069-2.93s-5.21 1.06-7.07 2.93c-1.86 1.86-2.93 4.44-2.93 7.07s1.069 5.21 2.93 7.07c1.86 1.86 4.44 2.93 7.07 2.93s5.21-1.07 7.069-2.93c1.86-1.86 2.931-4.44 2.931-7.07s-1.07-5.21-2.931-7.07zm47 0c-1.859-1.859-4.439-2.93-7.069-2.93s-5.21 1.07-7.07 2.93c-1.86 1.86-2.93 4.44-2.93 7.07s1.069 5.21 2.93 7.07c1.86 1.86 4.44 2.93 7.07 2.93s5.21-1.07 7.069-2.93c1.86-1.86 2.931-4.44 2.931-7.07s-1.07-5.21-2.931-7.07zm47 0c-1.859-1.87-4.439-2.93-7.069-2.93s-5.21 1.06-7.07 2.93c-1.86 1.86-2.93 4.44-2.93 7.07s1.069 5.21 2.93 7.07c1.86 1.86 4.44 2.93 7.07 2.93s5.21-1.07 7.069-2.93c1.86-1.86 2.931-4.44 2.931-7.07s-1.07-5.21-2.931-7.07z"/></symbol><symbol viewBox="0 0 310 310" id="linkedin" xmlns="http://www.w3.org/2000/svg"><path d="M72.16 99.73H9.927a5 5 0 00-5 5v199.928a5 5 0 005 5H72.16a5 5 0 005-5V104.73a5 5 0 00-5-5zM41.066.341C18.422.341 0 18.743 0 41.362 0 63.991 18.422 82.4 41.066 82.4c22.626 0 41.033-18.41 41.033-41.038C82.1 18.743 63.692.341 41.066.341zm189.388 94.42c-24.995 0-43.472 10.745-54.679 22.954V104.73a5 5 0 00-5-5h-59.599a5 5 0 00-5 5v199.928a5 5 0 005 5h62.097a5 5 0 005-5V205.74c0-33.333 9.054-46.319 32.29-46.319 25.306 0 27.317 20.818 27.317 48.034v97.204a5 5 0 005 5H305a5 5 0 005-5V194.995c0-49.565-9.451-100.234-79.546-100.234z"/></symbol><symbol viewBox="0 0 512.014 512.014" id="money-bag" xmlns="http://www.w3.org/2000/svg"><path d="M124.672 280.602c-18.283-17.323-91.392-22.933-113.365-24.235-2.987-.107-5.824.875-7.957 2.88A10.666 10.666 0 000 267.013v192c0 5.888 4.779 10.667 10.667 10.667h64c4.608 0 8.704-2.965 10.133-7.36 1.557-4.779 38.315-117.589 43.157-173.056.278-3.243-.917-6.443-3.285-8.662zM66.88 448.346H21.333V278.448c34.283 2.709 71.275 8.597 84.715 15.125-5.653 46.72-31.232 129.728-39.168 154.773z"/><path d="M510.891 411.589c-14.827-29.632-47.595-44.715-79.744-36.672l-81.728 20.437c-5.717 1.429-9.195 7.211-7.765 12.928 1.429 5.717 7.211 9.195 12.928 7.765l81.728-20.437c18.667-4.629 37.632 1.877 49.387 16.128l-105.749 48.085c-89.707 36.757-92.8 35.584-131.243 21.077l-160-53.333a10.622 10.622 0 00-13.483 6.741c-1.856 5.589 1.152 11.627 6.741 13.483l159.595 53.205c17.941 6.763 30.315 10.688 44.224 10.688 21.632-.021 46.976-9.472 102.656-32.277l117.333-53.333a10.65 10.65 0 005.632-6.144c.96-2.752.789-5.739-.512-8.341z"/><path d="M311.637 341.936l-192-42.667c-5.653-1.216-11.456 2.347-12.736 8.107-1.259 5.76 2.347 11.456 8.107 12.736l191.723 42.603c23.637 5.909 33.131 15.211 34.432 34.688l-20.48 5.12c-7.573 1.92-15.659 2.112-23.381.555l-92.544-18.517c-5.888-1.237-11.392 2.581-12.544 8.363-1.152 5.781 2.581 11.392 8.363 12.544l92.565 18.517c4.8.96 9.728 1.429 14.635 1.429 6.101 0 12.224-.747 18.091-2.219l28.715-7.168a10.675 10.675 0 008.085-10.347v-3.371c-.001-32.939-15.639-51.541-51.031-60.373z"/><path d="M403.136 175.237a10.703 10.703 0 00-8.491-4.203H223.979a10.661 10.661 0 00-8.512 4.245c-2.176 2.88-53.397 71.296-76.096 130.24-2.112 5.483.619 11.648 6.123 13.781 5.44 2.091 11.648-.619 13.781-6.123 18.496-48.064 58.624-105.003 70.101-120.832h159.957c25.003 33.664 80 116.8 80 160 0 10.347-1.109 20.587-3.285 30.379-1.259 5.76 2.347 11.456 8.107 12.736.768.171 1.557.256 2.325.256 4.885 0 9.28-3.392 10.389-8.363 2.517-11.307 3.797-23.083 3.797-35.008.001-61.503-83.946-172.436-87.53-177.108zm-8.469-46.891H224c-5.888 0-10.667 4.779-10.667 10.667S218.112 149.68 224 149.68h170.667c5.888 0 10.667-4.779 10.667-10.667s-4.779-10.667-10.667-10.667zM444.885 3.461c-3.264-3.264-8.192-4.032-12.309-2.005l-78.464 39.232-37.227-37.227c-4.16-4.16-10.923-4.16-15.083 0l-37.227 37.227-78.463-39.233c-4.096-2.048-9.067-1.259-12.309 2.005a10.678 10.678 0 00-2.005 12.331l42.667 85.333a10.684 10.684 0 009.536 5.888h170.667c4.032 0 7.723-2.283 9.557-5.909l42.667-85.333a10.68 10.68 0 00-2.007-12.309zm-56.81 82.218H230.592l-25.408-50.816 56.725 28.352c4.096 2.027 9.045 1.259 12.309-2.005l35.115-35.115 35.136 35.115a10.623 10.623 0 0012.309 2.005l56.704-28.352-25.407 50.816z"/><path d="M311.552 299.247l-2.347-.448c-21.717-4.011-31.851-10.709-31.851-21.12 0-11.563 14.656-21.333 32.021-21.333 16.704 0 31.061 9.067 32 20.181.491 5.867 5.867 10.453 11.52 9.728 5.867-.491 10.219-5.653 9.728-11.52-1.92-22.656-24.811-39.723-53.269-39.723-29.419 0-53.355 19.136-53.355 42.667 0 21.909 16.576 36.075 51.2 42.453l2.325.427c21.696 4.011 31.808 10.709 31.808 21.12 0 5.995-3.84 10.453-7.061 13.163-4.523 3.776-5.12 10.517-1.344 15.019a10.668 10.668 0 008.192 3.819c2.411 0 4.843-.811 6.869-2.475 9.472-7.936 14.699-18.411 14.699-29.504.001-21.931-16.575-36.075-51.135-42.454z"/><path d="M309.333 213.679c-5.888 0-10.667 4.779-10.667 10.667V341.68c0 5.888 4.779 10.667 10.667 10.667S320 347.568 320 341.68V224.346c0-5.888-4.779-10.667-10.667-10.667z"/></symbol><symbol viewBox="0 0 26 26" id="placeholder" xmlns="http://www.w3.org/2000/svg"><g clip-path="url(#kclip0)"><path d="M13.257.595c-4.846 0-8.79 3.943-8.79 8.789a8.77 8.77 0 001.313 4.622l6.977 11.243a.732.732 0 00.622.346h.006a.732.732 0 00.622-.356l6.8-11.352a8.778 8.778 0 001.239-4.503c0-4.846-3.943-8.789-8.789-8.789zm6.292 12.54l-6.181 10.32-6.343-10.221a7.315 7.315 0 01-1.102-3.85c0-4.039 3.295-7.334 7.334-7.334s7.33 3.295 7.33 7.334a7.317 7.317 0 01-1.038 3.75z"/><path d="M13.257 4.99a4.4 4.4 0 00-4.395 4.394 4.389 4.389 0 004.395 4.395 4.386 4.386 0 004.394-4.395 4.4 4.4 0 00-4.394-4.395zm0 7.333a2.942 2.942 0 01-2.94-2.939 2.95 2.95 0 012.94-2.94 2.946 2.946 0 012.935 2.94 2.936 2.936 0 01-2.935 2.94z"/></g><defs><clipPath id="kclip0"><path transform="translate(.757 .595)" d="M0 0h25v25H0z"/></clipPath></defs></symbol><symbol viewBox="0 0 470 470" id="quality" xmlns="http://www.w3.org/2000/svg"><path d="M429.591 418.378L367.368 268.16a7.5 7.5 0 10-13.858 5.74l56.251 135.801-51.309-14.867a7.497 7.497 0 00-8.656 3.586l-25.769 46.793-60.357-145.716c69.663-13.434 122.447-74.853 122.447-148.378C386.118 67.792 318.327 0 235 0S83.881 67.792 83.881 151.119c0 33.751 11.124 64.951 29.896 90.133L40.409 418.378a7.5 7.5 0 009.017 10.074l60.533-17.541 30.4 55.207a7.502 7.502 0 0013.499-.748l58.136-140.353a7.5 7.5 0 10-13.858-5.74l-52.165 125.936-25.767-46.793a7.5 7.5 0 00-8.657-3.586l-51.308 14.867 64.397-155.469c27.598 29.52 66.86 48.005 110.364 48.005 4.491 0 8.933-.209 13.325-.594l67.818 163.727a7.498 7.498 0 0013.498.748l30.401-55.207 60.533 17.541a7.499 7.499 0 009.016-10.074zM98.881 151.119C98.881 76.063 159.944 15 235 15s136.118 61.063 136.118 136.119S310.056 287.237 235 287.237 98.881 226.175 98.881 151.119z"/><path d="M321.659 122.961a7.5 7.5 0 00-5.892-5.079l-50.467-8.469-23.649-45.379a7.5 7.5 0 00-13.302 0l-23.65 45.379-50.466 8.469a7.499 7.499 0 00-4.111 12.651l35.85 36.515-7.54 50.614a7.5 7.5 0 0010.761 7.819L235 202.669l45.806 22.812a7.496 7.496 0 007.752-.645 7.5 7.5 0 003.01-7.173l-7.539-50.614 35.85-36.516a7.5 7.5 0 001.78-7.572zm-50.951 36.244a7.498 7.498 0 00-2.066 6.359l5.97 40.074-36.268-18.061a7.506 7.506 0 00-6.687 0l-36.268 18.061 5.97-40.074a7.497 7.497 0 00-2.066-6.359l-28.385-28.912 39.957-6.706a7.499 7.499 0 005.41-3.93L235 83.728l18.725 35.93a7.5 7.5 0 005.41 3.93l39.958 6.706-28.385 28.911z"/><path d="M348.612 158.684c-4.107-.549-7.877 2.343-8.42 6.45-6.957 52.507-52.18 92.104-105.192 92.104-58.514 0-106.119-47.604-106.119-106.119S176.486 45 235 45c53.013 0 98.235 39.596 105.192 92.104.543 4.107 4.32 7.001 8.42 6.45a7.5 7.5 0 006.449-8.42C347.121 75.198 295.506 30 235 30c-66.785 0-121.119 54.333-121.119 121.119S168.215 272.237 235 272.237c60.506 0 112.121-45.198 120.062-105.134a7.5 7.5 0 00-6.45-8.419z"/></symbol><symbol viewBox="0 0 512 512" id="respect" xmlns="http://www.w3.org/2000/svg"><path d="M467.76 88.1a10.052 10.052 0 00-7.071-2.931c-2.64 0-5.21 1.061-7.081 2.931a10.05 10.05 0 00-2.92 7.07c0 2.63 1.061 5.211 2.92 7.071a10.1 10.1 0 007.081 2.93c2.63 0 5.201-1.069 7.071-2.93 1.86-1.86 2.92-4.44 2.92-7.071 0-2.64-1.06-5.211-2.92-7.07zM238.071 323.626a10.05 10.05 0 00-7.071-2.931 10.06 10.06 0 00-7.081 2.931 10.05 10.05 0 00-2.92 7.07c0 2.63 1.061 5.21 2.92 7.071a10.1 10.1 0 007.081 2.93c2.63 0 5.201-1.069 7.071-2.93 1.86-1.86 2.92-4.44 2.92-7.071a10.038 10.038 0 00-2.92-7.07z"/><path d="M491.983 121.313c-2.73-4.802-8.838-6.48-13.637-3.75-4.801 2.73-6.48 8.836-3.749 13.637 29.706 52.238 20.738 118.438-21.81 160.985l-7.583 7.583a37.448 37.448 0 00-8.537-13.182L333.911 183.831a69.099 69.099 0 0018.38-13.168l19.708-19.709c3.905-3.905 3.905-10.238 0-14.143-3.906-3.905-10.237-3.905-14.144 0l-19.708 19.709c-9.259 9.258-21.568 14.357-34.661 14.357h-39.397a10.007 10.007 0 00-7.072 2.929l-30.16 30.16c-8.956 8.957-23.529 8.957-32.485 0-8.957-8.956-8.957-23.529 0-32.485l68.856-68.855C305.307 60.546 371 51.292 422.975 80.122c4.83 2.677 10.918.936 13.597-3.895 2.679-4.83.935-10.918-3.895-13.597-28.668-15.899-62.444-22.262-95.112-17.911-30.572 4.071-58.555 16.872-81.493 37.184-28.179-24.981-64.052-38.642-102.032-38.642-41.146 0-79.828 16.023-108.923 45.117S0 156.157 0 197.302c0 41.146 16.023 79.828 45.117 108.923l3.769 3.769a10.003 10.003 0 002.153 1.626c.669 8.652 4.294 17.116 10.897 23.718 7.349 7.348 16.997 11.02 26.648 11.02.501 0 1.003-.016 1.504-.036-.02.506-.037 1.012-.037 1.521 0 10.066 3.92 19.53 11.038 26.648 7.349 7.348 16.997 11.021 26.648 11.02.501 0 1.003-.016 1.504-.036-.02.506-.037 1.012-.037 1.521 0 10.066 3.92 19.53 11.039 26.648 7.348 7.347 16.998 11.02 26.648 11.02.507 0 1.014-.016 1.521-.036-.406 10.151 3.251 20.437 10.984 28.171 7.119 7.118 16.583 11.038 26.648 11.038 10.067 0 19.531-3.92 26.648-11.038l13.977-13.978 18.879 18.877c7.118 7.119 16.582 11.039 26.648 11.039 10.066 0 19.53-3.92 26.648-11.038 7.826-7.826 11.482-18.267 10.972-28.537a38.3 38.3 0 001.887.049c9.651 0 19.303-3.673 26.65-11.021 7.729-7.729 11.386-18.007 10.984-28.153.506.02 1.012.037 1.521.037 10.066 0 19.53-3.92 26.648-11.038 7.729-7.729 11.386-18.007 10.984-28.153.506.02 1.012.037 1.521.037 10.066 0 19.53-3.92 26.648-11.038a37.473 37.473 0 008.173-12.248 9.99 9.99 0 002.697-1.913l19.394-19.394c48.901-48.891 59.203-124.973 25.06-185.014zM88.585 326.374a17.57 17.57 0 01-12.506-5.18 17.57 17.57 0 01-5.18-12.505c0-4.723 1.839-9.165 5.18-12.505l17.234-17.234a17.567 17.567 0 0112.506-5.18c4.723 0 9.165 1.839 12.505 5.18 6.896 6.896 6.896 18.115 0 25.01l-17.234 17.235a17.57 17.57 0 01-12.505 5.179zm26.65 33.975a17.567 17.567 0 01-5.18-12.505c0-4.724 1.839-9.165 5.18-12.505l17.235-17.235v-.001a17.57 17.57 0 0112.505-5.18c4.723 0 9.165 1.839 12.505 5.18 6.896 6.896 6.896 18.115 0 25.01l-17.234 17.235c-6.897 6.895-18.119 6.895-25.011.001zm39.153 39.153a17.567 17.567 0 01-5.18-12.505c0-4.724 1.839-9.165 5.18-12.505l17.235-17.235v-.001a17.57 17.57 0 0112.505-5.18c4.724 0 9.165 1.839 12.505 5.18 6.896 6.897 6.896 18.116 0 25.011l-17.235 17.235c-6.895 6.896-18.114 6.896-25.01 0zm81.399 21.92l-17.235 17.236a17.57 17.57 0 01-12.505 5.18 17.567 17.567 0 01-12.505-5.18c-6.896-6.897-6.896-18.116 0-25.011l17.235-17.235v-.001a17.57 17.57 0 0112.505-5.18c4.723 0 9.165 1.839 12.505 5.18a17.567 17.567 0 015.18 12.505 17.56 17.56 0 01-5.18 12.506zm186.736-95.683a17.567 17.567 0 01-12.505 5.18 17.565 17.565 0 01-12.505-5.18l-41.627-41.627-.005-.005-39.15-39.15c-3.906-3.905-10.237-3.905-14.144 0-3.905 3.905-3.905 10.238 0 14.143l80.782 80.78c6.896 6.897 6.896 18.116 0 25.011a17.567 17.567 0 01-12.505 5.18 17.565 17.565 0 01-12.505-5.18l-80.782-80.781c-3.906-3.904-10.237-3.904-14.144 0-3.905 3.905-3.905 10.238 0 14.144l39.146 39.145.009.01 41.628 41.626c6.896 6.897 6.896 18.117.001 25.012-6.897 6.896-18.118 6.896-25.011 0l-41.628-41.628a9.985 9.985 0 00-2.556-1.847l-11.873-11.873c-3.906-3.904-10.237-3.904-14.144 0-3.905 3.905-3.905 10.238 0 14.144l55.702 55.7c6.896 6.897 6.896 18.116 0 25.011a17.567 17.567 0 01-12.505 5.18 17.565 17.565 0 01-12.505-5.18l-21.196-21.195a37.678 37.678 0 002.469-13.444c0-10.066-3.92-19.53-11.038-26.648-7.119-7.118-16.583-11.038-26.648-11.038-.509 0-1.015.017-1.521.037.401-10.146-3.255-20.424-10.984-28.153-7.119-7.118-16.583-11.038-26.648-11.038-.509 0-1.015.017-1.521.037.402-10.146-3.255-20.424-10.984-28.153-7.119-7.118-16.583-11.038-26.648-11.038-.509 0-1.015.017-1.521.037.402-10.146-3.255-20.424-10.984-28.153-14.694-14.694-38.605-14.693-53.299 0L61.94 282.039a37.668 37.668 0 00-5.549 7.071C32.9 264.159 20.006 231.722 20.006 197.3c0-35.803 13.942-69.464 39.26-94.78 25.316-25.316 58.978-39.259 94.78-39.259 32.536 0 63.302 11.516 87.644 32.618l-61.457 61.457c-8.116 8.117-12.586 18.908-12.586 30.386 0 11.479 4.47 22.27 12.586 30.387 8.378 8.377 19.383 12.566 30.387 12.566s22.009-4.188 30.387-12.566l27.232-27.232h35.253c2.911 0 5.79-.199 8.634-.552l110.403 110.401c6.889 6.899 6.889 18.119-.006 25.013z"/></symbol><symbol viewBox="0 0 512 512" id="resume" xmlns="http://www.w3.org/2000/svg"><path d="M414.007 148.75c5.522 0 10-4.477 10-10V30c0-16.542-13.458-30-30-30h-364c-16.542 0-30 13.458-30 30v452c0 16.542 13.458 30 30 30h364c16.542 0 30-13.458 30-30v-73.672c0-5.523-4.478-10-10-10s-10 4.477-10 10V482c0 5.514-4.486 10-10 10h-364c-5.514 0-10-4.486-10-10V30c0-5.514 4.486-10 10-10h364c5.514 0 10 4.486 10 10v108.75c0 5.523 4.478 10 10 10z"/><path d="M212.007 54c-50.729 0-92 41.271-92 92 0 26.317 11.11 50.085 28.882 66.869.333.356.687.693 1.074 1 16.371 14.979 38.158 24.13 62.043 24.13 23.885 0 45.672-9.152 62.043-24.13a9.993 9.993 0 001.074-1c17.774-16.784 28.884-40.552 28.884-66.869 0-50.729-41.271-92-92-92zm0 164c-16.329 0-31.399-5.472-43.491-14.668 8.789-15.585 25.19-25.332 43.491-25.332s34.702 9.747 43.491 25.332C243.405 212.528 228.336 218 212.007 218zm-16-76v-6.5c0-8.822 7.178-16 16-16s16 7.178 16 16v6.5c0 8.822-7.178 16-16 16s-16-7.178-16-16zm73.94 46.683a69.375 69.375 0 00-29.463-24.697c4.71-6.087 7.523-13.712 7.523-21.986v-6.5c0-19.851-16.149-36-36-36s-36 16.149-36 36v6.5c0 8.274 2.813 15.899 7.523 21.986a69.375 69.375 0 00-29.463 24.697c-8.829-11.953-14.06-26.716-14.06-42.683 0-39.701 32.299-72 72-72s72 32.299 72 72c0 15.967-5.231 30.73-14.06 42.683zM266.007 438h-54c-5.522 0-10 4.477-10 10s4.478 10 10 10h54c5.522 0 10-4.477 10-10s-4.478-10-10-10zm0-56h-142c-5.522 0-10 4.477-10 10s4.478 10 10 10h142c5.522 0 10-4.477 10-10s-4.478-10-10-10zm0-56h-142c-5.522 0-10 4.477-10 10s4.478 10 10 10h142c5.522 0 10-4.477 10-10s-4.478-10-10-10zM88.366 272.93a10.077 10.077 0 00-7.079-2.93c-2.631 0-5.211 1.07-7.07 2.93-1.86 1.86-2.93 4.44-2.93 7.07s1.069 5.21 2.93 7.07a10.092 10.092 0 007.07 2.93c2.64 0 5.21-1.07 7.079-2.93 1.86-1.86 2.931-4.44 2.931-7.07s-1.07-5.21-2.931-7.07zm0 56a10.095 10.095 0 00-7.079-2.93c-2.631 0-5.2 1.07-7.07 2.93-1.86 1.86-2.93 4.44-2.93 7.07s1.069 5.21 2.93 7.07a10.092 10.092 0 007.07 2.93c2.64 0 5.21-1.07 7.079-2.93 1.86-1.86 2.931-4.44 2.931-7.07s-1.07-5.21-2.931-7.07zm0 56a10.095 10.095 0 00-7.079-2.93c-2.631 0-5.2 1.07-7.07 2.93-1.86 1.86-2.93 4.44-2.93 7.07s1.069 5.21 2.93 7.07a10.072 10.072 0 007.07 2.93c2.64 0 5.22-1.07 7.079-2.93 1.86-1.86 2.931-4.44 2.931-7.07s-1.07-5.21-2.931-7.07zM266.007 270h-142c-5.522 0-10 4.477-10 10s4.478 10 10 10h142c5.522 0 10-4.477 10-10s-4.478-10-10-10zm224.995-139.68c-9.715-5.609-21.033-7.099-31.871-4.196-10.836 2.904-19.894 9.854-25.502 19.569L307.787 363.656a10.016 10.016 0 00-1.278 3.891l-8.858 79.344a10.004 10.004 0 009.937 11.11 9.99 9.99 0 005.931-1.948l64.284-47.344a9.983 9.983 0 002.73-3.052l125.841-217.963c11.58-20.056 4.684-45.794-15.372-57.374zM320.063 426.394l4.626-41.432 28.942 16.71-33.568 24.722zm48.15-39.398l-38.105-22 100.985-174.91 38.105 22-100.985 174.91zm120.841-209.303l-9.857 17.073-38.105-22 9.857-17.073a21.855 21.855 0 0113.358-10.25 21.85 21.85 0 0116.694 2.198 21.855 21.855 0 0110.25 13.358 21.856 21.856 0 01-2.197 16.694z"/></symbol><symbol viewBox="0 0 512 512" id="review" xmlns="http://www.w3.org/2000/svg"><path d="M512 106.667c0-17.673-14.327-32-32-32h-42.667V96H480c5.891 0 10.667 4.776 10.667 10.667V391.35l-53.163-53.163c25.553-45.59 18.946-104.349-19.829-143.125a117.208 117.208 0 00-1.675-1.634V10.667C416 4.776 411.224 0 405.333 0h-224c-.57 0-1.133.058-1.689.147-.122.019-.245.031-.366.055-.161.032-.319.078-.479.117-.18.044-.362.082-.54.136-.115.035-.227.081-.341.119-.217.073-.434.144-.647.232-.086.036-.169.08-.254.118-.233.103-.466.207-.692.327-.08.042-.154.093-.233.138-.224.126-.447.253-.663.397-.117.078-.226.167-.339.249-.169.123-.341.24-.505.374-.275.225-.54.464-.793.717L99.125 77.792A10.662 10.662 0 0096 85.333v213.333H74.667V320h145.625c16.546 46.283 60.774 79.404 112.744 79.403a119.693 119.693 0 0058.535-15.295L423.428 416H32c-5.891 0-10.667-4.776-10.667-10.667V106.667C21.333 100.776 26.109 96 32 96h42.667V74.667H32c-17.673 0-32 14.327-32 32v298.667c0 17.673 14.327 32 32 32h154.146c-5.189 51.275-47.736 53.283-52.813 53.333-5.891 0-10.667 4.776-10.667 10.667s4.776 10.667 10.667 10.667h245.333c5.891 0 10.667-4.776 10.667-10.667s-4.776-10.667-10.667-10.667c-2.006 0-47.392-.648-52.803-53.333h118.874l11.827 11.84a32.334 32.334 0 0022.965 9.493 32.327 32.327 0 0022.933-9.6c6.187-6.202 9.341-14.28 9.48-22.4H512v-320zm-184.651 384H184.651a84.452 84.452 0 0023.369-53.333h95.961a84.446 84.446 0 0023.368 53.333zm-210.016-192V89.749l53.333-53.333v38.251h-21.333V96h32C187.224 96 192 91.224 192 85.333v-64h202.667V177.09A119.696 119.696 0 00333.029 160c-17.637 0-34.382 3.817-49.457 10.667H149.333V192h102.243a120.145 120.145 0 00-24.514 32h-77.729v21.333h69.013a119.675 119.675 0 00-5.016 34.371c0 6.453.518 12.785 1.501 18.962h-97.498zm117.346-18.954c-.007-54.327 44.029-98.373 98.356-98.38a97.706 97.706 0 0169.557 28.8 98.371 98.371 0 0128.823 69.556c.003 26.943-10.83 51.353-28.374 69.121l-.903.902c-17.761 17.528-42.154 28.353-69.079 28.357-54.328.007-98.374-44.029-98.38-98.356zm190.868 76.799l15.726 15.725-15.755 15.755-15.726-15.725 15.755-15.755zm46.112 77.621l-31.056-31.056 15.755-15.755 31.056 31.056a11.119 11.119 0 013.253 7.825v.105a11.119 11.119 0 01-3.253 7.825c-4.355 4.341-11.401 4.341-15.755 0z"/><path d="M279.232 225.899l15.083 15.083c21.4-21.347 56.04-21.347 77.44 0l15.083-15.083c-29.736-29.664-77.87-29.664-107.606 0zM42.667 341.333V384c0 5.891 4.776 10.667 10.667 10.667H96v-21.333H64v-32H42.667zm74.666 32h21.333v21.333h-21.333zm32-256h213.333v21.333H149.333z"/></symbol><symbol viewBox="0 0 64 64" id="teamwork" xmlns="http://www.w3.org/2000/svg"><path d="M23.854 8.199A8.874 8.874 0 0023.232 10H25c0-.796-.471-1.48-1.146-1.801zM27 10h2V3.525a9.022 9.022 0 00-4.107 2.973C26.141 7.176 27 8.483 27 10zm6-6.941C32.671 3.022 32.338 3 32 3s-.671.022-1 .059V10h2zM42 35h2v-6.475a9.022 9.022 0 00-4.107 2.973C41.141 32.176 42 33.483 42 35zM39.107 6.498A9.022 9.022 0 0035 3.525V10h2c0-1.517.859-2.824 2.107-3.502zM40.768 10a8.874 8.874 0 00-.622-1.801A1.997 1.997 0 0039 10zM12 35h2v-6.475a9.022 9.022 0 00-4.107 2.973C11.141 32.176 12 33.483 12 35zm6-6.941c-.329-.037-.662-.059-1-.059s-.671.022-1 .059V35h2zm-9.146 5.14A8.874 8.874 0 008.232 35H10c0-.796-.471-1.48-1.146-1.801zM32 21c4.963 0 9-4.038 9-9H23c0 4.962 4.037 9 9 9zm-6.564 7A4.938 4.938 0 0125 26v-2.937a7.795 7.795 0 00-2 .54v4.189c.103.067.204.137.305.208zM21 24.818a8.124 8.124 0 00-1.408 1.504c.482.117.952.264 1.408.443zm27 3.241c-.329-.037-.662-.059-1-.059s-.671.022-1 .059V35h2zM33 35v-6h1c1.654 0 3-1.346 3-3v-.344C35.943 26.383 34.359 27 32 27s-3.943-.617-5-1.344V26c0 1.654 1.346 3 3 3h1v6zm10-10.182v1.946c.455-.179.925-.325 1.408-.443A8.118 8.118 0 0043 24.818zm11.107 6.68A9.017 9.017 0 0050 28.525V35h2c0-1.517.859-2.824 2.107-3.502zM55.768 35a8.874 8.874 0 00-.622-1.801A1.997 1.997 0 0054 35zm-16.914-1.801A8.874 8.874 0 0038.232 35H40c0-.796-.471-1.48-1.146-1.801z"/><path d="M38.521 30H37v-.024a4.95 4.95 0 01-2 .923V35h1.191a10.953 10.953 0 012.33-5zM37 22.796v-1.01c-1.502.77-3.199 1.214-5 1.214s-3.498-.444-5-1.214v1.008c.246.489 1.369 2.206 5 2.206 3.63 0 4.764-1.742 5-2.204zM25.146 33.199A1.997 1.997 0 0024 35h1.768a8.874 8.874 0 00-.622-1.801zM29 35v-4.101a4.95 4.95 0 01-2-.923V30h-1.521a10.953 10.953 0 012.33 5zm-9-6.475V35h2c0-1.517.859-2.824 2.107-3.502A9.022 9.022 0 0020 28.525zm21-.733v-4.189a7.795 7.795 0 00-2-.54V26c0 .714-.165 1.385-.436 2h2.131c.101-.071.202-.14.305-.208zm-3 20.801V53h2.436A4.938 4.938 0 0140 51v-2.938a7.928 7.928 0 00-2 .531zM17 46c4.963 0 9-4.038 9-9H8c0 4.962 4.037 9 9 9zm35 5v-.344C50.943 51.383 49.359 52 47 52s-3.943-.617-5-1.344V51c0 1.654 1.346 3 3 3h1v7h2v-7h1c1.654 0 3-1.346 3-3zm-14 8h6v2h-6zm-5-2.936V61h3V49.777a8.075 8.075 0 00-3 6.287z"/><path d="M42 55h-4v2h6v-1.101a4.95 4.95 0 01-2-.923zm8 4h6v2h-6zm-3-13c4.963 0 9-4.038 9-9H38c0 4.962 4.037 9 9 9zm11 3.777V61h3v-4.936a8.075 8.075 0 00-3-6.287zM54 51c0 .714-.165 1.385-.436 2H56v-4.407a7.886 7.886 0 00-2-.531zm-2 3.976a4.95 4.95 0 01-2 .923V57h6v-2h-4zm0-7.18v-1.01c-1.502.77-3.199 1.214-5 1.214s-3.498-.444-5-1.214v1.008c.246.489 1.369 2.206 5 2.206 3.63 0 4.764-1.742 5-2.204zM3 56.064V61h3V49.777a8.075 8.075 0 00-3 6.287zM8 59h6v2H8zm4-12.214v1.008c.246.489 1.369 2.206 5 2.206 3.63 0 4.764-1.742 5-2.204v-1.01c-1.502.77-3.199 1.214-5 1.214s-3.498-.444-5-1.214zM10 51v-2.938a7.845 7.845 0 00-2 .531V53h2.436A4.938 4.938 0 0110 51zm2 4H8v2h6v-1.101a4.95 4.95 0 01-2-.923zm16-5.287V61h3v-4.936c0-.022.003-.042.003-.064H31c0-2.578-1.162-4.834-3-6.287zM24 51c0 .714-.165 1.385-.436 2H26v-4.433a8.066 8.066 0 00-2-.508zm-2 3.976a4.95 4.95 0 01-2 .923V57h6v-2h-4z"/><path d="M22 51v-.344C20.943 51.383 19.359 52 17 52s-3.943-.617-5-1.344V51c0 1.654 1.346 3 3 3h1v7h2v-7h1c1.654 0 3-1.346 3-3zm-2 8h6v2h-6z"/></symbol><symbol viewBox="0 0 511.999 511.999" id="telephone" xmlns="http://www.w3.org/2000/svg"><path d="M498.827 377.633l-63.649-63.649c-17.548-17.547-46.102-17.547-63.649 0l-28.931 28.931c-13.294 13.294-34.926 13.29-48.215.005l-125.4-125.507c-13.325-13.325-13.327-34.892 0-48.219l28.931-28.931c17.471-17.47 17.715-45.935-.017-63.665l-63.632-63.432C116.717-4.381 88.164-4.381 70.663 13.12L47.471 36.111c-63.28 63.279-63.28 166.242-.003 229.519L246.16 464.426c63.428 63.429 166.088 63.434 229.521 0l23.146-23.145c17.548-17.548 17.548-46.1 0-63.648zM91.833 34.382c5.849-5.849 15.365-5.85 21.233.016l63.632 63.432c5.863 5.863 5.863 15.352 0 21.216l-10.609 10.608-84.81-84.81 10.554-10.462zM267.38 443.213L68.687 244.415c-48.958-48.958-51.649-125.833-8.276-178.006l84.564 84.564c-22.22 25.189-21.294 63.572 2.787 87.653l125.396 125.501.004.004c24.055 24.056 62.436 25.042 87.656 2.792l84.566 84.566c-52.007 43.298-128.709 41.019-178.004-8.276zm210.232-23.148l-10.609 10.609-84.865-84.866 10.607-10.608c5.85-5.849 15.367-5.85 21.217 0l63.649 63.649c5.85 5.85 5.85 15.368.001 21.216z"/></symbol><symbol viewBox="0 0 480.058 480.058" id="value" xmlns="http://www.w3.org/2000/svg"><path d="M368.033 88.029h-.004c-13.249-.014-23.986-10.751-24-24a8 8 0 00-16 0c-.014 13.249-10.751 23.986-24 24a8 8 0 000 16c13.249.014 23.986 10.751 24 24a8 8 0 0016 0c.014-13.249 10.751-23.986 24-24a7.998 7.998 0 008-7.996v-.004a7.998 7.998 0 00-7.996-8zm-32.004 16.024a40.338 40.338 0 00-8.023-8.023 40.338 40.338 0 008.023-8.023 40.338 40.338 0 008.023 8.023 40.311 40.311 0 00-8.023 8.023zm-160-16.024c-13.249-.014-23.986-10.751-24-24a8 8 0 00-16 0c-.014 13.249-10.751 23.986-24 24a8 8 0 000 16c13.249.014 23.986 10.751 24 24a8 8 0 0016 0c.014-13.249 10.751-23.986 24-24a8 8 0 000-16zm-32 16.024a40.338 40.338 0 00-8.023-8.023 40.338 40.338 0 008.023-8.023 40.338 40.338 0 008.023 8.023 40.311 40.311 0 00-8.023 8.023zm128-72.024c-13.249-.014-23.986-10.751-24-24a7.998 7.998 0 00-7.996-8h-.004a7.998 7.998 0 00-8 7.996v.004c-.014 13.249-10.751 23.986-24 24a8 8 0 000 16c13.249.014 23.986 10.751 24 24a8 8 0 0016 0c.014-13.249 10.751-23.986 24-24a8 8 0 000-16zm-32 16.024a40.338 40.338 0 00-8.023-8.023 40.338 40.338 0 008.023-8.023 40.338 40.338 0 008.023 8.023 40.311 40.311 0 00-8.023 8.023zm0 71.976c-70.692 0-128 57.308-128 128s57.308 128 128 128c70.659-.081 127.919-57.341 128-128 0-70.692-57.308-128-128-128zm0 240c-61.856 0-112-50.144-112-112s50.144-112 112-112 112 50.144 112 112c-.07 61.827-50.173 111.931-112 112z"/><path d="M160.029 240.029h16c.04-35.329 28.671-63.96 64-64v-16c-44.162.051-79.95 35.838-80 80zm320 131.977l-.133-141.34c-.023-22.027-13.719-38.637-31.867-38.637h-1.531c-17.663.944-31.827 14.951-32.969 32.602l-19.672 101.234a26.386 26.386 0 00-19.109 4.543l-60.375 42.461a24.417 24.417 0 00-10.344 19.937v79.223a7.998 7.998 0 007.996 8h80.004a7.998 7.998 0 008-7.996v-10.125l52.672-33.535a67.686 67.686 0 0027.328-56.367zm-36.086 42.976l-56.211 35.785a8.008 8.008 0 00-3.703 6.75v6.512h-64v-71.223a8.397 8.397 0 013.555-6.856l60.367-42.457c4.715-3.315 11.224-2.179 14.539 2.536a10.433 10.433 0 011.898 5.999 10.22 10.22 0 01-2.555 6.918l-50.961 42.965 10.312 12.234 51.461-43.422c10.305-10.306 10.326-27.008.047-37.34l20.625-106.242c.233-9.735 7.525-17.847 17.18-19.113h1.531c9.031 0 15.852 9.738 15.867 22.652l.133 141.332a51.563 51.563 0 01-20.085 42.97zm-278.266-42.117l-60.367-42.457a26.407 26.407 0 00-19.109-4.543L66.615 225.174c-.981-17.849-15.209-32.115-33.055-33.145h-1.531c-18.148 0-31.844 16.609-31.867 38.637L.029 372.014a67.731 67.731 0 0027.492 56.469l52.508 33.426v10.121a7.998 7.998 0 007.996 8h80.004a7.998 7.998 0 008-7.996v-79.227a24.418 24.418 0 00-10.352-19.942zm-5.648 91.164h-64v-6.512a8.008 8.008 0 00-3.703-6.75l-56.047-35.676a51.597 51.597 0 01-20.25-43.07l.133-141.34c.016-12.914 6.836-22.652 15.867-22.652h1.531c9.83 1.37 17.175 9.731 17.266 19.656l20.539 105.699c-10.279 10.332-10.258 27.034.047 37.34.294.292.61.561.945.805l58.961 42.965 9.422-12.93-58.391-42.547c-3.858-4.283-3.514-10.882.768-14.74a10.437 10.437 0 0112.99-.783l60.359 42.453a8.396 8.396 0 013.563 6.859v71.223z"/></symbol><symbol viewBox="0 0 512 512" id="verified" xmlns="http://www.w3.org/2000/svg"><path d="M437.019 74.98C388.667 26.629 324.38 0 256 0 187.619 0 123.331 26.629 74.98 74.98 26.628 123.332 0 187.62 0 256s26.628 132.667 74.98 181.019C123.332 485.371 187.619 512 256 512c68.38 0 132.667-26.629 181.019-74.981C485.371 388.667 512 324.38 512 256s-26.629-132.667-74.981-181.02zM256 482C131.383 482 30 380.617 30 256S131.383 30 256 30s226 101.383 226 226-101.383 226-226 226z"/><path d="M378.305 173.859c-5.857-5.856-15.355-5.856-21.212.001L224.634 306.319l-69.727-69.727c-5.857-5.857-15.355-5.857-21.213 0-5.858 5.857-5.858 15.355 0 21.213l80.333 80.333a14.953 14.953 0 0010.606 4.393c3.838 0 7.678-1.465 10.606-4.393l143.066-143.066c5.858-5.857 5.858-15.355 0-21.213z"/></symbol></svg>