<svg width="31" height="31" viewBox="0 0 31 31" fill="none" xmlns="http://www.w3.org/2000/svg">
<g clip-path="url(#clip0)">
<path d="M29.632 23.344C29.9555 23.344 30.2179 23.0816 30.2179 22.7581V21.7334C30.2178 20.1695 29.317 18.8128 28.0075 18.1523C28.6888 17.5755 29.1224 16.7149 29.1224 15.7544V15.0241C29.1224 13.2917 27.713 11.8822 25.9805 11.8822C24.2481 11.8822 22.8386 13.2917 22.8386 15.0241V15.7544C22.8386 16.5893 23.1666 17.3486 23.6996 17.9118C22.6695 18.1416 21.6954 18.5802 20.8253 19.2149L15.5195 23.0856C15.4098 23.1656 15.3093 23.2556 15.2179 23.3533C15.1265 23.2556 15.0259 23.1656 14.9162 23.0856L9.61046 19.2149C8.74034 18.5802 7.76628 18.1416 6.73615 17.9118C7.26917 17.3486 7.59718 16.5893 7.59718 15.7544V15.0241C7.59718 13.2917 6.18771 11.8822 4.45527 11.8822C2.72283 11.8822 1.31336 13.2917 1.31336 15.0241V15.7544C1.31336 16.7149 1.74701 17.5755 2.42828 18.1523C1.11871 18.8128 0.217896 20.1695 0.217896 21.7335V29.7514C0.217896 30.0749 0.480278 30.3373 0.803832 30.3373H8.10665C8.4302 30.3373 8.69259 30.0749 8.69259 29.7514V24.3711L12.5263 26.6827C13.2029 27.0906 14.0174 27.1021 14.7053 26.7137C14.8996 26.604 15.0708 26.4684 15.2179 26.3136C15.3649 26.4684 15.5361 26.604 15.7304 26.7137C16.0652 26.9028 16.4299 26.9971 16.7941 26.9971C17.1784 26.9971 17.5621 26.8921 17.9094 26.6827L21.7431 24.3711V29.7514C21.7431 30.0749 22.0055 30.3373 22.3291 30.3373H29.6319C29.9555 30.3373 30.2178 30.0749 30.2178 29.7514V27.6344C30.2178 27.3108 29.9555 27.0485 29.6319 27.0485C29.3083 27.0485 29.046 27.3108 29.046 27.6344V29.1655H22.915V23.7581C22.915 23.7278 22.912 23.6982 22.9076 23.6691L23.5445 23.2851C23.8216 23.1179 23.9108 22.7579 23.7437 22.4807C23.5765 22.2036 23.2163 22.1142 22.9394 22.2815L17.3043 25.6791C16.9945 25.8659 16.6215 25.8712 16.3067 25.6933C15.9918 25.5155 15.8038 25.1934 15.8038 24.8317C15.8038 24.5167 15.9557 24.2179 16.2102 24.0322L21.516 20.1615C22.6506 19.3337 23.9928 18.8962 25.3974 18.8962H26.2087C27.7732 18.8962 29.046 20.169 29.046 21.7334V22.7581C29.046 23.0816 29.3084 23.344 29.632 23.344ZM2.48518 15.0241C2.48518 13.9378 3.36894 13.0541 4.45521 13.0541C5.54148 13.0541 6.42525 13.9378 6.42525 15.0241V15.7544C6.42525 16.8407 5.54148 17.7245 4.45521 17.7245C3.36894 17.7245 2.48518 16.8407 2.48518 15.7544V15.0241ZM14.129 25.6933C13.814 25.8711 13.4411 25.8658 13.1314 25.6791L7.49634 22.2815C7.21925 22.1143 6.85907 22.2036 6.69202 22.4807C6.52491 22.7578 6.61409 23.1179 6.89124 23.2851L7.52745 23.6687C7.523 23.6978 7.52066 23.7277 7.52066 23.7581V29.1655H1.38977V21.7335C1.38977 20.169 2.6626 18.8963 4.22705 18.8963H5.03839C6.443 18.8963 7.78515 19.3338 8.91981 20.1616L14.2256 24.0323C14.4801 24.2179 14.632 24.5168 14.632 24.8317C14.6319 25.1934 14.4439 25.5155 14.129 25.6933ZM27.9506 15.7544C27.9506 16.8407 27.0668 17.7245 25.9805 17.7245C24.8943 17.7245 24.0105 16.8407 24.0105 15.7544V15.0241C24.0105 13.9378 24.8943 13.0541 25.9805 13.0541C27.0668 13.0541 27.9506 13.9378 27.9506 15.0241V15.7544Z" fill="#188CB1"/>
<path d="M30.0462 24.71C29.9372 24.6011 29.7861 24.5389 29.632 24.5389C29.4779 24.5389 29.3267 24.6011 29.2177 24.71C29.1087 24.8196 29.046 24.9702 29.046 25.1243C29.046 25.279 29.1087 25.4296 29.2177 25.5391C29.3267 25.6481 29.4779 25.7108 29.632 25.7108C29.7861 25.7108 29.9372 25.6482 30.0462 25.5391C30.1551 25.4296 30.2179 25.279 30.2179 25.1243C30.2179 24.9702 30.1552 24.819 30.0462 24.71Z" fill="#188CB1"/>
<path d="M24.4197 0.339966H22.4861C22.1625 0.339966 21.9002 0.60229 21.9002 0.925902C21.9002 1.24951 22.1625 1.51184 22.4861 1.51184H23.0051L16.1578 8.35915L11.677 3.87832C11.567 3.76846 11.418 3.7067 11.2627 3.7067C11.1073 3.7067 10.9583 3.76846 10.8483 3.87832L6.67307 8.05358C6.44426 8.28245 6.44426 8.65341 6.67307 8.88227C6.90194 9.11114 7.27284 9.11108 7.50176 8.88227L11.2627 5.12126L15.7435 9.6021C15.858 9.71653 16.0079 9.77372 16.1579 9.77372C16.3078 9.77372 16.4577 9.71653 16.5722 9.6021L23.8337 2.34053V2.85949C23.8337 3.1831 24.0961 3.44543 24.4197 3.44543C24.7432 3.44543 25.0056 3.1831 25.0056 2.85949V0.925902C25.0056 0.60229 24.7432 0.339966 24.4197 0.339966Z" fill="#188CB1"/>
<path d="M6.02272 9.53258C5.91379 9.4236 5.76262 9.3609 5.60852 9.3609C5.45442 9.3609 5.30325 9.4236 5.19426 9.53258C5.08528 9.64156 5.02258 9.79274 5.02258 9.94684C5.02258 10.1009 5.08522 10.2521 5.19426 10.3611C5.30331 10.4701 5.45442 10.5328 5.60852 10.5328C5.76262 10.5328 5.91379 10.4701 6.02272 10.3611C6.1317 10.2521 6.19446 10.1009 6.19446 9.94684C6.19446 9.79215 6.13176 9.64156 6.02272 9.53258Z" fill="#188CB1"/>
</g>
<defs>
<clipPath id="clip0">
<rect width="30" height="30" fill="white" transform="translate(0.217896 0.338623)"/>
</clipPath>
</defs>
</svg>
