<svg width="26" height="26" viewBox="0 0 26 26" fill="none" xmlns="http://www.w3.org/2000/svg">
<g clip-path="url(#clip0)">
<path d="M23.2706 3.68359H2.66516C1.4551 3.68359 0.467896 4.66973 0.467896 5.88086V20.5293C0.467896 21.7363 1.45071 22.7266 2.66516 22.7266H23.2706C24.4777 22.7266 25.4679 21.7437 25.4679 20.5293V5.88086C25.4679 4.67383 24.4851 3.68359 23.2706 3.68359ZM22.9672 5.14844L13.0145 15.1012L2.97566 5.14844H22.9672ZM1.93274 20.226V6.1772L8.98738 13.1713L1.93274 20.226ZM2.96853 21.2617L10.0276 14.2026L12.5011 16.6549C12.7874 16.9388 13.2495 16.9378 13.5346 16.6526L15.9464 14.2409L22.9673 21.2617H2.96853ZM24.0031 20.2259L16.9822 13.2051L24.0031 6.18418V20.2259Z" fill="white"/>
</g>
<defs>
<clipPath id="clip0">
<rect width="25" height="25" fill="white" transform="translate(0.467896 0.705078)"/>
</clipPath>
</defs>
</svg>
