<svg width="31" height="31" viewBox="0 0 31 31" fill="none" xmlns="http://www.w3.org/2000/svg">
<g clip-path="url(#clip0)">
<path d="M24.4617 17.8291V10.8291C24.4688 7.54005 22.0112 4.76734 18.7451 4.37916L20.4116 1.0525C20.4893 0.897225 20.4807 0.712654 20.3889 0.564949C20.2971 0.417488 20.1355 0.328133 19.9617 0.329109H10.9617C10.7883 0.329109 10.6274 0.418709 10.5361 0.56617C10.4451 0.713387 10.4368 0.897469 10.5142 1.0525L12.1787 4.37916C8.91797 4.7776 6.46582 7.5442 6.46167 10.8291V19.8291H7.46167V10.8291C7.46533 7.79298 9.92554 5.33277 12.9617 5.32911H17.9617C19.4209 5.32691 20.8213 5.90577 21.853 6.93775C22.885 7.96949 23.4639 9.36988 23.4617 10.8291V17.8291H24.4617ZM17.6526 4.32911H13.2708L11.7708 1.32911H19.1526L17.6526 4.32911Z" fill="#188CB1"/>
<path d="M11.2117 7.79871C11.4854 7.63977 11.7795 7.51892 12.0862 7.43982L11.8362 6.4718C11.4419 6.5741 11.0632 6.72937 10.7107 6.93323L11.2117 7.79871Z" fill="#188CB1"/>
<path d="M8.46169 12.8292H9.46168V10.8292C9.45924 9.88269 9.84303 8.9762 10.5247 8.31921L9.82813 7.60217C8.95192 8.44666 8.45827 9.61218 8.46169 10.8292V12.8292Z" fill="#188CB1"/>
<path d="M1.8877 24.9032L10.3762 29.5328C11.3315 30.0551 12.4028 30.329 13.4917 30.3292H29.9616C30.2378 30.3292 30.4616 30.1054 30.4616 29.8292V20.8292C30.4616 20.5531 30.2378 20.3292 29.9616 20.3292H26.1352L26.0781 20.2848C25.4909 19.8263 24.8418 19.4533 24.1501 19.1762C21.7241 18.1862 18.9692 18.4296 16.7541 19.8292H12.9617C12.1655 19.829 11.4167 20.2081 10.9455 20.85C10.4746 21.4918 10.3374 22.3197 10.5762 23.0792L4.39526 19.9823C3.47729 19.5214 2.37647 19.6266 1.56275 20.2533C0.870851 20.7716 0.463137 21.5848 0.461672 22.4493V22.5043C0.460451 23.505 1.00781 24.4262 1.8877 24.9032ZM26.4616 21.3292H29.4616V29.3292H26.4616V21.3292ZM1.46167 22.4493C1.46533 21.8895 1.73413 21.3644 2.18628 21.0343C2.69531 20.6503 3.37842 20.589 3.94775 20.8763L11.7383 24.7762C11.8074 24.8112 11.884 24.8292 11.9617 24.8292H19.4617V23.8292H12.9617C12.1333 23.8292 11.4617 23.1576 11.4617 22.3292C11.4617 21.5009 12.1333 20.8292 12.9617 20.8292H16.9016C16.9995 20.829 17.0952 20.8004 17.1772 20.7467C19.1362 19.4567 21.6057 19.2159 23.7771 20.1036C24.3813 20.3458 24.9485 20.6718 25.4616 21.0717V29.3292H13.4917C12.5703 29.329 11.6641 29.097 10.8557 28.6552L2.36475 24.0248C1.80713 23.7223 1.46045 23.1386 1.46167 22.5043V22.4493Z" fill="#188CB1"/>
<path d="M27.4617 26.8292H28.4617V27.8292H27.4617V26.8292Z" fill="#188CB1"/>
<path d="M15.9617 17.8292V16.8292H16.4617C17.5662 16.8292 18.4617 15.9337 18.4617 14.8292C18.4617 13.7247 17.5662 12.8292 16.4617 12.8292H14.4617C13.9094 12.8292 13.4617 12.3815 13.4617 11.8292C13.4617 11.277 13.9094 10.8292 14.4617 10.8292H17.9617V9.82922H15.9617V8.82922H14.9617V9.82922H14.4617C13.3572 9.82922 12.4617 10.7247 12.4617 11.8292C12.4617 12.9337 13.3572 13.8292 14.4617 13.8292H16.4617C17.0139 13.8292 17.4617 14.277 17.4617 14.8292C17.4617 15.3815 17.0139 15.8292 16.4617 15.8292H12.9617V16.8292H14.9617V17.8292H15.9617Z" fill="#188CB1"/>
</g>
<defs>
<clipPath id="clip0">
<rect width="30" height="30" fill="white" transform="translate(0.46167 0.329224)"/>
</clipPath>
</defs>
</svg>
