<svg width="26" height="26" viewBox="0 0 26 26" fill="none" xmlns="http://www.w3.org/2000/svg">
<g clip-path="url(#clip0)">
<path d="M13.257 0.594971C8.41067 0.594971 4.4679 4.53774 4.4679 9.38403C4.4679 11.0214 4.92146 12.6194 5.77986 14.0057L12.7567 25.2487C12.8903 25.4641 13.1258 25.595 13.379 25.595C13.3809 25.595 13.3828 25.595 13.3848 25.595C13.6402 25.593 13.8761 25.4581 14.0073 25.2389L20.8063 13.887C21.6174 12.5299 22.046 10.9729 22.046 9.38403C22.046 4.53774 18.1032 0.594971 13.257 0.594971ZM19.5492 13.1349L13.3679 23.4556L7.02488 13.2339C6.31038 12.08 5.92297 10.7488 5.92297 9.38403C5.92297 5.34546 9.21838 2.05005 13.257 2.05005C17.2955 2.05005 20.5861 5.34546 20.5861 9.38403C20.5861 10.7083 20.2242 12.0055 19.5492 13.1349Z" fill="white"/>
<path d="M13.257 4.9895C10.8338 4.9895 8.86243 6.96089 8.86243 9.38403C8.86243 11.7917 10.8017 13.7786 13.257 13.7786C15.7425 13.7786 17.6515 11.7652 17.6515 9.38403C17.6515 6.96089 15.6801 4.9895 13.257 4.9895ZM13.257 12.3235C11.6331 12.3235 10.3175 11.0035 10.3175 9.38403C10.3175 7.7686 11.6415 6.44458 13.257 6.44458C14.8724 6.44458 16.1915 7.7686 16.1915 9.38403C16.1915 10.9799 14.9066 12.3235 13.257 12.3235Z" fill="white"/>
</g>
<defs>
<clipPath id="clip0">
<rect width="25" height="25" fill="white" transform="translate(0.756958 0.594971)"/>
</clipPath>
</defs>
</svg>
