<svg width="30" height="30" viewBox="0 0 30 30" fill="none" xmlns="http://www.w3.org/2000/svg">
<path d="M30 0H0V20.3226H8.94878L5.32258 28.9344V30H9.03714L12.9081 20.3226H13.0645V28.0645H16.9355V20.3226H17.0919L20.9629 30H24.6774V28.9344L21.0512 20.3226H30V0ZM29.0323 0.967742V16.4516H0.967742V0.967742H29.0323ZM8.38221 29.0323H6.33143L9.99874 20.3226H11.8659L8.38221 29.0323ZM15.9677 27.0968H14.0323V20.3226H15.9677V27.0968ZM23.6686 29.0323H21.6178L18.1341 20.3226H20.0013L23.6686 29.0323ZM0.967742 19.3548V17.4194H29.0323V19.3548H0.967742Z" fill="#188CB1"/>
<path d="M17.4193 10.1613C17.4193 13.0959 19.8072 15.4838 22.7419 15.4838C25.6765 15.4838 28.0645 13.0959 28.0645 10.1613C28.0645 7.22662 25.6765 4.83868 22.7419 4.83868C19.8072 4.83868 17.4193 7.22662 17.4193 10.1613ZM18.4156 10.6451H22.258V14.4875C20.2432 14.2635 18.6396 12.6605 18.4156 10.6451ZM27.0967 10.1613C27.0967 12.3992 25.3999 14.2461 23.2258 14.4875V5.83501C25.3999 6.07648 27.0967 7.92336 27.0967 10.1613ZM22.258 5.83501V9.67739H18.4156C18.6396 7.66205 20.2432 6.05899 22.258 5.83501Z" fill="#188CB1"/>
<path d="M2.90322 7.10376V11.6129H10.6452V7.10376L11.3105 7.63583L11.9148 6.88025L6.77419 2.76782L1.63306 6.88025L2.23742 7.63583L2.90322 7.10376ZM7.74193 10.6451H5.80644V8.70965H7.74193V10.6451ZM9.67741 6.32952V10.6451H8.70967V7.74191H4.8387V10.6451H3.87096V6.32952L6.77419 4.0068L9.67741 6.32952Z" fill="#188CB1"/>
<path d="M1.93542 14.5161H2.90317V15.4839H1.93542V14.5161Z" fill="#188CB1"/>
<path d="M3.87097 14.5161H11.6129V15.4839H3.87097V14.5161Z" fill="#188CB1"/>
<path d="M1.93542 12.5806H11.6128V13.5484H1.93542V12.5806Z" fill="#188CB1"/>
<path d="M13.5484 2.90323H14.5162V7.25807H15.4839V2.90323H16.4517V6.29032H17.4194V2.90323H18.3871V4.83871H19.3549V1.93549H12.5807V6.29032H13.5484V2.90323Z" fill="#188CB1"/>
</svg>
